<?xml version="1.0" encoding="UTF-8" standalone="no"?><svg xmlns="http://www.w3.org/2000/svg" xmlns:xlink="http://www.w3.org/1999/xlink" contentScriptType="application/ecmascript" contentStyleType="text/css" height="457px" preserveAspectRatio="none" style="width:796px;height:457px;" version="1.1" viewBox="0 0 796 457" width="796px" zoomAndPan="magnify"><defs><filter height="300%" id="f18oapanz3yuw6" width="300%" x="-1" y="-1"><feGaussianBlur result="blurOut" stdDeviation="2.0"/><feColorMatrix in="blurOut" result="blurOut2" type="matrix" values="0 0 0 0 0 0 0 0 0 0 0 0 0 0 0 0 0 0 .4 0"/><feOffset dx="4.0" dy="4.0" in="blurOut2" result="blurOut3"/><feBlend in="SourceGraphic" in2="blurOut3" mode="normal"/></filter></defs><g><!--cluster laplacian.project.document--><polygon fill="#FFFFFF" filter="url(#f18oapanz3yuw6)" points="545,24,764,24,771,46.2969,774,46.2969,774,206,545,206,545,24" style="stroke: #000000; stroke-width: 1.5;"/><line style="stroke: #000000; stroke-width: 1.5;" x1="545" x2="771" y1="46.2969" y2="46.2969"/><text fill="#000000" font-family="sans-serif" font-size="14" font-weight="bold" lengthAdjust="spacingAndGlyphs" textLength="213" x="549" y="38.9951">laplacian.project.document</text><!--class Section--><a href="/blob/master/doc/entities/Section.md" target="_top" xlink:actuate="onRequest" xlink:show="new" xlink:title="/blob/master/doc/entities/Section.md" xlink:type="simple"><rect fill="#FEFECE" filter="url(#f18oapanz3yuw6)" height="86.4141" id="Section" style="stroke: #A80036; stroke-width: 1.5;" width="114" x="602" y="104"/><ellipse cx="632.75" cy="120" fill="#ADD1B2" rx="11" ry="11" style="stroke: #A80036; stroke-width: 1.0;"/><path d="M635.7188,125.6406 Q635.1406,125.9375 634.5,126.0781 Q633.8594,126.2344 633.1563,126.2344 Q630.6563,126.2344 629.3281,124.5938 Q628.0156,122.9375 628.0156,119.8125 Q628.0156,116.6875 629.3281,115.0313 Q630.6563,113.375 633.1563,113.375 Q633.8594,113.375 634.5,113.5313 Q635.1563,113.6875 635.7188,113.9844 L635.7188,116.7031 Q635.0938,116.125 634.5,115.8594 Q633.9063,115.5781 633.2813,115.5781 Q631.9375,115.5781 631.25,116.6563 Q630.5625,117.7188 630.5625,119.8125 Q630.5625,121.9063 631.25,122.9844 Q631.9375,124.0469 633.2813,124.0469 Q633.9063,124.0469 634.5,123.7813 Q635.0938,123.5 635.7188,122.9219 L635.7188,125.6406 Z "/><text fill="#000000" font-family="sans-serif" font-size="12" lengthAdjust="spacingAndGlyphs" textLength="47" x="650.25" y="124.1543">Section</text><line style="stroke: #A80036; stroke-width: 1.5;" x1="603" x2="715" y1="136" y2="136"/><path d="M612.6667,142.7214 L611.75,145.4714 L609,145.4714 L611.2917,147.3047 L610.375,150.0547 L612.6667,148.2214 L614.9583,150.0547 L614.0417,147.3047 L616.3333,145.4714 L613.5833,145.4714 L612.6667,142.7214 " fill="#008000" style="stroke: ; stroke-width: 0.0; stroke-dasharray: ;"/></a><a href="/blob/master/doc/entities/Section.md#title-string" target="_top" xlink:actuate="onRequest" xlink:show="new" xlink:title="/blob/master/doc/entities/Section.md#title-string" xlink:type="simple"><text fill="#0000FF" font-family="sans-serif" font-size="11" lengthAdjust="spacingAndGlyphs" text-decoration="underline" textLength="21" x="617.3333" y="150.2104">title</text></a><text fill="#000000" font-family="sans-serif" font-size="11" lengthAdjust="spacingAndGlyphs" textLength="4" x="638.3333" y="150.2104">:</text><text fill="#808080" font-family="sans-serif" font-size="11" lengthAdjust="spacingAndGlyphs" textLength="34" x="646.3333" y="150.2104">String</text><path d="M612.6667,155.526 L611.75,158.276 L609,158.276 L611.2917,160.1094 L610.375,162.8594 L612.6667,161.026 L614.9583,162.8594 L614.0417,160.1094 L616.3333,158.276 L613.5833,158.276 L612.6667,155.526 " fill="#008000" style="stroke: ; stroke-width: 0.0; stroke-dasharray: ;"/><a href="/blob/master/doc/entities/Section.md#content-string" target="_top" xlink:actuate="onRequest" xlink:show="new" xlink:title="/blob/master/doc/entities/Section.md#content-string" xlink:type="simple"><text fill="#0000FF" font-family="sans-serif" font-size="11" lengthAdjust="spacingAndGlyphs" text-decoration="underline" textLength="42" x="617.3333" y="163.0151">content</text></a><text fill="#000000" font-family="sans-serif" font-size="11" lengthAdjust="spacingAndGlyphs" textLength="4" x="659.3333" y="163.0151">:</text><text fill="#808080" font-family="sans-serif" font-size="11" lengthAdjust="spacingAndGlyphs" textLength="34" x="667.3333" y="163.0151">String</text><a href="/blob/master/doc/entities/Section.md#included_if-string" target="_top" xlink:actuate="onRequest" xlink:show="new" xlink:title="/blob/master/doc/entities/Section.md#included_if-string" xlink:type="simple"><text fill="#0000FF" font-family="sans-serif" font-size="11" lengthAdjust="spacingAndGlyphs" text-decoration="underline" textLength="60" x="608" y="175.8198">included_if</text></a><text fill="#000000" font-family="sans-serif" font-size="11" lengthAdjust="spacingAndGlyphs" textLength="4" x="668" y="175.8198">:</text><text fill="#808080" font-family="sans-serif" font-size="11" lengthAdjust="spacingAndGlyphs" textLength="34" x="676" y="175.8198">String</text><line style="stroke: #A80036; stroke-width: 1.5;" x1="603" x2="715" y1="182.4141" y2="182.4141"/><!--class Document--><a href="/blob/master/doc/entities/Document.md" target="_top" xlink:actuate="onRequest" xlink:show="new" xlink:title="/blob/master/doc/entities/Document.md" xlink:type="simple"><rect fill="#FEFECE" filter="url(#f18oapanz3yuw6)" height="112.0234" id="Document" style="stroke: #A80036; stroke-width: 1.5;" width="106" x="320" y="91"/><ellipse cx="339.5" cy="107" fill="#ADD1B2" rx="11" ry="11" style="stroke: #A80036; stroke-width: 1.0;"/><path d="M342.4688,112.6406 Q341.8906,112.9375 341.25,113.0781 Q340.6094,113.2344 339.9063,113.2344 Q337.4063,113.2344 336.0781,111.5938 Q334.7656,109.9375 334.7656,106.8125 Q334.7656,103.6875 336.0781,102.0313 Q337.4063,100.375 339.9063,100.375 Q340.6094,100.375 341.25,100.5313 Q341.9063,100.6875 342.4688,100.9844 L342.4688,103.7031 Q341.8438,103.125 341.25,102.8594 Q340.6563,102.5781 340.0313,102.5781 Q338.6875,102.5781 338,103.6563 Q337.3125,104.7188 337.3125,106.8125 Q337.3125,108.9063 338,109.9844 Q338.6875,111.0469 340.0313,111.0469 Q340.6563,111.0469 341.25,110.7813 Q341.8438,110.5 342.4688,109.9219 L342.4688,112.6406 Z "/><text fill="#000000" font-family="sans-serif" font-size="12" lengthAdjust="spacingAndGlyphs" textLength="64" x="354.5" y="111.1543">Document</text><line style="stroke: #A80036; stroke-width: 1.5;" x1="321" x2="425" y1="123" y2="123"/></a><a href="/blob/master/doc/entities/Document.md#title-string" target="_top" xlink:actuate="onRequest" xlink:show="new" xlink:title="/blob/master/doc/entities/Document.md#title-string" xlink:type="simple"><text fill="#0000FF" font-family="sans-serif" font-size="11" lengthAdjust="spacingAndGlyphs" text-decoration="underline" textLength="21" x="326" y="137.2104">title</text></a><text fill="#000000" font-family="sans-serif" font-size="11" lengthAdjust="spacingAndGlyphs" textLength="4" x="347" y="137.2104">:</text><text fill="#808080" font-family="sans-serif" font-size="11" lengthAdjust="spacingAndGlyphs" textLength="34" x="355" y="137.2104">String</text><a href="/blob/master/doc/entities/Document.md#author-string" target="_top" xlink:actuate="onRequest" xlink:show="new" xlink:title="/blob/master/doc/entities/Document.md#author-string" xlink:type="simple"><text fill="#0000FF" font-family="sans-serif" font-size="11" lengthAdjust="spacingAndGlyphs" text-decoration="underline" textLength="37" x="326" y="150.0151">author</text></a><text fill="#000000" font-family="sans-serif" font-size="11" lengthAdjust="spacingAndGlyphs" textLength="4" x="363" y="150.0151">:</text><text fill="#808080" font-family="sans-serif" font-size="11" lengthAdjust="spacingAndGlyphs" textLength="40" x="371" y="150.0151">String?</text><a href="/blob/master/doc/entities/Document.md#rights-string" target="_top" xlink:actuate="onRequest" xlink:show="new" xlink:title="/blob/master/doc/entities/Document.md#rights-string" xlink:type="simple"><text fill="#0000FF" font-family="sans-serif" font-size="11" lengthAdjust="spacingAndGlyphs" text-decoration="underline" textLength="33" x="326" y="162.8198">rights</text></a><text fill="#000000" font-family="sans-serif" font-size="11" lengthAdjust="spacingAndGlyphs" textLength="4" x="359" y="162.8198">:</text><text fill="#808080" font-family="sans-serif" font-size="11" lengthAdjust="spacingAndGlyphs" textLength="40" x="367" y="162.8198">String?</text><a href="/blob/master/doc/entities/Document.md#language-string" target="_top" xlink:actuate="onRequest" xlink:show="new" xlink:title="/blob/master/doc/entities/Document.md#language-string" xlink:type="simple"><text fill="#0000FF" font-family="sans-serif" font-size="11" lengthAdjust="spacingAndGlyphs" text-decoration="underline" textLength="52" x="326" y="175.6245">language</text></a><text fill="#000000" font-family="sans-serif" font-size="11" lengthAdjust="spacingAndGlyphs" textLength="4" x="378" y="175.6245">:</text><text fill="#808080" font-family="sans-serif" font-size="11" lengthAdjust="spacingAndGlyphs" textLength="34" x="386" y="175.6245">String</text><a href="/blob/master/doc/entities/Document.md#abstract-string" target="_top" xlink:actuate="onRequest" xlink:show="new" xlink:title="/blob/master/doc/entities/Document.md#abstract-string" xlink:type="simple"><text fill="#0000FF" font-family="sans-serif" font-size="11" lengthAdjust="spacingAndGlyphs" text-decoration="underline" textLength="47" x="326" y="188.4292">abstract</text></a><text fill="#000000" font-family="sans-serif" font-size="11" lengthAdjust="spacingAndGlyphs" textLength="4" x="373" y="188.4292">:</text><text fill="#808080" font-family="sans-serif" font-size="11" lengthAdjust="spacingAndGlyphs" textLength="34" x="381" y="188.4292">String</text><line style="stroke: #A80036; stroke-width: 1.5;" x1="321" x2="425" y1="195.0234" y2="195.0234"/><!--class Module--><a href="/blob/master/doc/entities/Module.md" target="_top" xlink:actuate="onRequest" xlink:show="new" xlink:title="/blob/master/doc/entities/Module.md" xlink:type="simple"><rect fill="#FEFECE" filter="url(#f18oapanz3yuw6)" height="99.2188" id="Module" style="stroke: #A80036; stroke-width: 1.5;" width="112" x="317" y="238.5"/><ellipse cx="347.75" cy="254.5" fill="#ADD1B2" rx="11" ry="11" style="stroke: #A80036; stroke-width: 1.0;"/><path d="M350.7188,260.1406 Q350.1406,260.4375 349.5,260.5781 Q348.8594,260.7344 348.1563,260.7344 Q345.6563,260.7344 344.3281,259.0938 Q343.0156,257.4375 343.0156,254.3125 Q343.0156,251.1875 344.3281,249.5313 Q345.6563,247.875 348.1563,247.875 Q348.8594,247.875 349.5,248.0313 Q350.1563,248.1875 350.7188,248.4844 L350.7188,251.2031 Q350.0938,250.625 349.5,250.3594 Q348.9063,250.0781 348.2813,250.0781 Q346.9375,250.0781 346.25,251.1563 Q345.5625,252.2188 345.5625,254.3125 Q345.5625,256.4063 346.25,257.4844 Q346.9375,258.5469 348.2813,258.5469 Q348.9063,258.5469 349.5,258.2813 Q350.0938,258 350.7188,257.4219 L350.7188,260.1406 Z "/><text fill="#000000" font-family="sans-serif" font-size="12" lengthAdjust="spacingAndGlyphs" textLength="45" x="365.25" y="258.6543">Module</text><line style="stroke: #A80036; stroke-width: 1.5;" x1="318" x2="428" y1="270.5" y2="270.5"/><path d="M327.6667,277.2214 L326.75,279.9714 L324,279.9714 L326.2917,281.8047 L325.375,284.5547 L327.6667,282.7214 L329.9583,284.5547 L329.0417,281.8047 L331.3333,279.9714 L328.5833,279.9714 L327.6667,277.2214 " fill="#008000" style="stroke: ; stroke-width: 0.0; stroke-dasharray: ;"/></a><a href="/blob/master/doc/entities/Module.md#name-string" target="_top" xlink:actuate="onRequest" xlink:show="new" xlink:title="/blob/master/doc/entities/Module.md#name-string" xlink:type="simple"><text fill="#0000FF" font-family="sans-serif" font-size="11" lengthAdjust="spacingAndGlyphs" text-decoration="underline" textLength="32" x="332.3333" y="284.7104">name</text></a><text fill="#000000" font-family="sans-serif" font-size="11" lengthAdjust="spacingAndGlyphs" textLength="4" x="364.3333" y="284.7104">:</text><text fill="#808080" font-family="sans-serif" font-size="11" lengthAdjust="spacingAndGlyphs" textLength="34" x="372.3333" y="284.7104">String</text><path d="M327.6667,290.026 L326.75,292.776 L324,292.776 L326.2917,294.6094 L325.375,297.3594 L327.6667,295.526 L329.9583,297.3594 L329.0417,294.6094 L331.3333,292.776 L328.5833,292.776 L327.6667,290.026 " fill="#008000" style="stroke: ; stroke-width: 0.0; stroke-dasharray: ;"/><a href="/blob/master/doc/entities/Module.md#group-string" target="_top" xlink:actuate="onRequest" xlink:show="new" xlink:title="/blob/master/doc/entities/Module.md#group-string" xlink:type="simple"><text fill="#0000FF" font-family="sans-serif" font-size="11" lengthAdjust="spacingAndGlyphs" text-decoration="underline" textLength="33" x="332.3333" y="297.5151">group</text></a><text fill="#000000" font-family="sans-serif" font-size="11" lengthAdjust="spacingAndGlyphs" textLength="4" x="365.3333" y="297.5151">:</text><text fill="#808080" font-family="sans-serif" font-size="11" lengthAdjust="spacingAndGlyphs" textLength="34" x="373.3333" y="297.5151">String</text><path d="M327.6667,302.8307 L326.75,305.5807 L324,305.5807 L326.2917,307.4141 L325.375,310.1641 L327.6667,308.3307 L329.9583,310.1641 L329.0417,307.4141 L331.3333,305.5807 L328.5833,305.5807 L327.6667,302.8307 " fill="#008000" style="stroke: ; stroke-width: 0.0; stroke-dasharray: ;"/><a href="/blob/master/doc/entities/Module.md#version-string" target="_top" xlink:actuate="onRequest" xlink:show="new" xlink:title="/blob/master/doc/entities/Module.md#version-string" xlink:type="simple"><text fill="#0000FF" font-family="sans-serif" font-size="11" lengthAdjust="spacingAndGlyphs" text-decoration="underline" textLength="42" x="332.3333" y="310.3198">version</text></a><text fill="#000000" font-family="sans-serif" font-size="11" lengthAdjust="spacingAndGlyphs" textLength="4" x="374.3333" y="310.3198">:</text><text fill="#808080" font-family="sans-serif" font-size="11" lengthAdjust="spacingAndGlyphs" textLength="34" x="382.3333" y="310.3198">String</text><line style="stroke: #A80036; stroke-width: 1.5;" x1="318" x2="428" y1="316.9141" y2="316.9141"/><a href="/blob/master/doc/entities/Module.md#artifact_id-string" target="_top" xlink:actuate="onRequest" xlink:show="new" xlink:title="/blob/master/doc/entities/Module.md#artifact_id-string" xlink:type="simple"><text fill="#0000FF" font-family="sans-serif" font-size="11" lengthAdjust="spacingAndGlyphs" text-decoration="underline" textLength="50" x="323" y="331.1245">artifactId</text></a><text fill="#000000" font-family="sans-serif" font-size="11" lengthAdjust="spacingAndGlyphs" textLength="12" x="373" y="331.1245">():</text><text fill="#808080" font-family="sans-serif" font-size="11" lengthAdjust="spacingAndGlyphs" textLength="34" x="389" y="331.1245">String</text><!--class Project--><a href="/blob/master/doc/entities/Project.md" target="_top" xlink:actuate="onRequest" xlink:show="new" xlink:title="/blob/master/doc/entities/Project.md" xlink:type="simple"><rect fill="#FEFECE" filter="url(#f18oapanz3yuw6)" height="137.6328" id="Project" style="stroke: #A80036; stroke-width: 1.5;" width="120" x="6" y="219"/><ellipse cx="40.8" cy="235" fill="#ADD1B2" rx="11" ry="11" style="stroke: #A80036; stroke-width: 1.0;"/><path d="M43.7688,240.6406 Q43.1906,240.9375 42.55,241.0781 Q41.9094,241.2344 41.2063,241.2344 Q38.7063,241.2344 37.3781,239.5938 Q36.0656,237.9375 36.0656,234.8125 Q36.0656,231.6875 37.3781,230.0313 Q38.7063,228.375 41.2063,228.375 Q41.9094,228.375 42.55,228.5313 Q43.2063,228.6875 43.7688,228.9844 L43.7688,231.7031 Q43.1438,231.125 42.55,230.8594 Q41.9563,230.5781 41.3313,230.5781 Q39.9875,230.5781 39.3,231.6563 Q38.6125,232.7188 38.6125,234.8125 Q38.6125,236.9063 39.3,237.9844 Q39.9875,239.0469 41.3313,239.0469 Q41.9563,239.0469 42.55,238.7813 Q43.1438,238.5 43.7688,237.9219 L43.7688,240.6406 Z "/><text fill="#000000" font-family="sans-serif" font-size="12" lengthAdjust="spacingAndGlyphs" textLength="44" x="59.2" y="239.1543">Project</text><line style="stroke: #A80036; stroke-width: 1.5;" x1="7" x2="125" y1="251" y2="251"/><path d="M18.0417,257.7214 C16.7767,257.7214 15.75,258.748 15.75,260.013 C15.75,260.1597 15.7802,260.2853 15.8078,260.4145 L13,263.2223 L13,265.0556 L15.75,265.0556 L15.75,263.2223 L17.5833,263.2223 L17.5833,262.3056 L17.6411,262.2479 C17.7694,262.2754 17.895,262.3056 18.0426,262.3056 C19.3076,262.3056 20.3342,261.2789 20.3342,260.0139 C20.3342,258.7489 19.3076,257.7223 18.0426,257.7223 M18.5009,258.6389 C19.0051,258.6389 19.4176,259.0514 19.4176,259.5556 C19.4176,260.0598 19.0051,260.4723 18.5009,260.4723 C17.9968,260.4723 17.5843,260.0598 17.5843,259.5556 C17.5843,259.0514 17.9968,258.6389 18.5009,258.6389 " fill="#FF0000" style="stroke: ; stroke-width: 0.0; stroke-dasharray: ;"/><path d="M26,257.7214 L25.0833,260.4714 L22.3333,260.4714 L24.625,262.3047 L23.7083,265.0547 L26,263.2214 L28.2917,265.0547 L27.375,262.3047 L29.6667,260.4714 L26.9167,260.4714 L26,257.7214 " fill="#008000" style="stroke: ; stroke-width: 0.0; stroke-dasharray: ;"/></a><a href="/blob/master/doc/entities/Project.md#group-string" target="_top" xlink:actuate="onRequest" xlink:show="new" xlink:title="/blob/master/doc/entities/Project.md#group-string" xlink:type="simple"><text fill="#0000FF" font-family="sans-serif" font-size="11" lengthAdjust="spacingAndGlyphs" text-decoration="underline" textLength="33" x="30.6667" y="265.2104">group</text></a><text fill="#000000" font-family="sans-serif" font-size="11" lengthAdjust="spacingAndGlyphs" textLength="4" x="63.6667" y="265.2104">:</text><text fill="#808080" font-family="sans-serif" font-size="11" lengthAdjust="spacingAndGlyphs" textLength="34" x="71.6667" y="265.2104">String</text><path d="M18.0417,270.526 C16.7767,270.526 15.75,271.5527 15.75,272.8177 C15.75,272.9644 15.7802,273.09 15.8078,273.2192 L13,276.027 L13,277.8603 L15.75,277.8603 L15.75,276.027 L17.5833,276.027 L17.5833,275.1103 L17.6411,275.0525 C17.7694,275.08 17.895,275.1103 18.0426,275.1103 C19.3076,275.1103 20.3342,274.0836 20.3342,272.8186 C20.3342,271.5536 19.3076,270.527 18.0426,270.527 M18.5009,271.4436 C19.0051,271.4436 19.4176,271.8561 19.4176,272.3603 C19.4176,272.8645 19.0051,273.277 18.5009,273.277 C17.9968,273.277 17.5843,272.8645 17.5843,272.3603 C17.5843,271.8561 17.9968,271.4436 18.5009,271.4436 " fill="#FF0000" style="stroke: ; stroke-width: 0.0; stroke-dasharray: ;"/><path d="M26,270.526 L25.0833,273.276 L22.3333,273.276 L24.625,275.1094 L23.7083,277.8594 L26,276.026 L28.2917,277.8594 L27.375,275.1094 L29.6667,273.276 L26.9167,273.276 L26,270.526 " fill="#008000" style="stroke: ; stroke-width: 0.0; stroke-dasharray: ;"/><a href="/blob/master/doc/entities/Project.md#name-string" target="_top" xlink:actuate="onRequest" xlink:show="new" xlink:title="/blob/master/doc/entities/Project.md#name-string" xlink:type="simple"><text fill="#0000FF" font-family="sans-serif" font-size="11" lengthAdjust="spacingAndGlyphs" text-decoration="underline" textLength="32" x="30.6667" y="278.0151">name</text></a><text fill="#000000" font-family="sans-serif" font-size="11" lengthAdjust="spacingAndGlyphs" textLength="4" x="62.6667" y="278.0151">:</text><text fill="#808080" font-family="sans-serif" font-size="11" lengthAdjust="spacingAndGlyphs" textLength="34" x="70.6667" y="278.0151">String</text><a href="/blob/master/doc/entities/Project.md#type-string" target="_top" xlink:actuate="onRequest" xlink:show="new" xlink:title="/blob/master/doc/entities/Project.md#type-string" xlink:type="simple"><text fill="#0000FF" font-family="sans-serif" font-size="11" lengthAdjust="spacingAndGlyphs" text-decoration="underline" textLength="24" x="12" y="290.8198">type</text></a><text fill="#000000" font-family="sans-serif" font-size="11" lengthAdjust="spacingAndGlyphs" textLength="4" x="36" y="290.8198">:</text><text fill="#808080" font-family="sans-serif" font-size="11" lengthAdjust="spacingAndGlyphs" textLength="34" x="44" y="290.8198">String</text><path d="M16.6667,296.1354 L15.75,298.8854 L13,298.8854 L15.2917,300.7188 L14.375,303.4688 L16.6667,301.6354 L18.9583,303.4688 L18.0417,300.7188 L20.3333,298.8854 L17.5833,298.8854 L16.6667,296.1354 " fill="#008000" style="stroke: ; stroke-width: 0.0; stroke-dasharray: ;"/><a href="/blob/master/doc/entities/Project.md#version-string" target="_top" xlink:actuate="onRequest" xlink:show="new" xlink:title="/blob/master/doc/entities/Project.md#version-string" xlink:type="simple"><text fill="#0000FF" font-family="sans-serif" font-size="11" lengthAdjust="spacingAndGlyphs" text-decoration="underline" textLength="42" x="21.3333" y="303.6245">version</text></a><text fill="#000000" font-family="sans-serif" font-size="11" lengthAdjust="spacingAndGlyphs" textLength="4" x="63.3333" y="303.6245">:</text><text fill="#808080" font-family="sans-serif" font-size="11" lengthAdjust="spacingAndGlyphs" textLength="34" x="71.3333" y="303.6245">String</text><a href="/blob/master/doc/entities/Project.md#namespace-string" target="_top" xlink:actuate="onRequest" xlink:show="new" xlink:title="/blob/master/doc/entities/Project.md#namespace-string" xlink:type="simple"><text fill="#0000FF" font-family="sans-serif" font-size="11" lengthAdjust="spacingAndGlyphs" text-decoration="underline" textLength="66" x="12" y="316.4292">namespace</text></a><text fill="#000000" font-family="sans-serif" font-size="11" lengthAdjust="spacingAndGlyphs" textLength="4" x="78" y="316.4292">:</text><text fill="#808080" font-family="sans-serif" font-size="11" lengthAdjust="spacingAndGlyphs" textLength="34" x="86" y="316.4292">String</text><a href="/blob/master/doc/entities/Project.md#description-string" target="_top" xlink:actuate="onRequest" xlink:show="new" xlink:title="/blob/master/doc/entities/Project.md#description-string" xlink:type="simple"><text fill="#0000FF" font-family="sans-serif" font-size="11" lengthAdjust="spacingAndGlyphs" text-decoration="underline" textLength="63" x="12" y="329.2339">description</text></a><text fill="#000000" font-family="sans-serif" font-size="11" lengthAdjust="spacingAndGlyphs" textLength="4" x="75" y="329.2339">:</text><text fill="#808080" font-family="sans-serif" font-size="11" lengthAdjust="spacingAndGlyphs" textLength="34" x="83" y="329.2339">String</text><a href="/blob/master/doc/entities/Project.md#base_dir-string" target="_top" xlink:actuate="onRequest" xlink:show="new" xlink:title="/blob/master/doc/entities/Project.md#base_dir-string" xlink:type="simple"><text fill="#0000FF" font-family="sans-serif" font-size="11" lengthAdjust="spacingAndGlyphs" text-decoration="underline" textLength="49" x="12" y="342.0386">base_dir</text></a><text fill="#000000" font-family="sans-serif" font-size="11" lengthAdjust="spacingAndGlyphs" textLength="4" x="61" y="342.0386">:</text><text fill="#808080" font-family="sans-serif" font-size="11" lengthAdjust="spacingAndGlyphs" textLength="34" x="69" y="342.0386">String</text><line style="stroke: #A80036; stroke-width: 1.5;" x1="7" x2="125" y1="348.6328" y2="348.6328"/><!--class SourceRepository--><a href="/blob/master/doc/entities/SourceRepository.md" target="_top" xlink:actuate="onRequest" xlink:show="new" xlink:title="/blob/master/doc/entities/SourceRepository.md" xlink:type="simple"><rect fill="#FEFECE" filter="url(#f18oapanz3yuw6)" height="73.6094" id="SourceRepository" style="stroke: #A80036; stroke-width: 1.5;" width="142" x="302" y="373"/><ellipse cx="317" cy="389" fill="#ADD1B2" rx="11" ry="11" style="stroke: #A80036; stroke-width: 1.0;"/><path d="M319.9688,394.6406 Q319.3906,394.9375 318.75,395.0781 Q318.1094,395.2344 317.4063,395.2344 Q314.9063,395.2344 313.5781,393.5938 Q312.2656,391.9375 312.2656,388.8125 Q312.2656,385.6875 313.5781,384.0313 Q314.9063,382.375 317.4063,382.375 Q318.1094,382.375 318.75,382.5313 Q319.4063,382.6875 319.9688,382.9844 L319.9688,385.7031 Q319.3438,385.125 318.75,384.8594 Q318.1563,384.5781 317.5313,384.5781 Q316.1875,384.5781 315.5,385.6563 Q314.8125,386.7188 314.8125,388.8125 Q314.8125,390.9063 315.5,391.9844 Q316.1875,393.0469 317.5313,393.0469 Q318.1563,393.0469 318.75,392.7813 Q319.3438,392.5 319.9688,391.9219 L319.9688,394.6406 Z "/><text fill="#000000" font-family="sans-serif" font-size="12" lengthAdjust="spacingAndGlyphs" textLength="110" x="331" y="393.1543">SourceRepository</text><line style="stroke: #A80036; stroke-width: 1.5;" x1="303" x2="443" y1="405" y2="405"/><path d="M312.6667,411.7214 L311.75,414.4714 L309,414.4714 L311.2917,416.3047 L310.375,419.0547 L312.6667,417.2214 L314.9583,419.0547 L314.0417,416.3047 L316.3333,414.4714 L313.5833,414.4714 L312.6667,411.7214 " fill="#008000" style="stroke: ; stroke-width: 0.0; stroke-dasharray: ;"/></a><a href="/blob/master/doc/entities/SourceRepository.md#url-string" target="_top" xlink:actuate="onRequest" xlink:show="new" xlink:title="/blob/master/doc/entities/SourceRepository.md#url-string" xlink:type="simple"><text fill="#0000FF" font-family="sans-serif" font-size="11" lengthAdjust="spacingAndGlyphs" text-decoration="underline" textLength="15" x="317.3333" y="419.2104">url</text></a><text fill="#000000" font-family="sans-serif" font-size="11" lengthAdjust="spacingAndGlyphs" textLength="4" x="332.3333" y="419.2104">:</text><text fill="#808080" font-family="sans-serif" font-size="11" lengthAdjust="spacingAndGlyphs" textLength="34" x="340.3333" y="419.2104">String</text><a href="/blob/master/doc/entities/SourceRepository.md#branch-string" target="_top" xlink:actuate="onRequest" xlink:show="new" xlink:title="/blob/master/doc/entities/SourceRepository.md#branch-string" xlink:type="simple"><text fill="#0000FF" font-family="sans-serif" font-size="11" lengthAdjust="spacingAndGlyphs" text-decoration="underline" textLength="39" x="308" y="432.0151">branch</text></a><text fill="#000000" font-family="sans-serif" font-size="11" lengthAdjust="spacingAndGlyphs" textLength="4" x="347" y="432.0151">:</text><text fill="#808080" font-family="sans-serif" font-size="11" lengthAdjust="spacingAndGlyphs" textLength="34" x="355" y="432.0151">String</text><line style="stroke: #A80036; stroke-width: 1.5;" x1="303" x2="443" y1="438.6094" y2="438.6094"/><!--link Document to Section--><path d="M439.14,147 C488.3,147 555.05,147 601.86,147 " fill="none" id="Document-Section" style="stroke: #A80036; stroke-width: 1.0;"/><polygon fill="#A80036" points="426.09,147,432.09,151,438.09,147,432.09,143,426.09,147" style="stroke: #A80036; stroke-width: 1.0;"/><text fill="#000000" font-family="sans-serif" font-size="13" lengthAdjust="spacingAndGlyphs" textLength="53" x="475" y="143.0669">sections</text><text fill="#000000" font-family="sans-serif" font-size="13" lengthAdjust="spacingAndGlyphs" textLength="7" x="587.0905" y="160.0098">*</text><!--link Section to Section--><path d="M630.58,90.38 C633.3,78 642.78,69 659,69 C680.63,69 690.27,85 687.9,103.69 " fill="none" id="Section-Section" style="stroke: #A80036; stroke-width: 1.0;"/><polygon fill="#A80036" points="630.1,103.69,634.315,97.8391,630.5354,91.6979,626.3203,97.5488,630.1,103.69" style="stroke: #A80036; stroke-width: 1.0;"/><text fill="#000000" font-family="sans-serif" font-size="13" lengthAdjust="spacingAndGlyphs" textLength="83" x="617.5" y="60.0669">sub_sections</text><text fill="#000000" font-family="sans-serif" font-size="13" lengthAdjust="spacingAndGlyphs" textLength="7" x="684.7894" y="92.9551">*</text><!--link Project to Project--><path d="M40.46,205.98 C44.21,192.93 52.72,184 66,184 C83.34,184 92.56,199.23 93.64,218.99 " fill="none" id="Project-Project" style="stroke: #A80036; stroke-width: 1.0;"/><polygon fill="#A80036" points="38.36,218.99,43.2653,213.7043,40.2729,207.1434,35.3676,212.4291,38.36,218.99" style="stroke: #A80036; stroke-width: 1.0;"/><text fill="#000000" font-family="sans-serif" font-size="13" lengthAdjust="spacingAndGlyphs" textLength="74" x="29" y="175.0669">subprojects</text><text fill="#000000" font-family="sans-serif" font-size="13" lengthAdjust="spacingAndGlyphs" textLength="7" x="89.2803" y="207.716">*</text><!--link Project to SourceRepository--><path d="M137.24,343.76 C143.41,347.51 149.71,350.99 156,354 C202.14,376.05 258.12,390.25 301.53,398.83 " fill="none" id="Project-SourceRepository" style="stroke: #A80036; stroke-width: 1.0;"/><polygon fill="#A80036" points="126.3,336.74,129.1928,343.3454,136.4027,343.2158,133.5099,336.6103,126.3,336.74" style="stroke: #A80036; stroke-width: 1.0;"/><text fill="#000000" font-family="sans-serif" font-size="13" lengthAdjust="spacingAndGlyphs" textLength="114" x="157" y="350.0669">source_repository</text><text fill="#000000" font-family="sans-serif" font-size="13" lengthAdjust="spacingAndGlyphs" textLength="24" x="270.096" y="410.5933">0..1</text><!--link Project to Document--><path d="M137.83,250.89 C143.95,247.83 150.07,244.83 156,242 C211.26,215.6 275.64,187.63 319.65,168.94 " fill="none" id="Project-Document" style="stroke: #A80036; stroke-width: 1.0;"/><polygon fill="#A80036" points="126.1,256.8,133.2585,257.6698,136.8146,251.3966,129.6562,250.5267,126.1,256.8" style="stroke: #A80036; stroke-width: 1.0;"/><text fill="#000000" font-family="sans-serif" font-size="13" lengthAdjust="spacingAndGlyphs" textLength="65" x="181.5" y="188.0669">document</text><text fill="#000000" font-family="sans-serif" font-size="13" lengthAdjust="spacingAndGlyphs" textLength="24" x="288.0939" y="184.4172">0..1</text><!--link Project to Module--><path d="M139.25,272.14 C144.9,271.28 150.53,270.55 156,270 C207.3,264.86 220.65,265.42 272,270 C286.67,271.31 302.41,273.68 316.96,276.28 " fill="none" id="Project-Module" style="stroke: #A80036; stroke-width: 1.0;"/><polygon fill="#A80036" points="126.11,274.33,132.6902,277.2797,137.9439,272.3401,131.3636,269.3904,126.11,274.33" style="stroke: #A80036; stroke-width: 1.0;"/><text fill="#000000" font-family="sans-serif" font-size="13" lengthAdjust="spacingAndGlyphs" textLength="47" x="190.5" y="263.0669">models</text><text fill="#000000" font-family="sans-serif" font-size="13" lengthAdjust="spacingAndGlyphs" textLength="7" x="301.9593" y="287.7741">*</text><!--link Project to Module--><path d="M139.41,294.17 C145.02,294.5 150.6,294.79 156,295 C207.52,297.02 220.48,296.8 272,295 C286.52,294.49 302.21,293.57 316.76,292.56 " fill="none" id="Project-Module-1" style="stroke: #A80036; stroke-width: 1.0;"/><polygon fill="#A80036" points="126.32,293.32,132.048,297.7006,138.2947,294.0981,132.5667,289.7175,126.32,293.32" style="stroke: #A80036; stroke-width: 1.0;"/><text fill="#000000" font-family="sans-serif" font-size="13" lengthAdjust="spacingAndGlyphs" textLength="65" x="181.5" y="291.0669">templates</text><text fill="#000000" font-family="sans-serif" font-size="13" lengthAdjust="spacingAndGlyphs" textLength="7" x="302.1058" y="306.1666">*</text><!--link Project to Module--><path d="M138.89,317.96 C144.61,319.58 150.36,320.96 156,322 C206.7,331.35 221.14,330.41 272,322 C286.84,319.55 302.43,315.18 316.77,310.37 " fill="none" id="Project-Module-2" style="stroke: #A80036; stroke-width: 1.0;"/><polygon fill="#A80036" points="126.46,314.11,131.003,319.7101,137.9196,317.6705,133.3766,312.0704,126.46,314.11" style="stroke: #A80036; stroke-width: 1.0;"/><text fill="#000000" font-family="sans-serif" font-size="13" lengthAdjust="spacingAndGlyphs" textLength="58" x="185" y="318.0669">schemas</text><text fill="#000000" font-family="sans-serif" font-size="13" lengthAdjust="spacingAndGlyphs" textLength="7" x="302.1171" y="326.2585">*</text><!--
@startuml
left to right direction


class Document [[/blob/master/doc/entities/Document.md]] {
  [[/blob/master/doc/entities/Document.md#title-string title]]: <color:GRAY>String</color>
  [[/blob/master/doc/entities/Document.md#author-string author]]: <color:GRAY>String?</color>
  [[/blob/master/doc/entities/Document.md#rights-string rights]]: <color:GRAY>String?</color>
  [[/blob/master/doc/entities/Document.md#language-string language]]: <color:GRAY>String</color>
  [[/blob/master/doc/entities/Document.md#abstract-string abstract]]: <color:GRAY>String</color>
}





package laplacian.project.document {
  class Section {
  }
}


Document *- - "*" Section : sections




class Section [[/blob/master/doc/entities/Section.md]] {
  <color:Green><&star></color>[[/blob/master/doc/entities/Section.md#title-string title]]: <color:GRAY>String</color>
  <color:Green><&star></color>[[/blob/master/doc/entities/Section.md#content-string content]]: <color:GRAY>String</color>
  [[/blob/master/doc/entities/Section.md#included_if-string included_if]]: <color:GRAY>String</color>
}






Section *- - "*" Section : sub_sections




class Module [[/blob/master/doc/entities/Module.md]] {
  <color:Green><&star></color>[[/blob/master/doc/entities/Module.md#name-string name]]: <color:GRAY>String</color>
  <color:Green><&star></color>[[/blob/master/doc/entities/Module.md#group-string group]]: <color:GRAY>String</color>
  <color:Green><&star></color>[[/blob/master/doc/entities/Module.md#version-string version]]: <color:GRAY>String</color>
  [[/blob/master/doc/entities/Module.md#artifact_id-string artifactId]](): <color:GRAY>String</color>
}




class Project [[/blob/master/doc/entities/Project.md]] {
  <color:RED><&key></color><color:Green><&star></color>[[/blob/master/doc/entities/Project.md#group-string group]]: <color:GRAY>String</color>
  <color:RED><&key></color><color:Green><&star></color>[[/blob/master/doc/entities/Project.md#name-string name]]: <color:GRAY>String</color>
  [[/blob/master/doc/entities/Project.md#type-string type]]: <color:GRAY>String</color>
  <color:Green><&star></color>[[/blob/master/doc/entities/Project.md#version-string version]]: <color:GRAY>String</color>
  [[/blob/master/doc/entities/Project.md#namespace-string namespace]]: <color:GRAY>String</color>
  [[/blob/master/doc/entities/Project.md#description-string description]]: <color:GRAY>String</color>
  [[/blob/master/doc/entities/Project.md#base_dir-string base_dir]]: <color:GRAY>String</color>
}






Project *- - "*" Project : subprojects






Project *- - "0..1" SourceRepository : source_repository






Project *- - "0..1" Document : document






Project *- - "*" Module : models






Project *- - "*" Module : templates






Project *- - "*" Module : schemas




class SourceRepository [[/blob/master/doc/entities/SourceRepository.md]] {
  <color:Green><&star></color>[[/blob/master/doc/entities/SourceRepository.md#url-string url]]: <color:GRAY>String</color>
  [[/blob/master/doc/entities/SourceRepository.md#branch-string branch]]: <color:GRAY>String</color>
}



@enduml

PlantUML version 1.2019.05(Sun Apr 21 01:45:36 JST 2019)
(GPL source distribution)
Java Runtime: OpenJDK Runtime Environment
JVM: OpenJDK 64-Bit Server VM
Java Version: 1.8.0_242-b20
Operating System: Linux
OS Version: 4.19.84-microsoft-standard
Default Encoding: UTF-8
Language: en
Country: 
--></g></svg>