<?xml version="1.0" encoding="UTF-8" standalone="no"?><svg xmlns="http://www.w3.org/2000/svg" xmlns:xlink="http://www.w3.org/1999/xlink" contentScriptType="application/ecmascript" contentStyleType="text/css" height="676px" preserveAspectRatio="none" style="width:873px;height:676px;" version="1.1" viewBox="0 0 873 676" width="873px" zoomAndPan="magnify"><defs><filter height="300%" id="frx1q054rps5" width="300%" x="-1" y="-1"><feGaussianBlur result="blurOut" stdDeviation="2.0"/><feColorMatrix in="blurOut" result="blurOut2" type="matrix" values="0 0 0 0 0 0 0 0 0 0 0 0 0 0 0 0 0 0 .4 0"/><feOffset dx="4.0" dy="4.0" in="blurOut2" result="blurOut3"/><feBlend in="SourceGraphic" in2="blurOut3" mode="normal"/></filter></defs><g><!--cluster laplacian.project.document--><polygon fill="#FFFFFF" filter="url(#frx1q054rps5)" points="622,16,841,16,848,38.2969,851,38.2969,851,182,622,182,622,16" style="stroke: #000000; stroke-width: 1.5;"/><line style="stroke: #000000; stroke-width: 1.5;" x1="622" x2="848" y1="38.2969" y2="38.2969"/><text fill="#000000" font-family="sans-serif" font-size="14" font-weight="bold" lengthAdjust="spacingAndGlyphs" textLength="213" x="626" y="30.9951">laplacian.project.document</text><!--class Section--><a href="/blob/master/doc/entities/Section.md" target="_top" xlink:actuate="onRequest" xlink:show="new" xlink:title="/blob/master/doc/entities/Section.md" xlink:type="simple"><rect fill="#FEFECE" filter="url(#frx1q054rps5)" height="86.4141" id="Section" style="stroke: #A80036; stroke-width: 1.5;" width="114" x="679" y="88"/><ellipse cx="709.75" cy="104" fill="#ADD1B2" rx="11" ry="11" style="stroke: #A80036; stroke-width: 1.0;"/><path d="M712.7188,109.6406 Q712.1406,109.9375 711.5,110.0781 Q710.8594,110.2344 710.1563,110.2344 Q707.6563,110.2344 706.3281,108.5938 Q705.0156,106.9375 705.0156,103.8125 Q705.0156,100.6875 706.3281,99.0313 Q707.6563,97.375 710.1563,97.375 Q710.8594,97.375 711.5,97.5313 Q712.1563,97.6875 712.7188,97.9844 L712.7188,100.7031 Q712.0938,100.125 711.5,99.8594 Q710.9063,99.5781 710.2813,99.5781 Q708.9375,99.5781 708.25,100.6563 Q707.5625,101.7188 707.5625,103.8125 Q707.5625,105.9063 708.25,106.9844 Q708.9375,108.0469 710.2813,108.0469 Q710.9063,108.0469 711.5,107.7813 Q712.0938,107.5 712.7188,106.9219 L712.7188,109.6406 Z "/><text fill="#000000" font-family="sans-serif" font-size="12" lengthAdjust="spacingAndGlyphs" textLength="47" x="727.25" y="108.1543">Section</text><line style="stroke: #A80036; stroke-width: 1.5;" x1="680" x2="792" y1="120" y2="120"/><path d="M689.6667,126.7214 L688.75,129.4714 L686,129.4714 L688.2917,131.3047 L687.375,134.0547 L689.6667,132.2214 L691.9583,134.0547 L691.0417,131.3047 L693.3333,129.4714 L690.5833,129.4714 L689.6667,126.7214 " fill="#008000" style="stroke: ; stroke-width: 0.0; stroke-dasharray: ;"/></a><a href="/blob/master/doc/entities/Section.md#title-string" target="_top" xlink:actuate="onRequest" xlink:show="new" xlink:title="/blob/master/doc/entities/Section.md#title-string" xlink:type="simple"><text fill="#0000FF" font-family="sans-serif" font-size="11" lengthAdjust="spacingAndGlyphs" text-decoration="underline" textLength="21" x="694.3333" y="134.2104">title</text></a><text fill="#000000" font-family="sans-serif" font-size="11" lengthAdjust="spacingAndGlyphs" textLength="4" x="715.3333" y="134.2104">:</text><text fill="#808080" font-family="sans-serif" font-size="11" lengthAdjust="spacingAndGlyphs" textLength="34" x="723.3333" y="134.2104">String</text><path d="M689.6667,139.526 L688.75,142.276 L686,142.276 L688.2917,144.1094 L687.375,146.8594 L689.6667,145.026 L691.9583,146.8594 L691.0417,144.1094 L693.3333,142.276 L690.5833,142.276 L689.6667,139.526 " fill="#008000" style="stroke: ; stroke-width: 0.0; stroke-dasharray: ;"/><a href="/blob/master/doc/entities/Section.md#content-string" target="_top" xlink:actuate="onRequest" xlink:show="new" xlink:title="/blob/master/doc/entities/Section.md#content-string" xlink:type="simple"><text fill="#0000FF" font-family="sans-serif" font-size="11" lengthAdjust="spacingAndGlyphs" text-decoration="underline" textLength="42" x="694.3333" y="147.0151">content</text></a><text fill="#000000" font-family="sans-serif" font-size="11" lengthAdjust="spacingAndGlyphs" textLength="4" x="736.3333" y="147.0151">:</text><text fill="#808080" font-family="sans-serif" font-size="11" lengthAdjust="spacingAndGlyphs" textLength="34" x="744.3333" y="147.0151">String</text><a href="/blob/master/doc/entities/Section.md#included_if-string" target="_top" xlink:actuate="onRequest" xlink:show="new" xlink:title="/blob/master/doc/entities/Section.md#included_if-string" xlink:type="simple"><text fill="#0000FF" font-family="sans-serif" font-size="11" lengthAdjust="spacingAndGlyphs" text-decoration="underline" textLength="60" x="685" y="159.8198">included_if</text></a><text fill="#000000" font-family="sans-serif" font-size="11" lengthAdjust="spacingAndGlyphs" textLength="4" x="745" y="159.8198">:</text><text fill="#808080" font-family="sans-serif" font-size="11" lengthAdjust="spacingAndGlyphs" textLength="34" x="753" y="159.8198">String</text><line style="stroke: #A80036; stroke-width: 1.5;" x1="680" x2="792" y1="166.4141" y2="166.4141"/><!--class Document--><a href="/blob/master/doc/entities/Document.md" target="_top" xlink:actuate="onRequest" xlink:show="new" xlink:title="/blob/master/doc/entities/Document.md" xlink:type="simple"><rect fill="#FEFECE" filter="url(#frx1q054rps5)" height="112.0234" id="Document" style="stroke: #A80036; stroke-width: 1.5;" width="106" x="379" y="75"/><ellipse cx="398.5" cy="91" fill="#ADD1B2" rx="11" ry="11" style="stroke: #A80036; stroke-width: 1.0;"/><path d="M401.4688,96.6406 Q400.8906,96.9375 400.25,97.0781 Q399.6094,97.2344 398.9063,97.2344 Q396.4063,97.2344 395.0781,95.5938 Q393.7656,93.9375 393.7656,90.8125 Q393.7656,87.6875 395.0781,86.0313 Q396.4063,84.375 398.9063,84.375 Q399.6094,84.375 400.25,84.5313 Q400.9063,84.6875 401.4688,84.9844 L401.4688,87.7031 Q400.8438,87.125 400.25,86.8594 Q399.6563,86.5781 399.0313,86.5781 Q397.6875,86.5781 397,87.6563 Q396.3125,88.7188 396.3125,90.8125 Q396.3125,92.9063 397,93.9844 Q397.6875,95.0469 399.0313,95.0469 Q399.6563,95.0469 400.25,94.7813 Q400.8438,94.5 401.4688,93.9219 L401.4688,96.6406 Z "/><text fill="#000000" font-family="sans-serif" font-size="12" lengthAdjust="spacingAndGlyphs" textLength="64" x="413.5" y="95.1543">Document</text><line style="stroke: #A80036; stroke-width: 1.5;" x1="380" x2="484" y1="107" y2="107"/></a><a href="/blob/master/doc/entities/Document.md#title-string" target="_top" xlink:actuate="onRequest" xlink:show="new" xlink:title="/blob/master/doc/entities/Document.md#title-string" xlink:type="simple"><text fill="#0000FF" font-family="sans-serif" font-size="11" lengthAdjust="spacingAndGlyphs" text-decoration="underline" textLength="21" x="385" y="121.2104">title</text></a><text fill="#000000" font-family="sans-serif" font-size="11" lengthAdjust="spacingAndGlyphs" textLength="4" x="406" y="121.2104">:</text><text fill="#808080" font-family="sans-serif" font-size="11" lengthAdjust="spacingAndGlyphs" textLength="34" x="414" y="121.2104">String</text><a href="/blob/master/doc/entities/Document.md#author-string" target="_top" xlink:actuate="onRequest" xlink:show="new" xlink:title="/blob/master/doc/entities/Document.md#author-string" xlink:type="simple"><text fill="#0000FF" font-family="sans-serif" font-size="11" lengthAdjust="spacingAndGlyphs" text-decoration="underline" textLength="37" x="385" y="134.0151">author</text></a><text fill="#000000" font-family="sans-serif" font-size="11" lengthAdjust="spacingAndGlyphs" textLength="4" x="422" y="134.0151">:</text><text fill="#808080" font-family="sans-serif" font-size="11" lengthAdjust="spacingAndGlyphs" textLength="40" x="430" y="134.0151">String?</text><a href="/blob/master/doc/entities/Document.md#rights-string" target="_top" xlink:actuate="onRequest" xlink:show="new" xlink:title="/blob/master/doc/entities/Document.md#rights-string" xlink:type="simple"><text fill="#0000FF" font-family="sans-serif" font-size="11" lengthAdjust="spacingAndGlyphs" text-decoration="underline" textLength="33" x="385" y="146.8198">rights</text></a><text fill="#000000" font-family="sans-serif" font-size="11" lengthAdjust="spacingAndGlyphs" textLength="4" x="418" y="146.8198">:</text><text fill="#808080" font-family="sans-serif" font-size="11" lengthAdjust="spacingAndGlyphs" textLength="40" x="426" y="146.8198">String?</text><a href="/blob/master/doc/entities/Document.md#language-string" target="_top" xlink:actuate="onRequest" xlink:show="new" xlink:title="/blob/master/doc/entities/Document.md#language-string" xlink:type="simple"><text fill="#0000FF" font-family="sans-serif" font-size="11" lengthAdjust="spacingAndGlyphs" text-decoration="underline" textLength="52" x="385" y="159.6245">language</text></a><text fill="#000000" font-family="sans-serif" font-size="11" lengthAdjust="spacingAndGlyphs" textLength="4" x="437" y="159.6245">:</text><text fill="#808080" font-family="sans-serif" font-size="11" lengthAdjust="spacingAndGlyphs" textLength="34" x="445" y="159.6245">String</text><a href="/blob/master/doc/entities/Document.md#abstract-string" target="_top" xlink:actuate="onRequest" xlink:show="new" xlink:title="/blob/master/doc/entities/Document.md#abstract-string" xlink:type="simple"><text fill="#0000FF" font-family="sans-serif" font-size="11" lengthAdjust="spacingAndGlyphs" text-decoration="underline" textLength="47" x="385" y="172.4292">abstract</text></a><text fill="#000000" font-family="sans-serif" font-size="11" lengthAdjust="spacingAndGlyphs" textLength="4" x="432" y="172.4292">:</text><text fill="#808080" font-family="sans-serif" font-size="11" lengthAdjust="spacingAndGlyphs" textLength="34" x="440" y="172.4292">String</text><line style="stroke: #A80036; stroke-width: 1.5;" x1="380" x2="484" y1="179.0234" y2="179.0234"/><!--class Module--><a href="/blob/master/doc/entities/Module.md" target="_top" xlink:actuate="onRequest" xlink:show="new" xlink:title="/blob/master/doc/entities/Module.md" xlink:type="simple"><rect fill="#FEFECE" filter="url(#frx1q054rps5)" height="99.2188" id="Module" style="stroke: #A80036; stroke-width: 1.5;" width="112" x="680" y="383.5"/><ellipse cx="710.75" cy="399.5" fill="#ADD1B2" rx="11" ry="11" style="stroke: #A80036; stroke-width: 1.0;"/><path d="M713.7188,405.1406 Q713.1406,405.4375 712.5,405.5781 Q711.8594,405.7344 711.1563,405.7344 Q708.6563,405.7344 707.3281,404.0938 Q706.0156,402.4375 706.0156,399.3125 Q706.0156,396.1875 707.3281,394.5313 Q708.6563,392.875 711.1563,392.875 Q711.8594,392.875 712.5,393.0313 Q713.1563,393.1875 713.7188,393.4844 L713.7188,396.2031 Q713.0938,395.625 712.5,395.3594 Q711.9063,395.0781 711.2813,395.0781 Q709.9375,395.0781 709.25,396.1563 Q708.5625,397.2188 708.5625,399.3125 Q708.5625,401.4063 709.25,402.4844 Q709.9375,403.5469 711.2813,403.5469 Q711.9063,403.5469 712.5,403.2813 Q713.0938,403 713.7188,402.4219 L713.7188,405.1406 Z "/><text fill="#000000" font-family="sans-serif" font-size="12" lengthAdjust="spacingAndGlyphs" textLength="45" x="728.25" y="403.6543">Module</text><line style="stroke: #A80036; stroke-width: 1.5;" x1="681" x2="791" y1="415.5" y2="415.5"/><path d="M690.6667,422.2214 L689.75,424.9714 L687,424.9714 L689.2917,426.8047 L688.375,429.5547 L690.6667,427.7214 L692.9583,429.5547 L692.0417,426.8047 L694.3333,424.9714 L691.5833,424.9714 L690.6667,422.2214 " fill="#008000" style="stroke: ; stroke-width: 0.0; stroke-dasharray: ;"/></a><a href="/blob/master/doc/entities/Module.md#name-string" target="_top" xlink:actuate="onRequest" xlink:show="new" xlink:title="/blob/master/doc/entities/Module.md#name-string" xlink:type="simple"><text fill="#0000FF" font-family="sans-serif" font-size="11" lengthAdjust="spacingAndGlyphs" text-decoration="underline" textLength="32" x="695.3333" y="429.7104">name</text></a><text fill="#000000" font-family="sans-serif" font-size="11" lengthAdjust="spacingAndGlyphs" textLength="4" x="727.3333" y="429.7104">:</text><text fill="#808080" font-family="sans-serif" font-size="11" lengthAdjust="spacingAndGlyphs" textLength="34" x="735.3333" y="429.7104">String</text><path d="M690.6667,435.026 L689.75,437.776 L687,437.776 L689.2917,439.6094 L688.375,442.3594 L690.6667,440.526 L692.9583,442.3594 L692.0417,439.6094 L694.3333,437.776 L691.5833,437.776 L690.6667,435.026 " fill="#008000" style="stroke: ; stroke-width: 0.0; stroke-dasharray: ;"/><a href="/blob/master/doc/entities/Module.md#group-string" target="_top" xlink:actuate="onRequest" xlink:show="new" xlink:title="/blob/master/doc/entities/Module.md#group-string" xlink:type="simple"><text fill="#0000FF" font-family="sans-serif" font-size="11" lengthAdjust="spacingAndGlyphs" text-decoration="underline" textLength="33" x="695.3333" y="442.5151">group</text></a><text fill="#000000" font-family="sans-serif" font-size="11" lengthAdjust="spacingAndGlyphs" textLength="4" x="728.3333" y="442.5151">:</text><text fill="#808080" font-family="sans-serif" font-size="11" lengthAdjust="spacingAndGlyphs" textLength="34" x="736.3333" y="442.5151">String</text><path d="M690.6667,447.8307 L689.75,450.5807 L687,450.5807 L689.2917,452.4141 L688.375,455.1641 L690.6667,453.3307 L692.9583,455.1641 L692.0417,452.4141 L694.3333,450.5807 L691.5833,450.5807 L690.6667,447.8307 " fill="#008000" style="stroke: ; stroke-width: 0.0; stroke-dasharray: ;"/><a href="/blob/master/doc/entities/Module.md#version-string" target="_top" xlink:actuate="onRequest" xlink:show="new" xlink:title="/blob/master/doc/entities/Module.md#version-string" xlink:type="simple"><text fill="#0000FF" font-family="sans-serif" font-size="11" lengthAdjust="spacingAndGlyphs" text-decoration="underline" textLength="42" x="695.3333" y="455.3198">version</text></a><text fill="#000000" font-family="sans-serif" font-size="11" lengthAdjust="spacingAndGlyphs" textLength="4" x="737.3333" y="455.3198">:</text><text fill="#808080" font-family="sans-serif" font-size="11" lengthAdjust="spacingAndGlyphs" textLength="34" x="745.3333" y="455.3198">String</text><line style="stroke: #A80036; stroke-width: 1.5;" x1="681" x2="791" y1="461.9141" y2="461.9141"/><a href="/blob/master/doc/entities/Module.md#artifact_id-string" target="_top" xlink:actuate="onRequest" xlink:show="new" xlink:title="/blob/master/doc/entities/Module.md#artifact_id-string" xlink:type="simple"><text fill="#0000FF" font-family="sans-serif" font-size="11" lengthAdjust="spacingAndGlyphs" text-decoration="underline" textLength="50" x="686" y="476.1245">artifactId</text></a><text fill="#000000" font-family="sans-serif" font-size="11" lengthAdjust="spacingAndGlyphs" textLength="12" x="736" y="476.1245">():</text><text fill="#808080" font-family="sans-serif" font-size="11" lengthAdjust="spacingAndGlyphs" textLength="34" x="752" y="476.1245">String</text><!--class Project--><a href="/blob/master/doc/entities/Project.md" target="_top" xlink:actuate="onRequest" xlink:show="new" xlink:title="/blob/master/doc/entities/Project.md" xlink:type="simple"><rect fill="#FEFECE" filter="url(#frx1q054rps5)" height="201.6563" id="Project" style="stroke: #A80036; stroke-width: 1.5;" width="179" x="6" y="269"/><ellipse cx="69.25" cy="285" fill="#ADD1B2" rx="11" ry="11" style="stroke: #A80036; stroke-width: 1.0;"/><path d="M72.2188,290.6406 Q71.6406,290.9375 71,291.0781 Q70.3594,291.2344 69.6563,291.2344 Q67.1563,291.2344 65.8281,289.5938 Q64.5156,287.9375 64.5156,284.8125 Q64.5156,281.6875 65.8281,280.0313 Q67.1563,278.375 69.6563,278.375 Q70.3594,278.375 71,278.5313 Q71.6563,278.6875 72.2188,278.9844 L72.2188,281.7031 Q71.5938,281.125 71,280.8594 Q70.4063,280.5781 69.7813,280.5781 Q68.4375,280.5781 67.75,281.6563 Q67.0625,282.7188 67.0625,284.8125 Q67.0625,286.9063 67.75,287.9844 Q68.4375,289.0469 69.7813,289.0469 Q70.4063,289.0469 71,288.7813 Q71.5938,288.5 72.2188,287.9219 L72.2188,290.6406 Z "/><text fill="#000000" font-family="sans-serif" font-size="12" lengthAdjust="spacingAndGlyphs" textLength="44" x="89.75" y="289.1543">Project</text><line style="stroke: #A80036; stroke-width: 1.5;" x1="7" x2="184" y1="301" y2="301"/><path d="M18.0417,307.7214 C16.7767,307.7214 15.75,308.748 15.75,310.013 C15.75,310.1597 15.7802,310.2853 15.8078,310.4145 L13,313.2223 L13,315.0556 L15.75,315.0556 L15.75,313.2223 L17.5833,313.2223 L17.5833,312.3056 L17.6411,312.2479 C17.7694,312.2754 17.895,312.3056 18.0426,312.3056 C19.3076,312.3056 20.3342,311.2789 20.3342,310.0139 C20.3342,308.7489 19.3076,307.7223 18.0426,307.7223 M18.5009,308.6389 C19.0051,308.6389 19.4176,309.0514 19.4176,309.5556 C19.4176,310.0598 19.0051,310.4723 18.5009,310.4723 C17.9968,310.4723 17.5843,310.0598 17.5843,309.5556 C17.5843,309.0514 17.9968,308.6389 18.5009,308.6389 " fill="#FF0000" style="stroke: ; stroke-width: 0.0; stroke-dasharray: ;"/><path d="M26,307.7214 L25.0833,310.4714 L22.3333,310.4714 L24.625,312.3047 L23.7083,315.0547 L26,313.2214 L28.2917,315.0547 L27.375,312.3047 L29.6667,310.4714 L26.9167,310.4714 L26,307.7214 " fill="#008000" style="stroke: ; stroke-width: 0.0; stroke-dasharray: ;"/></a><a href="/blob/master/doc/entities/Project.md#group-string" target="_top" xlink:actuate="onRequest" xlink:show="new" xlink:title="/blob/master/doc/entities/Project.md#group-string" xlink:type="simple"><text fill="#0000FF" font-family="sans-serif" font-size="11" lengthAdjust="spacingAndGlyphs" text-decoration="underline" textLength="33" x="30.6667" y="315.2104">group</text></a><text fill="#000000" font-family="sans-serif" font-size="11" lengthAdjust="spacingAndGlyphs" textLength="4" x="63.6667" y="315.2104">:</text><text fill="#808080" font-family="sans-serif" font-size="11" lengthAdjust="spacingAndGlyphs" textLength="34" x="71.6667" y="315.2104">String</text><path d="M18.0417,320.526 C16.7767,320.526 15.75,321.5527 15.75,322.8177 C15.75,322.9644 15.7802,323.09 15.8078,323.2192 L13,326.027 L13,327.8603 L15.75,327.8603 L15.75,326.027 L17.5833,326.027 L17.5833,325.1103 L17.6411,325.0525 C17.7694,325.08 17.895,325.1103 18.0426,325.1103 C19.3076,325.1103 20.3342,324.0836 20.3342,322.8186 C20.3342,321.5536 19.3076,320.527 18.0426,320.527 M18.5009,321.4436 C19.0051,321.4436 19.4176,321.8561 19.4176,322.3603 C19.4176,322.8645 19.0051,323.277 18.5009,323.277 C17.9968,323.277 17.5843,322.8645 17.5843,322.3603 C17.5843,321.8561 17.9968,321.4436 18.5009,321.4436 " fill="#FF0000" style="stroke: ; stroke-width: 0.0; stroke-dasharray: ;"/><path d="M26,320.526 L25.0833,323.276 L22.3333,323.276 L24.625,325.1094 L23.7083,327.8594 L26,326.026 L28.2917,327.8594 L27.375,325.1094 L29.6667,323.276 L26.9167,323.276 L26,320.526 " fill="#008000" style="stroke: ; stroke-width: 0.0; stroke-dasharray: ;"/><a href="/blob/master/doc/entities/Project.md#name-string" target="_top" xlink:actuate="onRequest" xlink:show="new" xlink:title="/blob/master/doc/entities/Project.md#name-string" xlink:type="simple"><text fill="#0000FF" font-family="sans-serif" font-size="11" lengthAdjust="spacingAndGlyphs" text-decoration="underline" textLength="32" x="30.6667" y="328.0151">name</text></a><text fill="#000000" font-family="sans-serif" font-size="11" lengthAdjust="spacingAndGlyphs" textLength="4" x="62.6667" y="328.0151">:</text><text fill="#808080" font-family="sans-serif" font-size="11" lengthAdjust="spacingAndGlyphs" textLength="34" x="70.6667" y="328.0151">String</text><a href="/blob/master/doc/entities/Project.md#type-string" target="_top" xlink:actuate="onRequest" xlink:show="new" xlink:title="/blob/master/doc/entities/Project.md#type-string" xlink:type="simple"><text fill="#0000FF" font-family="sans-serif" font-size="11" lengthAdjust="spacingAndGlyphs" text-decoration="underline" textLength="24" x="12" y="340.8198">type</text></a><text fill="#000000" font-family="sans-serif" font-size="11" lengthAdjust="spacingAndGlyphs" textLength="4" x="36" y="340.8198">:</text><text fill="#808080" font-family="sans-serif" font-size="11" lengthAdjust="spacingAndGlyphs" textLength="34" x="44" y="340.8198">String</text><path d="M16.6667,346.1354 L15.75,348.8854 L13,348.8854 L15.2917,350.7188 L14.375,353.4688 L16.6667,351.6354 L18.9583,353.4688 L18.0417,350.7188 L20.3333,348.8854 L17.5833,348.8854 L16.6667,346.1354 " fill="#008000" style="stroke: ; stroke-width: 0.0; stroke-dasharray: ;"/><a href="/blob/master/doc/entities/Project.md#version-string" target="_top" xlink:actuate="onRequest" xlink:show="new" xlink:title="/blob/master/doc/entities/Project.md#version-string" xlink:type="simple"><text fill="#0000FF" font-family="sans-serif" font-size="11" lengthAdjust="spacingAndGlyphs" text-decoration="underline" textLength="42" x="21.3333" y="353.6245">version</text></a><text fill="#000000" font-family="sans-serif" font-size="11" lengthAdjust="spacingAndGlyphs" textLength="4" x="63.3333" y="353.6245">:</text><text fill="#808080" font-family="sans-serif" font-size="11" lengthAdjust="spacingAndGlyphs" textLength="34" x="71.3333" y="353.6245">String</text><a href="/blob/master/doc/entities/Project.md#namespace-string" target="_top" xlink:actuate="onRequest" xlink:show="new" xlink:title="/blob/master/doc/entities/Project.md#namespace-string" xlink:type="simple"><text fill="#0000FF" font-family="sans-serif" font-size="11" lengthAdjust="spacingAndGlyphs" text-decoration="underline" textLength="66" x="12" y="366.4292">namespace</text></a><text fill="#000000" font-family="sans-serif" font-size="11" lengthAdjust="spacingAndGlyphs" textLength="4" x="78" y="366.4292">:</text><text fill="#808080" font-family="sans-serif" font-size="11" lengthAdjust="spacingAndGlyphs" textLength="34" x="86" y="366.4292">String</text><a href="/blob/master/doc/entities/Project.md#description-string" target="_top" xlink:actuate="onRequest" xlink:show="new" xlink:title="/blob/master/doc/entities/Project.md#description-string" xlink:type="simple"><text fill="#0000FF" font-family="sans-serif" font-size="11" lengthAdjust="spacingAndGlyphs" text-decoration="underline" textLength="63" x="12" y="379.2339">description</text></a><text fill="#000000" font-family="sans-serif" font-size="11" lengthAdjust="spacingAndGlyphs" textLength="4" x="75" y="379.2339">:</text><text fill="#808080" font-family="sans-serif" font-size="11" lengthAdjust="spacingAndGlyphs" textLength="34" x="83" y="379.2339">String</text><a href="/blob/master/doc/entities/Project.md#model_files-listString" target="_top" xlink:actuate="onRequest" xlink:show="new" xlink:title="/blob/master/doc/entities/Project.md#model_files-listString" xlink:type="simple"><text fill="#0000FF" font-family="sans-serif" font-size="11" lengthAdjust="spacingAndGlyphs" text-decoration="underline" textLength="65" x="12" y="392.0386">model_files</text></a><text fill="#000000" font-family="sans-serif" font-size="11" lengthAdjust="spacingAndGlyphs" textLength="4" x="77" y="392.0386">:</text><text fill="#808080" font-family="sans-serif" font-size="11" lengthAdjust="spacingAndGlyphs" textLength="72" x="85" y="392.0386">List&lt;String&gt;</text><a href="/blob/master/doc/entities/Project.md#template_files-listString" target="_top" xlink:actuate="onRequest" xlink:show="new" xlink:title="/blob/master/doc/entities/Project.md#template_files-listString" xlink:type="simple"><text fill="#0000FF" font-family="sans-serif" font-size="11" lengthAdjust="spacingAndGlyphs" text-decoration="underline" textLength="80" x="12" y="404.8433">template_files</text></a><text fill="#000000" font-family="sans-serif" font-size="11" lengthAdjust="spacingAndGlyphs" textLength="4" x="92" y="404.8433">:</text><text fill="#808080" font-family="sans-serif" font-size="11" lengthAdjust="spacingAndGlyphs" textLength="72" x="100" y="404.8433">List&lt;String&gt;</text><a href="/blob/master/doc/entities/Project.md#base_dir-string" target="_top" xlink:actuate="onRequest" xlink:show="new" xlink:title="/blob/master/doc/entities/Project.md#base_dir-string" xlink:type="simple"><text fill="#0000FF" font-family="sans-serif" font-size="11" lengthAdjust="spacingAndGlyphs" text-decoration="underline" textLength="49" x="12" y="417.6479">base_dir</text></a><text fill="#000000" font-family="sans-serif" font-size="11" lengthAdjust="spacingAndGlyphs" textLength="4" x="61" y="417.6479">:</text><text fill="#808080" font-family="sans-serif" font-size="11" lengthAdjust="spacingAndGlyphs" textLength="34" x="69" y="417.6479">String</text><line style="stroke: #A80036; stroke-width: 1.5;" x1="7" x2="184" y1="424.2422" y2="424.2422"/><a href="/blob/master/doc/entities/Project.md#all_models-listModule" target="_top" xlink:actuate="onRequest" xlink:show="new" xlink:title="/blob/master/doc/entities/Project.md#all_models-listModule" xlink:type="simple"><text fill="#0000FF" font-family="sans-serif" font-size="11" lengthAdjust="spacingAndGlyphs" text-decoration="underline" textLength="53" x="12" y="438.4526">allModels</text></a><text fill="#000000" font-family="sans-serif" font-size="11" lengthAdjust="spacingAndGlyphs" textLength="12" x="65" y="438.4526">():</text><text fill="#808080" font-family="sans-serif" font-size="11" lengthAdjust="spacingAndGlyphs" textLength="78" x="81" y="438.4526">List&lt;Module&gt;</text><a href="/blob/master/doc/entities/Project.md#all_templates-listModule" target="_top" xlink:actuate="onRequest" xlink:show="new" xlink:title="/blob/master/doc/entities/Project.md#all_templates-listModule" xlink:type="simple"><text fill="#0000FF" font-family="sans-serif" font-size="11" lengthAdjust="spacingAndGlyphs" text-decoration="underline" textLength="73" x="12" y="451.2573">allTemplates</text></a><text fill="#000000" font-family="sans-serif" font-size="11" lengthAdjust="spacingAndGlyphs" textLength="12" x="85" y="451.2573">():</text><text fill="#808080" font-family="sans-serif" font-size="11" lengthAdjust="spacingAndGlyphs" textLength="78" x="101" y="451.2573">List&lt;Module&gt;</text><a href="/blob/master/doc/entities/Project.md#all_plugins-listModule" target="_top" xlink:actuate="onRequest" xlink:show="new" xlink:title="/blob/master/doc/entities/Project.md#all_plugins-listModule" xlink:type="simple"><text fill="#0000FF" font-family="sans-serif" font-size="11" lengthAdjust="spacingAndGlyphs" text-decoration="underline" textLength="54" x="12" y="464.062">allPlugins</text></a><text fill="#000000" font-family="sans-serif" font-size="11" lengthAdjust="spacingAndGlyphs" textLength="12" x="66" y="464.062">():</text><text fill="#808080" font-family="sans-serif" font-size="11" lengthAdjust="spacingAndGlyphs" textLength="78" x="82" y="464.062">List&lt;Module&gt;</text><!--class ProjectType--><a href="/blob/master/doc/entities/ProjectType.md" target="_top" xlink:actuate="onRequest" xlink:show="new" xlink:title="/blob/master/doc/entities/ProjectType.md" xlink:type="simple"><rect fill="#FEFECE" filter="url(#frx1q054rps5)" height="73.6094" id="ProjectType" style="stroke: #A80036; stroke-width: 1.5;" width="117" x="373.5" y="483"/><ellipse cx="393.9" cy="499" fill="#ADD1B2" rx="11" ry="11" style="stroke: #A80036; stroke-width: 1.0;"/><path d="M396.8688,504.6406 Q396.2906,504.9375 395.65,505.0781 Q395.0094,505.2344 394.3063,505.2344 Q391.8063,505.2344 390.4781,503.5938 Q389.1656,501.9375 389.1656,498.8125 Q389.1656,495.6875 390.4781,494.0313 Q391.8063,492.375 394.3063,492.375 Q395.0094,492.375 395.65,492.5313 Q396.3063,492.6875 396.8688,492.9844 L396.8688,495.7031 Q396.2438,495.125 395.65,494.8594 Q395.0563,494.5781 394.4313,494.5781 Q393.0875,494.5781 392.4,495.6563 Q391.7125,496.7188 391.7125,498.8125 Q391.7125,500.9063 392.4,501.9844 Q393.0875,503.0469 394.4313,503.0469 Q395.0563,503.0469 395.65,502.7813 Q396.2438,502.5 396.8688,501.9219 L396.8688,504.6406 Z "/><text fill="#000000" font-family="sans-serif" font-size="12" lengthAdjust="spacingAndGlyphs" textLength="73" x="409.1" y="503.1543">ProjectType</text><line style="stroke: #A80036; stroke-width: 1.5;" x1="374.5" x2="489.5" y1="515" y2="515"/><path d="M384.1667,521.7214 L383.25,524.4714 L380.5,524.4714 L382.7917,526.3047 L381.875,529.0547 L384.1667,527.2214 L386.4583,529.0547 L385.5417,526.3047 L387.8333,524.4714 L385.0833,524.4714 L384.1667,521.7214 " fill="#008000" style="stroke: ; stroke-width: 0.0; stroke-dasharray: ;"/></a><a href="/blob/master/doc/entities/ProjectType.md#name-string" target="_top" xlink:actuate="onRequest" xlink:show="new" xlink:title="/blob/master/doc/entities/ProjectType.md#name-string" xlink:type="simple"><text fill="#0000FF" font-family="sans-serif" font-size="11" lengthAdjust="spacingAndGlyphs" text-decoration="underline" textLength="32" x="388.8333" y="529.2104">name</text></a><text fill="#000000" font-family="sans-serif" font-size="11" lengthAdjust="spacingAndGlyphs" textLength="4" x="420.8333" y="529.2104">:</text><text fill="#808080" font-family="sans-serif" font-size="11" lengthAdjust="spacingAndGlyphs" textLength="34" x="428.8333" y="529.2104">String</text><a href="/blob/master/doc/entities/ProjectType.md#description-string" target="_top" xlink:actuate="onRequest" xlink:show="new" xlink:title="/blob/master/doc/entities/ProjectType.md#description-string" xlink:type="simple"><text fill="#0000FF" font-family="sans-serif" font-size="11" lengthAdjust="spacingAndGlyphs" text-decoration="underline" textLength="63" x="379.5" y="542.0151">description</text></a><text fill="#000000" font-family="sans-serif" font-size="11" lengthAdjust="spacingAndGlyphs" textLength="4" x="442.5" y="542.0151">:</text><text fill="#808080" font-family="sans-serif" font-size="11" lengthAdjust="spacingAndGlyphs" textLength="34" x="450.5" y="542.0151">String</text><line style="stroke: #A80036; stroke-width: 1.5;" x1="374.5" x2="489.5" y1="548.6094" y2="548.6094"/><!--class SourceRepository--><a href="/blob/master/doc/entities/SourceRepository.md" target="_top" xlink:actuate="onRequest" xlink:show="new" xlink:title="/blob/master/doc/entities/SourceRepository.md" xlink:type="simple"><rect fill="#FEFECE" filter="url(#frx1q054rps5)" height="73.6094" id="SourceRepository" style="stroke: #A80036; stroke-width: 1.5;" width="142" x="361" y="592"/><ellipse cx="376" cy="608" fill="#ADD1B2" rx="11" ry="11" style="stroke: #A80036; stroke-width: 1.0;"/><path d="M378.9688,613.6406 Q378.3906,613.9375 377.75,614.0781 Q377.1094,614.2344 376.4063,614.2344 Q373.9063,614.2344 372.5781,612.5938 Q371.2656,610.9375 371.2656,607.8125 Q371.2656,604.6875 372.5781,603.0313 Q373.9063,601.375 376.4063,601.375 Q377.1094,601.375 377.75,601.5313 Q378.4063,601.6875 378.9688,601.9844 L378.9688,604.7031 Q378.3438,604.125 377.75,603.8594 Q377.1563,603.5781 376.5313,603.5781 Q375.1875,603.5781 374.5,604.6563 Q373.8125,605.7188 373.8125,607.8125 Q373.8125,609.9063 374.5,610.9844 Q375.1875,612.0469 376.5313,612.0469 Q377.1563,612.0469 377.75,611.7813 Q378.3438,611.5 378.9688,610.9219 L378.9688,613.6406 Z "/><text fill="#000000" font-family="sans-serif" font-size="12" lengthAdjust="spacingAndGlyphs" textLength="110" x="390" y="612.1543">SourceRepository</text><line style="stroke: #A80036; stroke-width: 1.5;" x1="362" x2="502" y1="624" y2="624"/><path d="M371.6667,630.7214 L370.75,633.4714 L368,633.4714 L370.2917,635.3047 L369.375,638.0547 L371.6667,636.2214 L373.9583,638.0547 L373.0417,635.3047 L375.3333,633.4714 L372.5833,633.4714 L371.6667,630.7214 " fill="#008000" style="stroke: ; stroke-width: 0.0; stroke-dasharray: ;"/></a><a href="/blob/master/doc/entities/SourceRepository.md#url-string" target="_top" xlink:actuate="onRequest" xlink:show="new" xlink:title="/blob/master/doc/entities/SourceRepository.md#url-string" xlink:type="simple"><text fill="#0000FF" font-family="sans-serif" font-size="11" lengthAdjust="spacingAndGlyphs" text-decoration="underline" textLength="15" x="376.3333" y="638.2104">url</text></a><text fill="#000000" font-family="sans-serif" font-size="11" lengthAdjust="spacingAndGlyphs" textLength="4" x="391.3333" y="638.2104">:</text><text fill="#808080" font-family="sans-serif" font-size="11" lengthAdjust="spacingAndGlyphs" textLength="34" x="399.3333" y="638.2104">String</text><a href="/blob/master/doc/entities/SourceRepository.md#branch-string" target="_top" xlink:actuate="onRequest" xlink:show="new" xlink:title="/blob/master/doc/entities/SourceRepository.md#branch-string" xlink:type="simple"><text fill="#0000FF" font-family="sans-serif" font-size="11" lengthAdjust="spacingAndGlyphs" text-decoration="underline" textLength="39" x="367" y="651.0151">branch</text></a><text fill="#000000" font-family="sans-serif" font-size="11" lengthAdjust="spacingAndGlyphs" textLength="4" x="406" y="651.0151">:</text><text fill="#808080" font-family="sans-serif" font-size="11" lengthAdjust="spacingAndGlyphs" textLength="34" x="414" y="651.0151">String</text><line style="stroke: #A80036; stroke-width: 1.5;" x1="362" x2="502" y1="657.6094" y2="657.6094"/><!--link Document to Section--><path d="M498.5254,131 C552.4537,131 627.6504,131 678.8823,131 " fill="none" id="Document-Section" style="stroke: #A80036; stroke-width: 1.0;"/><polygon fill="#A80036" points="485.3006,131,491.3006,135,497.3006,131,491.3006,127,485.3006,131" style="stroke: #A80036; stroke-width: 1.0;"/><text fill="#000000" font-family="sans-serif" font-size="13" lengthAdjust="spacingAndGlyphs" textLength="53" x="540" y="127.0669">sections</text><text fill="#000000" font-family="sans-serif" font-size="13" lengthAdjust="spacingAndGlyphs" textLength="7" x="664.1157" y="144.0098">*</text><!--link Section to Section--><path d="M705.3887,74.3828 C708.3236,61.9996 718.5273,53 736,53 C759.2969,53 769.6713,68.9993 767.1232,87.6859 " fill="none" id="Section-Section" style="stroke: #A80036; stroke-width: 1.0;"/><polygon fill="#A80036" points="704.8768,87.6859,709.1046,81.8442,705.3383,75.6948,701.1105,81.5365,704.8768,87.6859" style="stroke: #A80036; stroke-width: 1.0;"/><text fill="#000000" font-family="sans-serif" font-size="13" lengthAdjust="spacingAndGlyphs" textLength="83" x="694.5" y="44.0669">sub_sections</text><text fill="#000000" font-family="sans-serif" font-size="13" lengthAdjust="spacingAndGlyphs" textLength="7" x="764.353" y="76.9504">*</text><!--link Project to ProjectType--><path d="M185.1792,439.2879 C194.9711,445.3999 205.0139,451.1107 215,456 C265.9748,480.9578 328.5416,498.1314 373.3732,508.3568 " fill="none" id="Project-ProjectType" style="stroke: #A80036; stroke-width: 1.0;"/><text fill="#000000" font-family="sans-serif" font-size="13" lengthAdjust="spacingAndGlyphs" textLength="79" x="233.5" y="452.0669">project_type</text><text fill="#000000" font-family="sans-serif" font-size="13" lengthAdjust="spacingAndGlyphs" textLength="8" x="357.3491" y="519.9264">1</text><!--link Project to Project--><path d="M67.2814,256.0458 C72.468,242.6949 81.8742,234 95.5,234 C113.1172,234 123.6806,248.535 127.1903,268.8755 " fill="none" id="Project-Project" style="stroke: #A80036; stroke-width: 1.0;"/><polygon fill="#A80036" points="63.8097,268.8755,69.2381,264.1286,66.9442,257.2921,61.5158,262.039,63.8097,268.8755" style="stroke: #A80036; stroke-width: 1.0;"/><text fill="#000000" font-family="sans-serif" font-size="13" lengthAdjust="spacingAndGlyphs" textLength="74" x="58.5" y="225.0669">subprojects</text><text fill="#000000" font-family="sans-serif" font-size="13" lengthAdjust="spacingAndGlyphs" textLength="7" x="122.2605" y="257.9828">*</text><!--link Project to SourceRepository--><path d="M173.2889,481.3181 C186.2343,495.9943 200.2766,510.0616 215,522 C258.7198,557.45 316.1256,585.1049 360.9112,603.4123 " fill="none" id="Project-SourceRepository" style="stroke: #A80036; stroke-width: 1.0;"/><polygon fill="#A80036" points="164.507,471.0791,165.377,478.2375,172.3194,480.1877,171.4494,473.0293,164.507,471.0791" style="stroke: #A80036; stroke-width: 1.0;"/><text fill="#000000" font-family="sans-serif" font-size="13" lengthAdjust="spacingAndGlyphs" textLength="114" x="216" y="518.0669">source_repository</text><text fill="#000000" font-family="sans-serif" font-size="13" lengthAdjust="spacingAndGlyphs" textLength="24" x="328.9918" y="613.7802">0..1</text><!--link Project to Document--><path d="M167.6776,258.459 C181.9205,241.7171 197.8311,225.8029 215,213 C264.3966,176.1647 332.2597,154.0693 378.872,142.2523 " fill="none" id="Project-Document" style="stroke: #A80036; stroke-width: 1.0;"/><polygon fill="#A80036" points="159.0286,268.9697,165.9297,266.8782,166.6534,259.7035,159.7523,261.795,159.0286,268.9697" style="stroke: #A80036; stroke-width: 1.0;"/><text fill="#000000" font-family="sans-serif" font-size="13" lengthAdjust="spacingAndGlyphs" textLength="65" x="240.5" y="154.0669">document</text><text fill="#000000" font-family="sans-serif" font-size="13" lengthAdjust="spacingAndGlyphs" textLength="24" x="346.9345" y="156.6113">0..1</text><!--link Project to Module--><path d="M197.7303,305.6799 C203.4563,303.4864 209.2314,301.5652 215,300 C380.1404,255.1932 441.5513,235.4011 600,300 C641.2844,316.8315 676.8471,352.8972 701.2419,383.2303 " fill="none" id="Project-Module" style="stroke: #A80036; stroke-width: 1.0;"/><polygon fill="#A80036" points="185.2953,310.884,192.3744,312.2576,196.365,306.2514,189.286,304.8778,185.2953,310.884" style="stroke: #A80036; stroke-width: 1.0;"/><text fill="#000000" font-family="sans-serif" font-size="13" lengthAdjust="spacingAndGlyphs" textLength="47" x="408.5" y="254.0669">models</text><text fill="#000000" font-family="sans-serif" font-size="13" lengthAdjust="spacingAndGlyphs" textLength="7" x="689.101" y="372.5958">*</text><!--link Project to Module--><path d="M198.3367,364.7488 C300.9489,361.5441 462.6754,362.0225 600,387 C626.8525,391.8841 655.6156,401.006 679.742,409.8469 " fill="none" id="Project-Module-1" style="stroke: #A80036; stroke-width: 1.0;"/><polygon fill="#A80036" points="185.1911,365.1897,191.3218,368.9863,197.1844,364.7874,191.0536,360.9908,185.1911,365.1897" style="stroke: #A80036; stroke-width: 1.0;"/><text fill="#000000" font-family="sans-serif" font-size="13" lengthAdjust="spacingAndGlyphs" textLength="65" x="399.5" y="360.0669">templates</text><text fill="#000000" font-family="sans-serif" font-size="13" lengthAdjust="spacingAndGlyphs" textLength="7" x="665.0855" y="419.9027">*</text><!--link Project to Module--><path d="M198.1223,381.113 C247.372,386.372 307.2299,392.6556 361,398 C474.0531,409.2368 606.3886,421.3432 679.7545,427.9626 " fill="none" id="Project-Module-2" style="stroke: #A80036; stroke-width: 1.0;"/><polygon fill="#A80036" points="185.1852,379.7291,190.7257,384.3446,197.1171,381.0056,191.5767,376.39,185.1852,379.7291" style="stroke: #A80036; stroke-width: 1.0;"/><text fill="#000000" font-family="sans-serif" font-size="13" lengthAdjust="spacingAndGlyphs" textLength="45" x="409.5" y="394.0669">plugins</text><text fill="#000000" font-family="sans-serif" font-size="13" lengthAdjust="spacingAndGlyphs" textLength="7" x="665.0996" y="440.3395">*</text><!--link ProjectType to Module--><path d="M503.1851,499.6279 C557.0762,484.2052 630.0776,463.3133 679.8764,449.0617 " fill="none" id="ProjectType-Module" style="stroke: #A80036; stroke-width: 1.0;"/><polygon fill="#A80036" points="490.6143,503.2255,497.4833,505.4202,502.1511,499.9238,495.2821,497.729,490.6143,503.2255" style="stroke: #A80036; stroke-width: 1.0;"/><text fill="#000000" font-family="sans-serif" font-size="13" lengthAdjust="spacingAndGlyphs" textLength="47" x="543" y="469.0669">models</text><text fill="#000000" font-family="sans-serif" font-size="13" lengthAdjust="spacingAndGlyphs" textLength="7" x="664.8645" y="464.2889">*</text><!--link ProjectType to Module--><path d="M503.7526,525.2235 C534.0111,525.4432 569.272,523.0504 600,514 C628.0755,505.7308 656.3286,490.3233 679.7527,475.1478 " fill="none" id="ProjectType-Module-1" style="stroke: #A80036; stroke-width: 1.0;"/><polygon fill="#A80036" points="490.679,524.9674,496.5995,529.0841,502.6767,525.2024,496.7562,521.0857,490.679,524.9674" style="stroke: #A80036; stroke-width: 1.0;"/><text fill="#000000" font-family="sans-serif" font-size="13" lengthAdjust="spacingAndGlyphs" textLength="65" x="534" y="510.0669">templates</text><text fill="#000000" font-family="sans-serif" font-size="13" lengthAdjust="spacingAndGlyphs" textLength="7" x="665.0976" y="493.5703">*</text><!--link ProjectType to Module--><path d="M503.2246,548.3746 C533.6952,556.44 569.2599,560.3291 600,549 C636.3983,535.5856 669.6763,507.6146 694.2031,482.5008 " fill="none" id="ProjectType-Module-2" style="stroke: #A80036; stroke-width: 1.0;"/><polygon fill="#A80036" points="490.5067,544.6945,495.1584,550.2047,502.0338,548.0301,497.3821,542.5199,490.5067,544.6945" style="stroke: #A80036; stroke-width: 1.0;"/><text fill="#000000" font-family="sans-serif" font-size="13" lengthAdjust="spacingAndGlyphs" textLength="45" x="544" y="545.0669">plugins</text><text fill="#000000" font-family="sans-serif" font-size="13" lengthAdjust="spacingAndGlyphs" textLength="7" x="680.5501" y="502.9334">*</text><!--
@startuml
left to right direction


class Document [[/blob/master/doc/entities/Document.md]] {
  [[/blob/master/doc/entities/Document.md#title-string title]]: <color:GRAY>String</color>
  [[/blob/master/doc/entities/Document.md#author-string author]]: <color:GRAY>String?</color>
  [[/blob/master/doc/entities/Document.md#rights-string rights]]: <color:GRAY>String?</color>
  [[/blob/master/doc/entities/Document.md#language-string language]]: <color:GRAY>String</color>
  [[/blob/master/doc/entities/Document.md#abstract-string abstract]]: <color:GRAY>String</color>
}





package laplacian.project.document {
  class Section {
  }
}


Document *- - "*" Section : sections




class Section [[/blob/master/doc/entities/Section.md]] {
  <color:Green><&star></color>[[/blob/master/doc/entities/Section.md#title-string title]]: <color:GRAY>String</color>
  <color:Green><&star></color>[[/blob/master/doc/entities/Section.md#content-string content]]: <color:GRAY>String</color>
  [[/blob/master/doc/entities/Section.md#included_if-string included_if]]: <color:GRAY>String</color>
}






Section *- - "*" Section : sub_sections




class Module [[/blob/master/doc/entities/Module.md]] {
  <color:Green><&star></color>[[/blob/master/doc/entities/Module.md#name-string name]]: <color:GRAY>String</color>
  <color:Green><&star></color>[[/blob/master/doc/entities/Module.md#group-string group]]: <color:GRAY>String</color>
  <color:Green><&star></color>[[/blob/master/doc/entities/Module.md#version-string version]]: <color:GRAY>String</color>
  [[/blob/master/doc/entities/Module.md#artifact_id-string artifactId]](): <color:GRAY>String</color>
}




class Project [[/blob/master/doc/entities/Project.md]] {
  <color:RED><&key></color><color:Green><&star></color>[[/blob/master/doc/entities/Project.md#group-string group]]: <color:GRAY>String</color>
  <color:RED><&key></color><color:Green><&star></color>[[/blob/master/doc/entities/Project.md#name-string name]]: <color:GRAY>String</color>
  [[/blob/master/doc/entities/Project.md#type-string type]]: <color:GRAY>String</color>
  <color:Green><&star></color>[[/blob/master/doc/entities/Project.md#version-string version]]: <color:GRAY>String</color>
  [[/blob/master/doc/entities/Project.md#namespace-string namespace]]: <color:GRAY>String</color>
  [[/blob/master/doc/entities/Project.md#description-string description]]: <color:GRAY>String</color>
  [[/blob/master/doc/entities/Project.md#model_files-listString model_files]]: <color:GRAY>List<String></color>
  [[/blob/master/doc/entities/Project.md#template_files-listString template_files]]: <color:GRAY>List<String></color>
  [[/blob/master/doc/entities/Project.md#base_dir-string base_dir]]: <color:GRAY>String</color>
  [[/blob/master/doc/entities/Project.md#all_models-listModule allModels]](): <color:GRAY>List<Module></color>
  [[/blob/master/doc/entities/Project.md#all_templates-listModule allTemplates]](): <color:GRAY>List<Module></color>
  [[/blob/master/doc/entities/Project.md#all_plugins-listModule allPlugins]](): <color:GRAY>List<Module></color>
}






Project - - "1" ProjectType : project_type






Project *- - "*" Project : subprojects






Project *- - "0..1" SourceRepository : source_repository






Project *- - "0..1" Document : document






Project *- - "*" Module : models






Project *- - "*" Module : templates






Project *- - "*" Module : plugins




class ProjectType [[/blob/master/doc/entities/ProjectType.md]] {
  <color:Green><&star></color>[[/blob/master/doc/entities/ProjectType.md#name-string name]]: <color:GRAY>String</color>
  [[/blob/master/doc/entities/ProjectType.md#description-string description]]: <color:GRAY>String</color>
}






ProjectType *- - "*" Module : models






ProjectType *- - "*" Module : templates






ProjectType *- - "*" Module : plugins




class SourceRepository [[/blob/master/doc/entities/SourceRepository.md]] {
  <color:Green><&star></color>[[/blob/master/doc/entities/SourceRepository.md#url-string url]]: <color:GRAY>String</color>
  [[/blob/master/doc/entities/SourceRepository.md#branch-string branch]]: <color:GRAY>String</color>
}



@enduml

PlantUML version 1.2019.05(Sun Apr 21 01:45:36 JST 2019)
(GPL source distribution)
Java Runtime: OpenJDK Runtime Environment
JVM: OpenJDK 64-Bit Server VM
Java Version: 1.8.0_242-b20
Operating System: Linux
OS Version: 4.4.0-18362-Microsoft
Default Encoding: UTF-8
Language: en
Country: 
--></g></svg>