<?xml version="1.0" encoding="UTF-8" standalone="no"?><svg xmlns="http://www.w3.org/2000/svg" xmlns:xlink="http://www.w3.org/1999/xlink" contentScriptType="application/ecmascript" contentStyleType="text/css" height="692px" preserveAspectRatio="none" style="width:869px;height:692px;" version="1.1" viewBox="0 0 869 692" width="869px" zoomAndPan="magnify"><defs><filter height="300%" id="f1o4hln34fxnqn" width="300%" x="-1" y="-1"><feGaussianBlur result="blurOut" stdDeviation="2.0"/><feColorMatrix in="blurOut" result="blurOut2" type="matrix" values="0 0 0 0 0 0 0 0 0 0 0 0 0 0 0 0 0 0 .4 0"/><feOffset dx="4.0" dy="4.0" in="blurOut2" result="blurOut3"/><feBlend in="SourceGraphic" in2="blurOut3" mode="normal"/></filter></defs><g><!--cluster laplacian.project.document--><polygon fill="#FFFFFF" filter="url(#f1o4hln34fxnqn)" points="618,24,837,24,844,46.2969,847,46.2969,847,206,618,206,618,24" style="stroke: #000000; stroke-width: 1.5;"/><line style="stroke: #000000; stroke-width: 1.5;" x1="618" x2="844" y1="46.2969" y2="46.2969"/><text fill="#000000" font-family="sans-serif" font-size="14" font-weight="bold" lengthAdjust="spacingAndGlyphs" textLength="213" x="622" y="38.9951">laplacian.project.document</text><!--class Section--><a href="/blob/master/doc/entities/Section.md" target="_top" xlink:actuate="onRequest" xlink:show="new" xlink:title="/blob/master/doc/entities/Section.md" xlink:type="simple"><rect fill="#FEFECE" filter="url(#f1o4hln34fxnqn)" height="86.4141" id="Section" style="stroke: #A80036; stroke-width: 1.5;" width="114" x="675" y="104"/><ellipse cx="705.75" cy="120" fill="#ADD1B2" rx="11" ry="11" style="stroke: #A80036; stroke-width: 1.0;"/><path d="M708.7188,125.6406 Q708.1406,125.9375 707.5,126.0781 Q706.8594,126.2344 706.1563,126.2344 Q703.6563,126.2344 702.3281,124.5938 Q701.0156,122.9375 701.0156,119.8125 Q701.0156,116.6875 702.3281,115.0313 Q703.6563,113.375 706.1563,113.375 Q706.8594,113.375 707.5,113.5313 Q708.1563,113.6875 708.7188,113.9844 L708.7188,116.7031 Q708.0938,116.125 707.5,115.8594 Q706.9063,115.5781 706.2813,115.5781 Q704.9375,115.5781 704.25,116.6563 Q703.5625,117.7188 703.5625,119.8125 Q703.5625,121.9063 704.25,122.9844 Q704.9375,124.0469 706.2813,124.0469 Q706.9063,124.0469 707.5,123.7813 Q708.0938,123.5 708.7188,122.9219 L708.7188,125.6406 Z "/><text fill="#000000" font-family="sans-serif" font-size="12" lengthAdjust="spacingAndGlyphs" textLength="47" x="723.25" y="124.1543">Section</text><line style="stroke: #A80036; stroke-width: 1.5;" x1="676" x2="788" y1="136" y2="136"/><path d="M685.6667,142.7214 L684.75,145.4714 L682,145.4714 L684.2917,147.3047 L683.375,150.0547 L685.6667,148.2214 L687.9583,150.0547 L687.0417,147.3047 L689.3333,145.4714 L686.5833,145.4714 L685.6667,142.7214 " fill="#008000" style="stroke: ; stroke-width: 0.0; stroke-dasharray: ;"/></a><a href="/blob/master/doc/entities/Section.md#title-string" target="_top" xlink:actuate="onRequest" xlink:show="new" xlink:title="/blob/master/doc/entities/Section.md#title-string" xlink:type="simple"><text fill="#0000FF" font-family="sans-serif" font-size="11" lengthAdjust="spacingAndGlyphs" text-decoration="underline" textLength="21" x="690.3333" y="150.2104">title</text></a><text fill="#000000" font-family="sans-serif" font-size="11" lengthAdjust="spacingAndGlyphs" textLength="4" x="711.3333" y="150.2104">:</text><text fill="#808080" font-family="sans-serif" font-size="11" lengthAdjust="spacingAndGlyphs" textLength="34" x="719.3333" y="150.2104">String</text><path d="M685.6667,155.526 L684.75,158.276 L682,158.276 L684.2917,160.1094 L683.375,162.8594 L685.6667,161.026 L687.9583,162.8594 L687.0417,160.1094 L689.3333,158.276 L686.5833,158.276 L685.6667,155.526 " fill="#008000" style="stroke: ; stroke-width: 0.0; stroke-dasharray: ;"/><a href="/blob/master/doc/entities/Section.md#content-string" target="_top" xlink:actuate="onRequest" xlink:show="new" xlink:title="/blob/master/doc/entities/Section.md#content-string" xlink:type="simple"><text fill="#0000FF" font-family="sans-serif" font-size="11" lengthAdjust="spacingAndGlyphs" text-decoration="underline" textLength="42" x="690.3333" y="163.0151">content</text></a><text fill="#000000" font-family="sans-serif" font-size="11" lengthAdjust="spacingAndGlyphs" textLength="4" x="732.3333" y="163.0151">:</text><text fill="#808080" font-family="sans-serif" font-size="11" lengthAdjust="spacingAndGlyphs" textLength="34" x="740.3333" y="163.0151">String</text><a href="/blob/master/doc/entities/Section.md#included_if-string" target="_top" xlink:actuate="onRequest" xlink:show="new" xlink:title="/blob/master/doc/entities/Section.md#included_if-string" xlink:type="simple"><text fill="#0000FF" font-family="sans-serif" font-size="11" lengthAdjust="spacingAndGlyphs" text-decoration="underline" textLength="60" x="681" y="175.8198">included_if</text></a><text fill="#000000" font-family="sans-serif" font-size="11" lengthAdjust="spacingAndGlyphs" textLength="4" x="741" y="175.8198">:</text><text fill="#808080" font-family="sans-serif" font-size="11" lengthAdjust="spacingAndGlyphs" textLength="34" x="749" y="175.8198">String</text><line style="stroke: #A80036; stroke-width: 1.5;" x1="676" x2="788" y1="182.4141" y2="182.4141"/><!--class Document--><a href="/blob/master/doc/entities/Document.md" target="_top" xlink:actuate="onRequest" xlink:show="new" xlink:title="/blob/master/doc/entities/Document.md" xlink:type="simple"><rect fill="#FEFECE" filter="url(#f1o4hln34fxnqn)" height="112.0234" id="Document" style="stroke: #A80036; stroke-width: 1.5;" width="106" x="381" y="91"/><ellipse cx="400.5" cy="107" fill="#ADD1B2" rx="11" ry="11" style="stroke: #A80036; stroke-width: 1.0;"/><path d="M403.4688,112.6406 Q402.8906,112.9375 402.25,113.0781 Q401.6094,113.2344 400.9063,113.2344 Q398.4063,113.2344 397.0781,111.5938 Q395.7656,109.9375 395.7656,106.8125 Q395.7656,103.6875 397.0781,102.0313 Q398.4063,100.375 400.9063,100.375 Q401.6094,100.375 402.25,100.5313 Q402.9063,100.6875 403.4688,100.9844 L403.4688,103.7031 Q402.8438,103.125 402.25,102.8594 Q401.6563,102.5781 401.0313,102.5781 Q399.6875,102.5781 399,103.6563 Q398.3125,104.7188 398.3125,106.8125 Q398.3125,108.9063 399,109.9844 Q399.6875,111.0469 401.0313,111.0469 Q401.6563,111.0469 402.25,110.7813 Q402.8438,110.5 403.4688,109.9219 L403.4688,112.6406 Z "/><text fill="#000000" font-family="sans-serif" font-size="12" lengthAdjust="spacingAndGlyphs" textLength="64" x="415.5" y="111.1543">Document</text><line style="stroke: #A80036; stroke-width: 1.5;" x1="382" x2="486" y1="123" y2="123"/></a><a href="/blob/master/doc/entities/Document.md#title-string" target="_top" xlink:actuate="onRequest" xlink:show="new" xlink:title="/blob/master/doc/entities/Document.md#title-string" xlink:type="simple"><text fill="#0000FF" font-family="sans-serif" font-size="11" lengthAdjust="spacingAndGlyphs" text-decoration="underline" textLength="21" x="387" y="137.2104">title</text></a><text fill="#000000" font-family="sans-serif" font-size="11" lengthAdjust="spacingAndGlyphs" textLength="4" x="408" y="137.2104">:</text><text fill="#808080" font-family="sans-serif" font-size="11" lengthAdjust="spacingAndGlyphs" textLength="34" x="416" y="137.2104">String</text><a href="/blob/master/doc/entities/Document.md#author-string" target="_top" xlink:actuate="onRequest" xlink:show="new" xlink:title="/blob/master/doc/entities/Document.md#author-string" xlink:type="simple"><text fill="#0000FF" font-family="sans-serif" font-size="11" lengthAdjust="spacingAndGlyphs" text-decoration="underline" textLength="37" x="387" y="150.0151">author</text></a><text fill="#000000" font-family="sans-serif" font-size="11" lengthAdjust="spacingAndGlyphs" textLength="4" x="424" y="150.0151">:</text><text fill="#808080" font-family="sans-serif" font-size="11" lengthAdjust="spacingAndGlyphs" textLength="40" x="432" y="150.0151">String?</text><a href="/blob/master/doc/entities/Document.md#rights-string" target="_top" xlink:actuate="onRequest" xlink:show="new" xlink:title="/blob/master/doc/entities/Document.md#rights-string" xlink:type="simple"><text fill="#0000FF" font-family="sans-serif" font-size="11" lengthAdjust="spacingAndGlyphs" text-decoration="underline" textLength="33" x="387" y="162.8198">rights</text></a><text fill="#000000" font-family="sans-serif" font-size="11" lengthAdjust="spacingAndGlyphs" textLength="4" x="420" y="162.8198">:</text><text fill="#808080" font-family="sans-serif" font-size="11" lengthAdjust="spacingAndGlyphs" textLength="40" x="428" y="162.8198">String?</text><a href="/blob/master/doc/entities/Document.md#language-string" target="_top" xlink:actuate="onRequest" xlink:show="new" xlink:title="/blob/master/doc/entities/Document.md#language-string" xlink:type="simple"><text fill="#0000FF" font-family="sans-serif" font-size="11" lengthAdjust="spacingAndGlyphs" text-decoration="underline" textLength="52" x="387" y="175.6245">language</text></a><text fill="#000000" font-family="sans-serif" font-size="11" lengthAdjust="spacingAndGlyphs" textLength="4" x="439" y="175.6245">:</text><text fill="#808080" font-family="sans-serif" font-size="11" lengthAdjust="spacingAndGlyphs" textLength="34" x="447" y="175.6245">String</text><a href="/blob/master/doc/entities/Document.md#abstract-string" target="_top" xlink:actuate="onRequest" xlink:show="new" xlink:title="/blob/master/doc/entities/Document.md#abstract-string" xlink:type="simple"><text fill="#0000FF" font-family="sans-serif" font-size="11" lengthAdjust="spacingAndGlyphs" text-decoration="underline" textLength="47" x="387" y="188.4292">abstract</text></a><text fill="#000000" font-family="sans-serif" font-size="11" lengthAdjust="spacingAndGlyphs" textLength="4" x="434" y="188.4292">:</text><text fill="#808080" font-family="sans-serif" font-size="11" lengthAdjust="spacingAndGlyphs" textLength="34" x="442" y="188.4292">String</text><line style="stroke: #A80036; stroke-width: 1.5;" x1="382" x2="486" y1="195.0234" y2="195.0234"/><!--class Module--><a href="/blob/master/doc/entities/Module.md" target="_top" xlink:actuate="onRequest" xlink:show="new" xlink:title="/blob/master/doc/entities/Module.md" xlink:type="simple"><rect fill="#FEFECE" filter="url(#f1o4hln34fxnqn)" height="99.2188" id="Module" style="stroke: #A80036; stroke-width: 1.5;" width="112" x="676" y="399.5"/><ellipse cx="706.75" cy="415.5" fill="#ADD1B2" rx="11" ry="11" style="stroke: #A80036; stroke-width: 1.0;"/><path d="M709.7188,421.1406 Q709.1406,421.4375 708.5,421.5781 Q707.8594,421.7344 707.1563,421.7344 Q704.6563,421.7344 703.3281,420.0938 Q702.0156,418.4375 702.0156,415.3125 Q702.0156,412.1875 703.3281,410.5313 Q704.6563,408.875 707.1563,408.875 Q707.8594,408.875 708.5,409.0313 Q709.1563,409.1875 709.7188,409.4844 L709.7188,412.2031 Q709.0938,411.625 708.5,411.3594 Q707.9063,411.0781 707.2813,411.0781 Q705.9375,411.0781 705.25,412.1563 Q704.5625,413.2188 704.5625,415.3125 Q704.5625,417.4063 705.25,418.4844 Q705.9375,419.5469 707.2813,419.5469 Q707.9063,419.5469 708.5,419.2813 Q709.0938,419 709.7188,418.4219 L709.7188,421.1406 Z "/><text fill="#000000" font-family="sans-serif" font-size="12" lengthAdjust="spacingAndGlyphs" textLength="45" x="724.25" y="419.6543">Module</text><line style="stroke: #A80036; stroke-width: 1.5;" x1="677" x2="787" y1="431.5" y2="431.5"/><path d="M686.6667,438.2214 L685.75,440.9714 L683,440.9714 L685.2917,442.8047 L684.375,445.5547 L686.6667,443.7214 L688.9583,445.5547 L688.0417,442.8047 L690.3333,440.9714 L687.5833,440.9714 L686.6667,438.2214 " fill="#008000" style="stroke: ; stroke-width: 0.0; stroke-dasharray: ;"/></a><a href="/blob/master/doc/entities/Module.md#name-string" target="_top" xlink:actuate="onRequest" xlink:show="new" xlink:title="/blob/master/doc/entities/Module.md#name-string" xlink:type="simple"><text fill="#0000FF" font-family="sans-serif" font-size="11" lengthAdjust="spacingAndGlyphs" text-decoration="underline" textLength="32" x="691.3333" y="445.7104">name</text></a><text fill="#000000" font-family="sans-serif" font-size="11" lengthAdjust="spacingAndGlyphs" textLength="4" x="723.3333" y="445.7104">:</text><text fill="#808080" font-family="sans-serif" font-size="11" lengthAdjust="spacingAndGlyphs" textLength="34" x="731.3333" y="445.7104">String</text><path d="M686.6667,451.026 L685.75,453.776 L683,453.776 L685.2917,455.6094 L684.375,458.3594 L686.6667,456.526 L688.9583,458.3594 L688.0417,455.6094 L690.3333,453.776 L687.5833,453.776 L686.6667,451.026 " fill="#008000" style="stroke: ; stroke-width: 0.0; stroke-dasharray: ;"/><a href="/blob/master/doc/entities/Module.md#group-string" target="_top" xlink:actuate="onRequest" xlink:show="new" xlink:title="/blob/master/doc/entities/Module.md#group-string" xlink:type="simple"><text fill="#0000FF" font-family="sans-serif" font-size="11" lengthAdjust="spacingAndGlyphs" text-decoration="underline" textLength="33" x="691.3333" y="458.5151">group</text></a><text fill="#000000" font-family="sans-serif" font-size="11" lengthAdjust="spacingAndGlyphs" textLength="4" x="724.3333" y="458.5151">:</text><text fill="#808080" font-family="sans-serif" font-size="11" lengthAdjust="spacingAndGlyphs" textLength="34" x="732.3333" y="458.5151">String</text><path d="M686.6667,463.8307 L685.75,466.5807 L683,466.5807 L685.2917,468.4141 L684.375,471.1641 L686.6667,469.3307 L688.9583,471.1641 L688.0417,468.4141 L690.3333,466.5807 L687.5833,466.5807 L686.6667,463.8307 " fill="#008000" style="stroke: ; stroke-width: 0.0; stroke-dasharray: ;"/><a href="/blob/master/doc/entities/Module.md#version-string" target="_top" xlink:actuate="onRequest" xlink:show="new" xlink:title="/blob/master/doc/entities/Module.md#version-string" xlink:type="simple"><text fill="#0000FF" font-family="sans-serif" font-size="11" lengthAdjust="spacingAndGlyphs" text-decoration="underline" textLength="42" x="691.3333" y="471.3198">version</text></a><text fill="#000000" font-family="sans-serif" font-size="11" lengthAdjust="spacingAndGlyphs" textLength="4" x="733.3333" y="471.3198">:</text><text fill="#808080" font-family="sans-serif" font-size="11" lengthAdjust="spacingAndGlyphs" textLength="34" x="741.3333" y="471.3198">String</text><line style="stroke: #A80036; stroke-width: 1.5;" x1="677" x2="787" y1="477.9141" y2="477.9141"/><a href="/blob/master/doc/entities/Module.md#artifact_id-string" target="_top" xlink:actuate="onRequest" xlink:show="new" xlink:title="/blob/master/doc/entities/Module.md#artifact_id-string" xlink:type="simple"><text fill="#0000FF" font-family="sans-serif" font-size="11" lengthAdjust="spacingAndGlyphs" text-decoration="underline" textLength="50" x="682" y="492.1245">artifactId</text></a><text fill="#000000" font-family="sans-serif" font-size="11" lengthAdjust="spacingAndGlyphs" textLength="12" x="732" y="492.1245">():</text><text fill="#808080" font-family="sans-serif" font-size="11" lengthAdjust="spacingAndGlyphs" textLength="34" x="748" y="492.1245">String</text><!--class Project--><a href="/blob/master/doc/entities/Project.md" target="_top" xlink:actuate="onRequest" xlink:show="new" xlink:title="/blob/master/doc/entities/Project.md" xlink:type="simple"><rect fill="#FEFECE" filter="url(#f1o4hln34fxnqn)" height="163.2422" id="Project" style="stroke: #A80036; stroke-width: 1.5;" width="181.3333" x="6" y="304.5"/><ellipse cx="70.4167" cy="320.5" fill="#ADD1B2" rx="11" ry="11" style="stroke: #A80036; stroke-width: 1.0;"/><path d="M73.3854,326.1406 Q72.8073,326.4375 72.1667,326.5781 Q71.526,326.7344 70.8229,326.7344 Q68.3229,326.7344 66.9948,325.0938 Q65.6823,323.4375 65.6823,320.3125 Q65.6823,317.1875 66.9948,315.5313 Q68.3229,313.875 70.8229,313.875 Q71.526,313.875 72.1667,314.0313 Q72.8229,314.1875 73.3854,314.4844 L73.3854,317.2031 Q72.7604,316.625 72.1667,316.3594 Q71.5729,316.0781 70.9479,316.0781 Q69.6042,316.0781 68.9167,317.1563 Q68.2292,318.2188 68.2292,320.3125 Q68.2292,322.4063 68.9167,323.4844 Q69.6042,324.5469 70.9479,324.5469 Q71.5729,324.5469 72.1667,324.2813 Q72.7604,324 73.3854,323.4219 L73.3854,326.1406 Z "/><text fill="#000000" font-family="sans-serif" font-size="12" lengthAdjust="spacingAndGlyphs" textLength="44" x="90.9167" y="324.6543">Project</text><line style="stroke: #A80036; stroke-width: 1.5;" x1="7" x2="186.3333" y1="336.5" y2="336.5"/><path d="M18.0417,343.2214 C16.7767,343.2214 15.75,344.248 15.75,345.513 C15.75,345.6597 15.7802,345.7853 15.8078,345.9145 L13,348.7223 L13,350.5556 L15.75,350.5556 L15.75,348.7223 L17.5833,348.7223 L17.5833,347.8056 L17.6411,347.7479 C17.7694,347.7754 17.895,347.8056 18.0426,347.8056 C19.3076,347.8056 20.3342,346.7789 20.3342,345.5139 C20.3342,344.2489 19.3076,343.2223 18.0426,343.2223 M18.5009,344.1389 C19.0051,344.1389 19.4176,344.5514 19.4176,345.0556 C19.4176,345.5598 19.0051,345.9723 18.5009,345.9723 C17.9968,345.9723 17.5843,345.5598 17.5843,345.0556 C17.5843,344.5514 17.9968,344.1389 18.5009,344.1389 " fill="#FF0000" style="stroke: ; stroke-width: 0.0; stroke-dasharray: ;"/><path d="M26,343.2214 L25.0833,345.9714 L22.3333,345.9714 L24.625,347.8047 L23.7083,350.5547 L26,348.7214 L28.2917,350.5547 L27.375,347.8047 L29.6667,345.9714 L26.9167,345.9714 L26,343.2214 " fill="#008000" style="stroke: ; stroke-width: 0.0; stroke-dasharray: ;"/></a><a href="/blob/master/doc/entities/Project.md#group-string" target="_top" xlink:actuate="onRequest" xlink:show="new" xlink:title="/blob/master/doc/entities/Project.md#group-string" xlink:type="simple"><text fill="#0000FF" font-family="sans-serif" font-size="11" lengthAdjust="spacingAndGlyphs" text-decoration="underline" textLength="33" x="30.6667" y="350.7104">group</text></a><text fill="#000000" font-family="sans-serif" font-size="11" lengthAdjust="spacingAndGlyphs" textLength="4" x="63.6667" y="350.7104">:</text><text fill="#808080" font-family="sans-serif" font-size="11" lengthAdjust="spacingAndGlyphs" textLength="34" x="71.6667" y="350.7104">String</text><path d="M18.0417,356.026 C16.7767,356.026 15.75,357.0527 15.75,358.3177 C15.75,358.4644 15.7802,358.59 15.8078,358.7192 L13,361.527 L13,363.3603 L15.75,363.3603 L15.75,361.527 L17.5833,361.527 L17.5833,360.6103 L17.6411,360.5525 C17.7694,360.58 17.895,360.6103 18.0426,360.6103 C19.3076,360.6103 20.3342,359.5836 20.3342,358.3186 C20.3342,357.0536 19.3076,356.027 18.0426,356.027 M18.5009,356.9436 C19.0051,356.9436 19.4176,357.3561 19.4176,357.8603 C19.4176,358.3645 19.0051,358.777 18.5009,358.777 C17.9968,358.777 17.5843,358.3645 17.5843,357.8603 C17.5843,357.3561 17.9968,356.9436 18.5009,356.9436 " fill="#FF0000" style="stroke: ; stroke-width: 0.0; stroke-dasharray: ;"/><path d="M26,356.026 L25.0833,358.776 L22.3333,358.776 L24.625,360.6094 L23.7083,363.3594 L26,361.526 L28.2917,363.3594 L27.375,360.6094 L29.6667,358.776 L26.9167,358.776 L26,356.026 " fill="#008000" style="stroke: ; stroke-width: 0.0; stroke-dasharray: ;"/><a href="/blob/master/doc/entities/Project.md#name-string" target="_top" xlink:actuate="onRequest" xlink:show="new" xlink:title="/blob/master/doc/entities/Project.md#name-string" xlink:type="simple"><text fill="#0000FF" font-family="sans-serif" font-size="11" lengthAdjust="spacingAndGlyphs" text-decoration="underline" textLength="32" x="30.6667" y="363.5151">name</text></a><text fill="#000000" font-family="sans-serif" font-size="11" lengthAdjust="spacingAndGlyphs" textLength="4" x="62.6667" y="363.5151">:</text><text fill="#808080" font-family="sans-serif" font-size="11" lengthAdjust="spacingAndGlyphs" textLength="34" x="70.6667" y="363.5151">String</text><a href="/blob/master/doc/entities/Project.md#type-string" target="_top" xlink:actuate="onRequest" xlink:show="new" xlink:title="/blob/master/doc/entities/Project.md#type-string" xlink:type="simple"><text fill="#0000FF" font-family="sans-serif" font-size="11" lengthAdjust="spacingAndGlyphs" text-decoration="underline" textLength="24" x="12" y="376.3198">type</text></a><text fill="#000000" font-family="sans-serif" font-size="11" lengthAdjust="spacingAndGlyphs" textLength="4" x="36" y="376.3198">:</text><text fill="#808080" font-family="sans-serif" font-size="11" lengthAdjust="spacingAndGlyphs" textLength="34" x="44" y="376.3198">String</text><path d="M16.6667,381.6354 L15.75,384.3854 L13,384.3854 L15.2917,386.2188 L14.375,388.9688 L16.6667,387.1354 L18.9583,388.9688 L18.0417,386.2188 L20.3333,384.3854 L17.5833,384.3854 L16.6667,381.6354 " fill="#008000" style="stroke: ; stroke-width: 0.0; stroke-dasharray: ;"/><a href="/blob/master/doc/entities/Project.md#version-string" target="_top" xlink:actuate="onRequest" xlink:show="new" xlink:title="/blob/master/doc/entities/Project.md#version-string" xlink:type="simple"><text fill="#0000FF" font-family="sans-serif" font-size="11" lengthAdjust="spacingAndGlyphs" text-decoration="underline" textLength="42" x="21.3333" y="389.1245">version</text></a><text fill="#000000" font-family="sans-serif" font-size="11" lengthAdjust="spacingAndGlyphs" textLength="4" x="63.3333" y="389.1245">:</text><text fill="#808080" font-family="sans-serif" font-size="11" lengthAdjust="spacingAndGlyphs" textLength="34" x="71.3333" y="389.1245">String</text><a href="/blob/master/doc/entities/Project.md#namespace-string" target="_top" xlink:actuate="onRequest" xlink:show="new" xlink:title="/blob/master/doc/entities/Project.md#namespace-string" xlink:type="simple"><text fill="#0000FF" font-family="sans-serif" font-size="11" lengthAdjust="spacingAndGlyphs" text-decoration="underline" textLength="66" x="12" y="401.9292">namespace</text></a><text fill="#000000" font-family="sans-serif" font-size="11" lengthAdjust="spacingAndGlyphs" textLength="4" x="78" y="401.9292">:</text><text fill="#808080" font-family="sans-serif" font-size="11" lengthAdjust="spacingAndGlyphs" textLength="34" x="86" y="401.9292">String</text><a href="/blob/master/doc/entities/Project.md#description-string" target="_top" xlink:actuate="onRequest" xlink:show="new" xlink:title="/blob/master/doc/entities/Project.md#description-string" xlink:type="simple"><text fill="#0000FF" font-family="sans-serif" font-size="11" lengthAdjust="spacingAndGlyphs" text-decoration="underline" textLength="63" x="12" y="414.7339">description</text></a><text fill="#000000" font-family="sans-serif" font-size="11" lengthAdjust="spacingAndGlyphs" textLength="4" x="75" y="414.7339">:</text><text fill="#808080" font-family="sans-serif" font-size="11" lengthAdjust="spacingAndGlyphs" textLength="34" x="83" y="414.7339">String</text><path d="M16.6667,420.0495 L15.75,422.7995 L13,422.7995 L15.2917,424.6328 L14.375,427.3828 L16.6667,425.5495 L18.9583,427.3828 L18.0417,424.6328 L20.3333,422.7995 L17.5833,422.7995 L16.6667,420.0495 " fill="#008000" style="stroke: ; stroke-width: 0.0; stroke-dasharray: ;"/><a href="/blob/master/doc/entities/Project.md#model_files-listString" target="_top" xlink:actuate="onRequest" xlink:show="new" xlink:title="/blob/master/doc/entities/Project.md#model_files-listString" xlink:type="simple"><text fill="#0000FF" font-family="sans-serif" font-size="11" lengthAdjust="spacingAndGlyphs" text-decoration="underline" textLength="65" x="21.3333" y="427.5386">model_files</text></a><text fill="#000000" font-family="sans-serif" font-size="11" lengthAdjust="spacingAndGlyphs" textLength="4" x="86.3333" y="427.5386">:</text><text fill="#808080" font-family="sans-serif" font-size="11" lengthAdjust="spacingAndGlyphs" textLength="72" x="94.3333" y="427.5386">List&lt;String&gt;</text><path d="M16.6667,432.8542 L15.75,435.6042 L13,435.6042 L15.2917,437.4375 L14.375,440.1875 L16.6667,438.3542 L18.9583,440.1875 L18.0417,437.4375 L20.3333,435.6042 L17.5833,435.6042 L16.6667,432.8542 " fill="#008000" style="stroke: ; stroke-width: 0.0; stroke-dasharray: ;"/><a href="/blob/master/doc/entities/Project.md#template_files-listString" target="_top" xlink:actuate="onRequest" xlink:show="new" xlink:title="/blob/master/doc/entities/Project.md#template_files-listString" xlink:type="simple"><text fill="#0000FF" font-family="sans-serif" font-size="11" lengthAdjust="spacingAndGlyphs" text-decoration="underline" textLength="80" x="21.3333" y="440.3433">template_files</text></a><text fill="#000000" font-family="sans-serif" font-size="11" lengthAdjust="spacingAndGlyphs" textLength="4" x="101.3333" y="440.3433">:</text><text fill="#808080" font-family="sans-serif" font-size="11" lengthAdjust="spacingAndGlyphs" textLength="72" x="109.3333" y="440.3433">List&lt;String&gt;</text><a href="/blob/master/doc/entities/Project.md#base_dir-string" target="_top" xlink:actuate="onRequest" xlink:show="new" xlink:title="/blob/master/doc/entities/Project.md#base_dir-string" xlink:type="simple"><text fill="#0000FF" font-family="sans-serif" font-size="11" lengthAdjust="spacingAndGlyphs" text-decoration="underline" textLength="49" x="12" y="453.1479">base_dir</text></a><text fill="#000000" font-family="sans-serif" font-size="11" lengthAdjust="spacingAndGlyphs" textLength="4" x="61" y="453.1479">:</text><text fill="#808080" font-family="sans-serif" font-size="11" lengthAdjust="spacingAndGlyphs" textLength="34" x="69" y="453.1479">String</text><line style="stroke: #A80036; stroke-width: 1.5;" x1="7" x2="186.3333" y1="459.7422" y2="459.7422"/><!--class ProjectType--><a href="/blob/master/doc/entities/ProjectType.md" target="_top" xlink:actuate="onRequest" xlink:show="new" xlink:title="/blob/master/doc/entities/ProjectType.md" xlink:type="simple"><rect fill="#FEFECE" filter="url(#f1o4hln34fxnqn)" height="73.6094" id="ProjectType" style="stroke: #A80036; stroke-width: 1.5;" width="117" x="375.5" y="499"/><ellipse cx="395.9" cy="515" fill="#ADD1B2" rx="11" ry="11" style="stroke: #A80036; stroke-width: 1.0;"/><path d="M398.8688,520.6406 Q398.2906,520.9375 397.65,521.0781 Q397.0094,521.2344 396.3063,521.2344 Q393.8063,521.2344 392.4781,519.5938 Q391.1656,517.9375 391.1656,514.8125 Q391.1656,511.6875 392.4781,510.0313 Q393.8063,508.375 396.3063,508.375 Q397.0094,508.375 397.65,508.5313 Q398.3063,508.6875 398.8688,508.9844 L398.8688,511.7031 Q398.2438,511.125 397.65,510.8594 Q397.0563,510.5781 396.4313,510.5781 Q395.0875,510.5781 394.4,511.6563 Q393.7125,512.7188 393.7125,514.8125 Q393.7125,516.9063 394.4,517.9844 Q395.0875,519.0469 396.4313,519.0469 Q397.0563,519.0469 397.65,518.7813 Q398.2438,518.5 398.8688,517.9219 L398.8688,520.6406 Z "/><text fill="#000000" font-family="sans-serif" font-size="12" lengthAdjust="spacingAndGlyphs" textLength="73" x="411.1" y="519.1543">ProjectType</text><line style="stroke: #A80036; stroke-width: 1.5;" x1="376.5" x2="491.5" y1="531" y2="531"/><path d="M386.1667,537.7214 L385.25,540.4714 L382.5,540.4714 L384.7917,542.3047 L383.875,545.0547 L386.1667,543.2214 L388.4583,545.0547 L387.5417,542.3047 L389.8333,540.4714 L387.0833,540.4714 L386.1667,537.7214 " fill="#008000" style="stroke: ; stroke-width: 0.0; stroke-dasharray: ;"/></a><a href="/blob/master/doc/entities/ProjectType.md#name-string" target="_top" xlink:actuate="onRequest" xlink:show="new" xlink:title="/blob/master/doc/entities/ProjectType.md#name-string" xlink:type="simple"><text fill="#0000FF" font-family="sans-serif" font-size="11" lengthAdjust="spacingAndGlyphs" text-decoration="underline" textLength="32" x="390.8333" y="545.2104">name</text></a><text fill="#000000" font-family="sans-serif" font-size="11" lengthAdjust="spacingAndGlyphs" textLength="4" x="422.8333" y="545.2104">:</text><text fill="#808080" font-family="sans-serif" font-size="11" lengthAdjust="spacingAndGlyphs" textLength="34" x="430.8333" y="545.2104">String</text><a href="/blob/master/doc/entities/ProjectType.md#description-string" target="_top" xlink:actuate="onRequest" xlink:show="new" xlink:title="/blob/master/doc/entities/ProjectType.md#description-string" xlink:type="simple"><text fill="#0000FF" font-family="sans-serif" font-size="11" lengthAdjust="spacingAndGlyphs" text-decoration="underline" textLength="63" x="381.5" y="558.0151">description</text></a><text fill="#000000" font-family="sans-serif" font-size="11" lengthAdjust="spacingAndGlyphs" textLength="4" x="444.5" y="558.0151">:</text><text fill="#808080" font-family="sans-serif" font-size="11" lengthAdjust="spacingAndGlyphs" textLength="34" x="452.5" y="558.0151">String</text><line style="stroke: #A80036; stroke-width: 1.5;" x1="376.5" x2="491.5" y1="564.6094" y2="564.6094"/><!--class SourceRepository--><a href="/blob/master/doc/entities/SourceRepository.md" target="_top" xlink:actuate="onRequest" xlink:show="new" xlink:title="/blob/master/doc/entities/SourceRepository.md" xlink:type="simple"><rect fill="#FEFECE" filter="url(#f1o4hln34fxnqn)" height="73.6094" id="SourceRepository" style="stroke: #A80036; stroke-width: 1.5;" width="142" x="363" y="608"/><ellipse cx="378" cy="624" fill="#ADD1B2" rx="11" ry="11" style="stroke: #A80036; stroke-width: 1.0;"/><path d="M380.9688,629.6406 Q380.3906,629.9375 379.75,630.0781 Q379.1094,630.2344 378.4063,630.2344 Q375.9063,630.2344 374.5781,628.5938 Q373.2656,626.9375 373.2656,623.8125 Q373.2656,620.6875 374.5781,619.0313 Q375.9063,617.375 378.4063,617.375 Q379.1094,617.375 379.75,617.5313 Q380.4063,617.6875 380.9688,617.9844 L380.9688,620.7031 Q380.3438,620.125 379.75,619.8594 Q379.1563,619.5781 378.5313,619.5781 Q377.1875,619.5781 376.5,620.6563 Q375.8125,621.7188 375.8125,623.8125 Q375.8125,625.9063 376.5,626.9844 Q377.1875,628.0469 378.5313,628.0469 Q379.1563,628.0469 379.75,627.7813 Q380.3438,627.5 380.9688,626.9219 L380.9688,629.6406 Z "/><text fill="#000000" font-family="sans-serif" font-size="12" lengthAdjust="spacingAndGlyphs" textLength="110" x="392" y="628.1543">SourceRepository</text><line style="stroke: #A80036; stroke-width: 1.5;" x1="364" x2="504" y1="640" y2="640"/><path d="M373.6667,646.7214 L372.75,649.4714 L370,649.4714 L372.2917,651.3047 L371.375,654.0547 L373.6667,652.2214 L375.9583,654.0547 L375.0417,651.3047 L377.3333,649.4714 L374.5833,649.4714 L373.6667,646.7214 " fill="#008000" style="stroke: ; stroke-width: 0.0; stroke-dasharray: ;"/></a><a href="/blob/master/doc/entities/SourceRepository.md#url-string" target="_top" xlink:actuate="onRequest" xlink:show="new" xlink:title="/blob/master/doc/entities/SourceRepository.md#url-string" xlink:type="simple"><text fill="#0000FF" font-family="sans-serif" font-size="11" lengthAdjust="spacingAndGlyphs" text-decoration="underline" textLength="15" x="378.3333" y="654.2104">url</text></a><text fill="#000000" font-family="sans-serif" font-size="11" lengthAdjust="spacingAndGlyphs" textLength="4" x="393.3333" y="654.2104">:</text><text fill="#808080" font-family="sans-serif" font-size="11" lengthAdjust="spacingAndGlyphs" textLength="34" x="401.3333" y="654.2104">String</text><a href="/blob/master/doc/entities/SourceRepository.md#branch-string" target="_top" xlink:actuate="onRequest" xlink:show="new" xlink:title="/blob/master/doc/entities/SourceRepository.md#branch-string" xlink:type="simple"><text fill="#0000FF" font-family="sans-serif" font-size="11" lengthAdjust="spacingAndGlyphs" text-decoration="underline" textLength="39" x="369" y="667.0151">branch</text></a><text fill="#000000" font-family="sans-serif" font-size="11" lengthAdjust="spacingAndGlyphs" textLength="4" x="408" y="667.0151">:</text><text fill="#808080" font-family="sans-serif" font-size="11" lengthAdjust="spacingAndGlyphs" textLength="34" x="416" y="667.0151">String</text><line style="stroke: #A80036; stroke-width: 1.5;" x1="364" x2="504" y1="673.6094" y2="673.6094"/><!--link Document to Section--><path d="M500.39,147 C552.63,147 625.08,147 674.75,147 " fill="none" id="Document-Section" style="stroke: #A80036; stroke-width: 1.0;"/><polygon fill="#A80036" points="487.24,147,493.24,151,499.24,147,493.24,143,487.24,147" style="stroke: #A80036; stroke-width: 1.0;"/><text fill="#000000" font-family="sans-serif" font-size="13" lengthAdjust="spacingAndGlyphs" textLength="53" x="542" y="143.0669">sections</text><text fill="#000000" font-family="sans-serif" font-size="13" lengthAdjust="spacingAndGlyphs" textLength="7" x="659.9664" y="160.0098">*</text><!--link Section to Section--><path d="M702.48,90.38 C705.31,78 715.15,69 732,69 C754.46,69 764.47,85 762.01,103.69 " fill="none" id="Section-Section" style="stroke: #A80036; stroke-width: 1.0;"/><polygon fill="#A80036" points="701.99,103.69,706.2048,97.8389,702.4249,91.6979,698.2101,97.549,701.99,103.69" style="stroke: #A80036; stroke-width: 1.0;"/><text fill="#000000" font-family="sans-serif" font-size="13" lengthAdjust="spacingAndGlyphs" textLength="83" x="690.5" y="60.0669">sub_sections</text><text fill="#000000" font-family="sans-serif" font-size="13" lengthAdjust="spacingAndGlyphs" textLength="7" x="759.0693" y="92.9551">*</text><!--link Project to ProjectType--><path d="M187.19,455.27 C196.98,461.39 207.02,467.1 217,472 C267.92,496.97 330.45,514.19 375.11,524.42 " fill="none" id="Project-ProjectType" style="stroke: #A80036; stroke-width: 1.0;"/><text fill="#000000" font-family="sans-serif" font-size="13" lengthAdjust="spacingAndGlyphs" textLength="79" x="235.5" y="468.0669">project_type</text><text fill="#000000" font-family="sans-serif" font-size="13" lengthAdjust="spacingAndGlyphs" textLength="8" x="359.4453" y="536.0215">1</text><!--link Project to Project--><path d="M66.61,291.66 C71.48,278.39 81.44,269.5 96.5,269.5 C115.97,269.5 126.92,284.37 129.35,304.34 " fill="none" id="Project-Project" style="stroke: #A80036; stroke-width: 1.0;"/><polygon fill="#A80036" points="63.65,304.34,68.9102,299.4074,66.3801,292.6547,61.1199,297.5873,63.65,304.34" style="stroke: #A80036; stroke-width: 1.0;"/><text fill="#000000" font-family="sans-serif" font-size="13" lengthAdjust="spacingAndGlyphs" textLength="74" x="59.5" y="260.5669">subprojects</text><text fill="#000000" font-family="sans-serif" font-size="13" lengthAdjust="spacingAndGlyphs" textLength="7" x="124.9491" y="293.4612">*</text><!--link Project to SourceRepository--><path d="M159.23,478.12 C176.29,499.46 195.95,520.9 217,538 C260.69,573.49 318.09,601.22 362.74,619.55 " fill="none" id="Project-SourceRepository" style="stroke: #A80036; stroke-width: 1.0;"/><polygon fill="#A80036" points="151.07,467.67,151.6108,474.8608,158.4564,477.1273,157.9157,469.9365,151.07,467.67" style="stroke: #A80036; stroke-width: 1.0;"/><text fill="#000000" font-family="sans-serif" font-size="13" lengthAdjust="spacingAndGlyphs" textLength="114" x="218" y="534.0669">source_repository</text><text fill="#000000" font-family="sans-serif" font-size="13" lengthAdjust="spacingAndGlyphs" textLength="24" x="331.0645" y="629.9863">0..1</text><!--link Project to Document--><path d="M154.47,293.45 C172.24,270.05 193.44,246.6 217,229 C266.33,192.16 334.16,170.01 380.57,158.19 " fill="none" id="Project-Document" style="stroke: #A80036; stroke-width: 1.0;"/><polygon fill="#A80036" points="146.55,304.18,153.3308,301.7263,153.6738,294.5233,146.893,296.9771,146.55,304.18" style="stroke: #A80036; stroke-width: 1.0;"/><text fill="#000000" font-family="sans-serif" font-size="13" lengthAdjust="spacingAndGlyphs" textLength="65" x="242.5" y="170.0669">document</text><text fill="#000000" font-family="sans-serif" font-size="13" lengthAdjust="spacingAndGlyphs" textLength="24" x="349.0047" y="172.4242">0..1</text><!--link Project to Module--><path d="M199.73,321.68 C205.46,319.49 211.23,317.57 217,316 C382.14,271.19 444.42,249.31 602,316 C641.99,332.92 675.68,368.98 698.59,399.29 " fill="none" id="Project-Module" style="stroke: #A80036; stroke-width: 1.0;"/><polygon fill="#A80036" points="187.3,326.88,194.3789,328.2544,198.3703,322.2487,191.2914,320.8743,187.3,326.88" style="stroke: #A80036; stroke-width: 1.0;"/><text fill="#000000" font-family="sans-serif" font-size="13" lengthAdjust="spacingAndGlyphs" textLength="47" x="410.5" y="269.0669">models</text><text fill="#000000" font-family="sans-serif" font-size="13" lengthAdjust="spacingAndGlyphs" textLength="7" x="686.3995" y="388.3057">*</text><!--link Project to Module--><path d="M200.43,380.27 C303.11,376.69 464.88,376.9 602,403 C626.88,407.74 653.38,416.49 675.85,425.1 " fill="none" id="Project-Module-1" style="stroke: #A80036; stroke-width: 1.0;"/><polygon fill="#A80036" points="187.27,380.76,193.4153,384.5329,199.2616,380.3115,193.1163,376.5385,187.27,380.76" style="stroke: #A80036; stroke-width: 1.0;"/><text fill="#000000" font-family="sans-serif" font-size="13" lengthAdjust="spacingAndGlyphs" textLength="65" x="401.5" y="375.0669">templates</text><text fill="#000000" font-family="sans-serif" font-size="13" lengthAdjust="spacingAndGlyphs" textLength="7" x="660.8345" y="434.9574">*</text><!--link Project to Module--><path d="M200.14,396.53 C249.4,401.56 309.25,407.64 363,413 C473.99,424.07 603.84,436.7 675.82,443.67 " fill="none" id="Project-Module-2" style="stroke: #A80036; stroke-width: 1.0;"/><polygon fill="#A80036" points="187.2,395.21,192.7602,399.8018,199.1373,396.4353,193.5771,391.8436,187.2,395.21" style="stroke: #A80036; stroke-width: 1.0;"/><text fill="#000000" font-family="sans-serif" font-size="13" lengthAdjust="spacingAndGlyphs" textLength="45" x="411.5" y="409.0669">plugins</text><text fill="#000000" font-family="sans-serif" font-size="13" lengthAdjust="spacingAndGlyphs" textLength="7" x="661.1735" y="456.0094">*</text><!--link ProjectType to Module--><path d="M505.3,515.34 C557.5,500 627.7,479.36 675.87,465.2 " fill="none" id="ProjectType-Module" style="stroke: #A80036; stroke-width: 1.0;"/><polygon fill="#A80036" points="492.77,519.02,499.6554,521.1628,504.2815,515.6311,497.3962,513.4884,492.77,519.02" style="stroke: #A80036; stroke-width: 1.0;"/><text fill="#000000" font-family="sans-serif" font-size="13" lengthAdjust="spacingAndGlyphs" textLength="47" x="545" y="483.0669">models</text><text fill="#000000" font-family="sans-serif" font-size="13" lengthAdjust="spacingAndGlyphs" textLength="7" x="660.8572" y="480.4458">*</text><!--link ProjectType to Module--><path d="M505.72,541.52 C535.97,541.83 571.32,539.43 602,530 C628.04,521.99 654,507.32 675.74,492.64 " fill="none" id="ProjectType-Module-1" style="stroke: #A80036; stroke-width: 1.0;"/><polygon fill="#A80036" points="492.65,541.21,498.5561,545.3474,504.6468,541.4868,498.7407,537.3495,492.65,541.21" style="stroke: #A80036; stroke-width: 1.0;"/><text fill="#000000" font-family="sans-serif" font-size="13" lengthAdjust="spacingAndGlyphs" textLength="65" x="536" y="526.0669">templates</text><text fill="#000000" font-family="sans-serif" font-size="13" lengthAdjust="spacingAndGlyphs" textLength="7" x="661.0833" y="511.2537">*</text><!--link ProjectType to Module--><path d="M505.22,564.5 C535.7,572.76 571.35,576.76 602,565 C637.01,551.57 668.48,523.77 691.57,498.75 " fill="none" id="ProjectType-Module-2" style="stroke: #A80036; stroke-width: 1.0;"/><polygon fill="#A80036" points="492.51,560.74,497.1228,566.2828,504.0133,564.1567,499.4006,558.6139,492.51,560.74" style="stroke: #A80036; stroke-width: 1.0;"/><text fill="#000000" font-family="sans-serif" font-size="13" lengthAdjust="spacingAndGlyphs" textLength="45" x="546" y="561.0669">plugins</text><text fill="#000000" font-family="sans-serif" font-size="13" lengthAdjust="spacingAndGlyphs" textLength="7" x="678.3923" y="518.8616">*</text><!--
@startuml
left to right direction


class Document [[/blob/master/doc/entities/Document.md]] {
  [[/blob/master/doc/entities/Document.md#title-string title]]: <color:GRAY>String</color>
  [[/blob/master/doc/entities/Document.md#author-string author]]: <color:GRAY>String?</color>
  [[/blob/master/doc/entities/Document.md#rights-string rights]]: <color:GRAY>String?</color>
  [[/blob/master/doc/entities/Document.md#language-string language]]: <color:GRAY>String</color>
  [[/blob/master/doc/entities/Document.md#abstract-string abstract]]: <color:GRAY>String</color>
}





package laplacian.project.document {
  class Section {
  }
}


Document *- - "*" Section : sections




class Section [[/blob/master/doc/entities/Section.md]] {
  <color:Green><&star></color>[[/blob/master/doc/entities/Section.md#title-string title]]: <color:GRAY>String</color>
  <color:Green><&star></color>[[/blob/master/doc/entities/Section.md#content-string content]]: <color:GRAY>String</color>
  [[/blob/master/doc/entities/Section.md#included_if-string included_if]]: <color:GRAY>String</color>
}






Section *- - "*" Section : sub_sections




class Module [[/blob/master/doc/entities/Module.md]] {
  <color:Green><&star></color>[[/blob/master/doc/entities/Module.md#name-string name]]: <color:GRAY>String</color>
  <color:Green><&star></color>[[/blob/master/doc/entities/Module.md#group-string group]]: <color:GRAY>String</color>
  <color:Green><&star></color>[[/blob/master/doc/entities/Module.md#version-string version]]: <color:GRAY>String</color>
  [[/blob/master/doc/entities/Module.md#artifact_id-string artifactId]](): <color:GRAY>String</color>
}




class Project [[/blob/master/doc/entities/Project.md]] {
  <color:RED><&key></color><color:Green><&star></color>[[/blob/master/doc/entities/Project.md#group-string group]]: <color:GRAY>String</color>
  <color:RED><&key></color><color:Green><&star></color>[[/blob/master/doc/entities/Project.md#name-string name]]: <color:GRAY>String</color>
  [[/blob/master/doc/entities/Project.md#type-string type]]: <color:GRAY>String</color>
  <color:Green><&star></color>[[/blob/master/doc/entities/Project.md#version-string version]]: <color:GRAY>String</color>
  [[/blob/master/doc/entities/Project.md#namespace-string namespace]]: <color:GRAY>String</color>
  [[/blob/master/doc/entities/Project.md#description-string description]]: <color:GRAY>String</color>
  <color:Green><&star></color>[[/blob/master/doc/entities/Project.md#model_files-listString model_files]]: <color:GRAY>List<String></color>
  <color:Green><&star></color>[[/blob/master/doc/entities/Project.md#template_files-listString template_files]]: <color:GRAY>List<String></color>
  [[/blob/master/doc/entities/Project.md#base_dir-string base_dir]]: <color:GRAY>String</color>
}






Project - - "1" ProjectType : project_type






Project *- - "*" Project : subprojects






Project *- - "0..1" SourceRepository : source_repository






Project *- - "0..1" Document : document






Project *- - "*" Module : models






Project *- - "*" Module : templates






Project *- - "*" Module : plugins




class ProjectType [[/blob/master/doc/entities/ProjectType.md]] {
  <color:Green><&star></color>[[/blob/master/doc/entities/ProjectType.md#name-string name]]: <color:GRAY>String</color>
  [[/blob/master/doc/entities/ProjectType.md#description-string description]]: <color:GRAY>String</color>
}






ProjectType *- - "*" Module : models






ProjectType *- - "*" Module : templates






ProjectType *- - "*" Module : plugins




class SourceRepository [[/blob/master/doc/entities/SourceRepository.md]] {
  <color:Green><&star></color>[[/blob/master/doc/entities/SourceRepository.md#url-string url]]: <color:GRAY>String</color>
  [[/blob/master/doc/entities/SourceRepository.md#branch-string branch]]: <color:GRAY>String</color>
}



@enduml

PlantUML version 1.2019.05(Sun Apr 21 01:45:36 JST 2019)
(GPL source distribution)
Java Runtime: OpenJDK Runtime Environment
JVM: OpenJDK 64-Bit Server VM
Java Version: 1.8.0_242-b20
Operating System: Linux
OS Version: 4.19.84-microsoft-standard
Default Encoding: UTF-8
Language: en
Country: 
--></g></svg>