<?xml version="1.0" encoding="UTF-8" standalone="no"?><svg xmlns="http://www.w3.org/2000/svg" xmlns:xlink="http://www.w3.org/1999/xlink" contentScriptType="application/ecmascript" contentStyleType="text/css" height="692px" preserveAspectRatio="none" style="width:860px;height:692px;" version="1.1" viewBox="0 0 860 692" width="860px" zoomAndPan="magnify"><defs><filter height="300%" id="f1v5j7u0iqtk4v" width="300%" x="-1" y="-1"><feGaussianBlur result="blurOut" stdDeviation="2.0"/><feColorMatrix in="blurOut" result="blurOut2" type="matrix" values="0 0 0 0 0 0 0 0 0 0 0 0 0 0 0 0 0 0 .4 0"/><feOffset dx="4.0" dy="4.0" in="blurOut2" result="blurOut3"/><feBlend in="SourceGraphic" in2="blurOut3" mode="normal"/></filter></defs><g><!--cluster laplacian.project.document--><polygon fill="#FFFFFF" filter="url(#f1v5j7u0iqtk4v)" points="609,24,828,24,835,46.2969,838,46.2969,838,206,609,206,609,24" style="stroke: #000000; stroke-width: 1.5;"/><line style="stroke: #000000; stroke-width: 1.5;" x1="609" x2="835" y1="46.2969" y2="46.2969"/><text fill="#000000" font-family="sans-serif" font-size="14" font-weight="bold" lengthAdjust="spacingAndGlyphs" textLength="213" x="613" y="38.9951">laplacian.project.document</text><!--class Section--><a href="/blob/master/doc/entities/Section.md" target="_top" xlink:actuate="onRequest" xlink:show="new" xlink:title="/blob/master/doc/entities/Section.md" xlink:type="simple"><rect fill="#FEFECE" filter="url(#f1v5j7u0iqtk4v)" height="86.4141" id="Section" style="stroke: #A80036; stroke-width: 1.5;" width="114" x="666" y="104"/><ellipse cx="696.75" cy="120" fill="#ADD1B2" rx="11" ry="11" style="stroke: #A80036; stroke-width: 1.0;"/><path d="M699.7188,125.6406 Q699.1406,125.9375 698.5,126.0781 Q697.8594,126.2344 697.1563,126.2344 Q694.6563,126.2344 693.3281,124.5938 Q692.0156,122.9375 692.0156,119.8125 Q692.0156,116.6875 693.3281,115.0313 Q694.6563,113.375 697.1563,113.375 Q697.8594,113.375 698.5,113.5313 Q699.1563,113.6875 699.7188,113.9844 L699.7188,116.7031 Q699.0938,116.125 698.5,115.8594 Q697.9063,115.5781 697.2813,115.5781 Q695.9375,115.5781 695.25,116.6563 Q694.5625,117.7188 694.5625,119.8125 Q694.5625,121.9063 695.25,122.9844 Q695.9375,124.0469 697.2813,124.0469 Q697.9063,124.0469 698.5,123.7813 Q699.0938,123.5 699.7188,122.9219 L699.7188,125.6406 Z "/><text fill="#000000" font-family="sans-serif" font-size="12" lengthAdjust="spacingAndGlyphs" textLength="47" x="714.25" y="124.1543">Section</text><line style="stroke: #A80036; stroke-width: 1.5;" x1="667" x2="779" y1="136" y2="136"/><path d="M676.6667,142.7214 L675.75,145.4714 L673,145.4714 L675.2917,147.3047 L674.375,150.0547 L676.6667,148.2214 L678.9583,150.0547 L678.0417,147.3047 L680.3333,145.4714 L677.5833,145.4714 L676.6667,142.7214 " fill="#008000" style="stroke: ; stroke-width: 0.0; stroke-dasharray: ;"/></a><a href="/blob/master/doc/entities/Section.md#title-string" target="_top" xlink:actuate="onRequest" xlink:show="new" xlink:title="/blob/master/doc/entities/Section.md#title-string" xlink:type="simple"><text fill="#0000FF" font-family="sans-serif" font-size="11" lengthAdjust="spacingAndGlyphs" text-decoration="underline" textLength="21" x="681.3333" y="150.2104">title</text></a><text fill="#000000" font-family="sans-serif" font-size="11" lengthAdjust="spacingAndGlyphs" textLength="4" x="702.3333" y="150.2104">:</text><text fill="#808080" font-family="sans-serif" font-size="11" lengthAdjust="spacingAndGlyphs" textLength="34" x="710.3333" y="150.2104">String</text><path d="M676.6667,155.526 L675.75,158.276 L673,158.276 L675.2917,160.1094 L674.375,162.8594 L676.6667,161.026 L678.9583,162.8594 L678.0417,160.1094 L680.3333,158.276 L677.5833,158.276 L676.6667,155.526 " fill="#008000" style="stroke: ; stroke-width: 0.0; stroke-dasharray: ;"/><a href="/blob/master/doc/entities/Section.md#content-string" target="_top" xlink:actuate="onRequest" xlink:show="new" xlink:title="/blob/master/doc/entities/Section.md#content-string" xlink:type="simple"><text fill="#0000FF" font-family="sans-serif" font-size="11" lengthAdjust="spacingAndGlyphs" text-decoration="underline" textLength="42" x="681.3333" y="163.0151">content</text></a><text fill="#000000" font-family="sans-serif" font-size="11" lengthAdjust="spacingAndGlyphs" textLength="4" x="723.3333" y="163.0151">:</text><text fill="#808080" font-family="sans-serif" font-size="11" lengthAdjust="spacingAndGlyphs" textLength="34" x="731.3333" y="163.0151">String</text><a href="/blob/master/doc/entities/Section.md#included_if-string" target="_top" xlink:actuate="onRequest" xlink:show="new" xlink:title="/blob/master/doc/entities/Section.md#included_if-string" xlink:type="simple"><text fill="#0000FF" font-family="sans-serif" font-size="11" lengthAdjust="spacingAndGlyphs" text-decoration="underline" textLength="60" x="672" y="175.8198">included_if</text></a><text fill="#000000" font-family="sans-serif" font-size="11" lengthAdjust="spacingAndGlyphs" textLength="4" x="732" y="175.8198">:</text><text fill="#808080" font-family="sans-serif" font-size="11" lengthAdjust="spacingAndGlyphs" textLength="34" x="740" y="175.8198">String</text><line style="stroke: #A80036; stroke-width: 1.5;" x1="667" x2="779" y1="182.4141" y2="182.4141"/><!--class Document--><a href="/blob/master/doc/entities/Document.md" target="_top" xlink:actuate="onRequest" xlink:show="new" xlink:title="/blob/master/doc/entities/Document.md" xlink:type="simple"><rect fill="#FEFECE" filter="url(#f1v5j7u0iqtk4v)" height="112.0234" id="Document" style="stroke: #A80036; stroke-width: 1.5;" width="106" x="372" y="91"/><ellipse cx="391.5" cy="107" fill="#ADD1B2" rx="11" ry="11" style="stroke: #A80036; stroke-width: 1.0;"/><path d="M394.4688,112.6406 Q393.8906,112.9375 393.25,113.0781 Q392.6094,113.2344 391.9063,113.2344 Q389.4063,113.2344 388.0781,111.5938 Q386.7656,109.9375 386.7656,106.8125 Q386.7656,103.6875 388.0781,102.0313 Q389.4063,100.375 391.9063,100.375 Q392.6094,100.375 393.25,100.5313 Q393.9063,100.6875 394.4688,100.9844 L394.4688,103.7031 Q393.8438,103.125 393.25,102.8594 Q392.6563,102.5781 392.0313,102.5781 Q390.6875,102.5781 390,103.6563 Q389.3125,104.7188 389.3125,106.8125 Q389.3125,108.9063 390,109.9844 Q390.6875,111.0469 392.0313,111.0469 Q392.6563,111.0469 393.25,110.7813 Q393.8438,110.5 394.4688,109.9219 L394.4688,112.6406 Z "/><text fill="#000000" font-family="sans-serif" font-size="12" lengthAdjust="spacingAndGlyphs" textLength="64" x="406.5" y="111.1543">Document</text><line style="stroke: #A80036; stroke-width: 1.5;" x1="373" x2="477" y1="123" y2="123"/></a><a href="/blob/master/doc/entities/Document.md#title-string" target="_top" xlink:actuate="onRequest" xlink:show="new" xlink:title="/blob/master/doc/entities/Document.md#title-string" xlink:type="simple"><text fill="#0000FF" font-family="sans-serif" font-size="11" lengthAdjust="spacingAndGlyphs" text-decoration="underline" textLength="21" x="378" y="137.2104">title</text></a><text fill="#000000" font-family="sans-serif" font-size="11" lengthAdjust="spacingAndGlyphs" textLength="4" x="399" y="137.2104">:</text><text fill="#808080" font-family="sans-serif" font-size="11" lengthAdjust="spacingAndGlyphs" textLength="34" x="407" y="137.2104">String</text><a href="/blob/master/doc/entities/Document.md#author-string" target="_top" xlink:actuate="onRequest" xlink:show="new" xlink:title="/blob/master/doc/entities/Document.md#author-string" xlink:type="simple"><text fill="#0000FF" font-family="sans-serif" font-size="11" lengthAdjust="spacingAndGlyphs" text-decoration="underline" textLength="37" x="378" y="150.0151">author</text></a><text fill="#000000" font-family="sans-serif" font-size="11" lengthAdjust="spacingAndGlyphs" textLength="4" x="415" y="150.0151">:</text><text fill="#808080" font-family="sans-serif" font-size="11" lengthAdjust="spacingAndGlyphs" textLength="40" x="423" y="150.0151">String?</text><a href="/blob/master/doc/entities/Document.md#rights-string" target="_top" xlink:actuate="onRequest" xlink:show="new" xlink:title="/blob/master/doc/entities/Document.md#rights-string" xlink:type="simple"><text fill="#0000FF" font-family="sans-serif" font-size="11" lengthAdjust="spacingAndGlyphs" text-decoration="underline" textLength="33" x="378" y="162.8198">rights</text></a><text fill="#000000" font-family="sans-serif" font-size="11" lengthAdjust="spacingAndGlyphs" textLength="4" x="411" y="162.8198">:</text><text fill="#808080" font-family="sans-serif" font-size="11" lengthAdjust="spacingAndGlyphs" textLength="40" x="419" y="162.8198">String?</text><a href="/blob/master/doc/entities/Document.md#language-string" target="_top" xlink:actuate="onRequest" xlink:show="new" xlink:title="/blob/master/doc/entities/Document.md#language-string" xlink:type="simple"><text fill="#0000FF" font-family="sans-serif" font-size="11" lengthAdjust="spacingAndGlyphs" text-decoration="underline" textLength="52" x="378" y="175.6245">language</text></a><text fill="#000000" font-family="sans-serif" font-size="11" lengthAdjust="spacingAndGlyphs" textLength="4" x="430" y="175.6245">:</text><text fill="#808080" font-family="sans-serif" font-size="11" lengthAdjust="spacingAndGlyphs" textLength="34" x="438" y="175.6245">String</text><a href="/blob/master/doc/entities/Document.md#abstract-string" target="_top" xlink:actuate="onRequest" xlink:show="new" xlink:title="/blob/master/doc/entities/Document.md#abstract-string" xlink:type="simple"><text fill="#0000FF" font-family="sans-serif" font-size="11" lengthAdjust="spacingAndGlyphs" text-decoration="underline" textLength="47" x="378" y="188.4292">abstract</text></a><text fill="#000000" font-family="sans-serif" font-size="11" lengthAdjust="spacingAndGlyphs" textLength="4" x="425" y="188.4292">:</text><text fill="#808080" font-family="sans-serif" font-size="11" lengthAdjust="spacingAndGlyphs" textLength="34" x="433" y="188.4292">String</text><line style="stroke: #A80036; stroke-width: 1.5;" x1="373" x2="477" y1="195.0234" y2="195.0234"/><!--class Module--><a href="/blob/master/doc/entities/Module.md" target="_top" xlink:actuate="onRequest" xlink:show="new" xlink:title="/blob/master/doc/entities/Module.md" xlink:type="simple"><rect fill="#FEFECE" filter="url(#f1v5j7u0iqtk4v)" height="99.2188" id="Module" style="stroke: #A80036; stroke-width: 1.5;" width="112" x="667" y="399.5"/><ellipse cx="697.75" cy="415.5" fill="#ADD1B2" rx="11" ry="11" style="stroke: #A80036; stroke-width: 1.0;"/><path d="M700.7188,421.1406 Q700.1406,421.4375 699.5,421.5781 Q698.8594,421.7344 698.1563,421.7344 Q695.6563,421.7344 694.3281,420.0938 Q693.0156,418.4375 693.0156,415.3125 Q693.0156,412.1875 694.3281,410.5313 Q695.6563,408.875 698.1563,408.875 Q698.8594,408.875 699.5,409.0313 Q700.1563,409.1875 700.7188,409.4844 L700.7188,412.2031 Q700.0938,411.625 699.5,411.3594 Q698.9063,411.0781 698.2813,411.0781 Q696.9375,411.0781 696.25,412.1563 Q695.5625,413.2188 695.5625,415.3125 Q695.5625,417.4063 696.25,418.4844 Q696.9375,419.5469 698.2813,419.5469 Q698.9063,419.5469 699.5,419.2813 Q700.0938,419 700.7188,418.4219 L700.7188,421.1406 Z "/><text fill="#000000" font-family="sans-serif" font-size="12" lengthAdjust="spacingAndGlyphs" textLength="45" x="715.25" y="419.6543">Module</text><line style="stroke: #A80036; stroke-width: 1.5;" x1="668" x2="778" y1="431.5" y2="431.5"/><path d="M677.6667,438.2214 L676.75,440.9714 L674,440.9714 L676.2917,442.8047 L675.375,445.5547 L677.6667,443.7214 L679.9583,445.5547 L679.0417,442.8047 L681.3333,440.9714 L678.5833,440.9714 L677.6667,438.2214 " fill="#008000" style="stroke: ; stroke-width: 0.0; stroke-dasharray: ;"/></a><a href="/blob/master/doc/entities/Module.md#name-string" target="_top" xlink:actuate="onRequest" xlink:show="new" xlink:title="/blob/master/doc/entities/Module.md#name-string" xlink:type="simple"><text fill="#0000FF" font-family="sans-serif" font-size="11" lengthAdjust="spacingAndGlyphs" text-decoration="underline" textLength="32" x="682.3333" y="445.7104">name</text></a><text fill="#000000" font-family="sans-serif" font-size="11" lengthAdjust="spacingAndGlyphs" textLength="4" x="714.3333" y="445.7104">:</text><text fill="#808080" font-family="sans-serif" font-size="11" lengthAdjust="spacingAndGlyphs" textLength="34" x="722.3333" y="445.7104">String</text><path d="M677.6667,451.026 L676.75,453.776 L674,453.776 L676.2917,455.6094 L675.375,458.3594 L677.6667,456.526 L679.9583,458.3594 L679.0417,455.6094 L681.3333,453.776 L678.5833,453.776 L677.6667,451.026 " fill="#008000" style="stroke: ; stroke-width: 0.0; stroke-dasharray: ;"/><a href="/blob/master/doc/entities/Module.md#group-string" target="_top" xlink:actuate="onRequest" xlink:show="new" xlink:title="/blob/master/doc/entities/Module.md#group-string" xlink:type="simple"><text fill="#0000FF" font-family="sans-serif" font-size="11" lengthAdjust="spacingAndGlyphs" text-decoration="underline" textLength="33" x="682.3333" y="458.5151">group</text></a><text fill="#000000" font-family="sans-serif" font-size="11" lengthAdjust="spacingAndGlyphs" textLength="4" x="715.3333" y="458.5151">:</text><text fill="#808080" font-family="sans-serif" font-size="11" lengthAdjust="spacingAndGlyphs" textLength="34" x="723.3333" y="458.5151">String</text><path d="M677.6667,463.8307 L676.75,466.5807 L674,466.5807 L676.2917,468.4141 L675.375,471.1641 L677.6667,469.3307 L679.9583,471.1641 L679.0417,468.4141 L681.3333,466.5807 L678.5833,466.5807 L677.6667,463.8307 " fill="#008000" style="stroke: ; stroke-width: 0.0; stroke-dasharray: ;"/><a href="/blob/master/doc/entities/Module.md#version-string" target="_top" xlink:actuate="onRequest" xlink:show="new" xlink:title="/blob/master/doc/entities/Module.md#version-string" xlink:type="simple"><text fill="#0000FF" font-family="sans-serif" font-size="11" lengthAdjust="spacingAndGlyphs" text-decoration="underline" textLength="42" x="682.3333" y="471.3198">version</text></a><text fill="#000000" font-family="sans-serif" font-size="11" lengthAdjust="spacingAndGlyphs" textLength="4" x="724.3333" y="471.3198">:</text><text fill="#808080" font-family="sans-serif" font-size="11" lengthAdjust="spacingAndGlyphs" textLength="34" x="732.3333" y="471.3198">String</text><line style="stroke: #A80036; stroke-width: 1.5;" x1="668" x2="778" y1="477.9141" y2="477.9141"/><a href="/blob/master/doc/entities/Module.md#artifact_id-string" target="_top" xlink:actuate="onRequest" xlink:show="new" xlink:title="/blob/master/doc/entities/Module.md#artifact_id-string" xlink:type="simple"><text fill="#0000FF" font-family="sans-serif" font-size="11" lengthAdjust="spacingAndGlyphs" text-decoration="underline" textLength="50" x="673" y="492.1245">artifactId</text></a><text fill="#000000" font-family="sans-serif" font-size="11" lengthAdjust="spacingAndGlyphs" textLength="12" x="723" y="492.1245">():</text><text fill="#808080" font-family="sans-serif" font-size="11" lengthAdjust="spacingAndGlyphs" textLength="34" x="739" y="492.1245">String</text><!--class Project--><a href="/blob/master/doc/entities/Project.md" target="_top" xlink:actuate="onRequest" xlink:show="new" xlink:title="/blob/master/doc/entities/Project.md" xlink:type="simple"><rect fill="#FEFECE" filter="url(#f1v5j7u0iqtk4v)" height="163.2422" id="Project" style="stroke: #A80036; stroke-width: 1.5;" width="172" x="6" y="304.5"/><ellipse cx="65.75" cy="320.5" fill="#ADD1B2" rx="11" ry="11" style="stroke: #A80036; stroke-width: 1.0;"/><path d="M68.7188,326.1406 Q68.1406,326.4375 67.5,326.5781 Q66.8594,326.7344 66.1563,326.7344 Q63.6563,326.7344 62.3281,325.0938 Q61.0156,323.4375 61.0156,320.3125 Q61.0156,317.1875 62.3281,315.5313 Q63.6563,313.875 66.1563,313.875 Q66.8594,313.875 67.5,314.0313 Q68.1563,314.1875 68.7188,314.4844 L68.7188,317.2031 Q68.0938,316.625 67.5,316.3594 Q66.9063,316.0781 66.2813,316.0781 Q64.9375,316.0781 64.25,317.1563 Q63.5625,318.2188 63.5625,320.3125 Q63.5625,322.4063 64.25,323.4844 Q64.9375,324.5469 66.2813,324.5469 Q66.9063,324.5469 67.5,324.2813 Q68.0938,324 68.7188,323.4219 L68.7188,326.1406 Z "/><text fill="#000000" font-family="sans-serif" font-size="12" lengthAdjust="spacingAndGlyphs" textLength="44" x="86.25" y="324.6543">Project</text><line style="stroke: #A80036; stroke-width: 1.5;" x1="7" x2="177" y1="336.5" y2="336.5"/><path d="M18.0417,343.2214 C16.7767,343.2214 15.75,344.248 15.75,345.513 C15.75,345.6597 15.7802,345.7853 15.8078,345.9145 L13,348.7223 L13,350.5556 L15.75,350.5556 L15.75,348.7223 L17.5833,348.7223 L17.5833,347.8056 L17.6411,347.7479 C17.7694,347.7754 17.895,347.8056 18.0426,347.8056 C19.3076,347.8056 20.3342,346.7789 20.3342,345.5139 C20.3342,344.2489 19.3076,343.2223 18.0426,343.2223 M18.5009,344.1389 C19.0051,344.1389 19.4176,344.5514 19.4176,345.0556 C19.4176,345.5598 19.0051,345.9723 18.5009,345.9723 C17.9968,345.9723 17.5843,345.5598 17.5843,345.0556 C17.5843,344.5514 17.9968,344.1389 18.5009,344.1389 " fill="#FF0000" style="stroke: ; stroke-width: 0.0; stroke-dasharray: ;"/><path d="M26,343.2214 L25.0833,345.9714 L22.3333,345.9714 L24.625,347.8047 L23.7083,350.5547 L26,348.7214 L28.2917,350.5547 L27.375,347.8047 L29.6667,345.9714 L26.9167,345.9714 L26,343.2214 " fill="#008000" style="stroke: ; stroke-width: 0.0; stroke-dasharray: ;"/></a><a href="/blob/master/doc/entities/Project.md#group-string" target="_top" xlink:actuate="onRequest" xlink:show="new" xlink:title="/blob/master/doc/entities/Project.md#group-string" xlink:type="simple"><text fill="#0000FF" font-family="sans-serif" font-size="11" lengthAdjust="spacingAndGlyphs" text-decoration="underline" textLength="33" x="30.6667" y="350.7104">group</text></a><text fill="#000000" font-family="sans-serif" font-size="11" lengthAdjust="spacingAndGlyphs" textLength="4" x="63.6667" y="350.7104">:</text><text fill="#808080" font-family="sans-serif" font-size="11" lengthAdjust="spacingAndGlyphs" textLength="34" x="71.6667" y="350.7104">String</text><path d="M18.0417,356.026 C16.7767,356.026 15.75,357.0527 15.75,358.3177 C15.75,358.4644 15.7802,358.59 15.8078,358.7192 L13,361.527 L13,363.3603 L15.75,363.3603 L15.75,361.527 L17.5833,361.527 L17.5833,360.6103 L17.6411,360.5525 C17.7694,360.58 17.895,360.6103 18.0426,360.6103 C19.3076,360.6103 20.3342,359.5836 20.3342,358.3186 C20.3342,357.0536 19.3076,356.027 18.0426,356.027 M18.5009,356.9436 C19.0051,356.9436 19.4176,357.3561 19.4176,357.8603 C19.4176,358.3645 19.0051,358.777 18.5009,358.777 C17.9968,358.777 17.5843,358.3645 17.5843,357.8603 C17.5843,357.3561 17.9968,356.9436 18.5009,356.9436 " fill="#FF0000" style="stroke: ; stroke-width: 0.0; stroke-dasharray: ;"/><path d="M26,356.026 L25.0833,358.776 L22.3333,358.776 L24.625,360.6094 L23.7083,363.3594 L26,361.526 L28.2917,363.3594 L27.375,360.6094 L29.6667,358.776 L26.9167,358.776 L26,356.026 " fill="#008000" style="stroke: ; stroke-width: 0.0; stroke-dasharray: ;"/><a href="/blob/master/doc/entities/Project.md#name-string" target="_top" xlink:actuate="onRequest" xlink:show="new" xlink:title="/blob/master/doc/entities/Project.md#name-string" xlink:type="simple"><text fill="#0000FF" font-family="sans-serif" font-size="11" lengthAdjust="spacingAndGlyphs" text-decoration="underline" textLength="32" x="30.6667" y="363.5151">name</text></a><text fill="#000000" font-family="sans-serif" font-size="11" lengthAdjust="spacingAndGlyphs" textLength="4" x="62.6667" y="363.5151">:</text><text fill="#808080" font-family="sans-serif" font-size="11" lengthAdjust="spacingAndGlyphs" textLength="34" x="70.6667" y="363.5151">String</text><a href="/blob/master/doc/entities/Project.md#type-string" target="_top" xlink:actuate="onRequest" xlink:show="new" xlink:title="/blob/master/doc/entities/Project.md#type-string" xlink:type="simple"><text fill="#0000FF" font-family="sans-serif" font-size="11" lengthAdjust="spacingAndGlyphs" text-decoration="underline" textLength="24" x="12" y="376.3198">type</text></a><text fill="#000000" font-family="sans-serif" font-size="11" lengthAdjust="spacingAndGlyphs" textLength="4" x="36" y="376.3198">:</text><text fill="#808080" font-family="sans-serif" font-size="11" lengthAdjust="spacingAndGlyphs" textLength="34" x="44" y="376.3198">String</text><path d="M16.6667,381.6354 L15.75,384.3854 L13,384.3854 L15.2917,386.2188 L14.375,388.9688 L16.6667,387.1354 L18.9583,388.9688 L18.0417,386.2188 L20.3333,384.3854 L17.5833,384.3854 L16.6667,381.6354 " fill="#008000" style="stroke: ; stroke-width: 0.0; stroke-dasharray: ;"/><a href="/blob/master/doc/entities/Project.md#version-string" target="_top" xlink:actuate="onRequest" xlink:show="new" xlink:title="/blob/master/doc/entities/Project.md#version-string" xlink:type="simple"><text fill="#0000FF" font-family="sans-serif" font-size="11" lengthAdjust="spacingAndGlyphs" text-decoration="underline" textLength="42" x="21.3333" y="389.1245">version</text></a><text fill="#000000" font-family="sans-serif" font-size="11" lengthAdjust="spacingAndGlyphs" textLength="4" x="63.3333" y="389.1245">:</text><text fill="#808080" font-family="sans-serif" font-size="11" lengthAdjust="spacingAndGlyphs" textLength="34" x="71.3333" y="389.1245">String</text><a href="/blob/master/doc/entities/Project.md#namespace-string" target="_top" xlink:actuate="onRequest" xlink:show="new" xlink:title="/blob/master/doc/entities/Project.md#namespace-string" xlink:type="simple"><text fill="#0000FF" font-family="sans-serif" font-size="11" lengthAdjust="spacingAndGlyphs" text-decoration="underline" textLength="66" x="12" y="401.9292">namespace</text></a><text fill="#000000" font-family="sans-serif" font-size="11" lengthAdjust="spacingAndGlyphs" textLength="4" x="78" y="401.9292">:</text><text fill="#808080" font-family="sans-serif" font-size="11" lengthAdjust="spacingAndGlyphs" textLength="34" x="86" y="401.9292">String</text><a href="/blob/master/doc/entities/Project.md#description-string" target="_top" xlink:actuate="onRequest" xlink:show="new" xlink:title="/blob/master/doc/entities/Project.md#description-string" xlink:type="simple"><text fill="#0000FF" font-family="sans-serif" font-size="11" lengthAdjust="spacingAndGlyphs" text-decoration="underline" textLength="63" x="12" y="414.7339">description</text></a><text fill="#000000" font-family="sans-serif" font-size="11" lengthAdjust="spacingAndGlyphs" textLength="4" x="75" y="414.7339">:</text><text fill="#808080" font-family="sans-serif" font-size="11" lengthAdjust="spacingAndGlyphs" textLength="34" x="83" y="414.7339">String</text><a href="/blob/master/doc/entities/Project.md#model_files-listString" target="_top" xlink:actuate="onRequest" xlink:show="new" xlink:title="/blob/master/doc/entities/Project.md#model_files-listString" xlink:type="simple"><text fill="#0000FF" font-family="sans-serif" font-size="11" lengthAdjust="spacingAndGlyphs" text-decoration="underline" textLength="65" x="12" y="427.5386">model_files</text></a><text fill="#000000" font-family="sans-serif" font-size="11" lengthAdjust="spacingAndGlyphs" textLength="4" x="77" y="427.5386">:</text><text fill="#808080" font-family="sans-serif" font-size="11" lengthAdjust="spacingAndGlyphs" textLength="72" x="85" y="427.5386">List&lt;String&gt;</text><a href="/blob/master/doc/entities/Project.md#template_files-listString" target="_top" xlink:actuate="onRequest" xlink:show="new" xlink:title="/blob/master/doc/entities/Project.md#template_files-listString" xlink:type="simple"><text fill="#0000FF" font-family="sans-serif" font-size="11" lengthAdjust="spacingAndGlyphs" text-decoration="underline" textLength="80" x="12" y="440.3433">template_files</text></a><text fill="#000000" font-family="sans-serif" font-size="11" lengthAdjust="spacingAndGlyphs" textLength="4" x="92" y="440.3433">:</text><text fill="#808080" font-family="sans-serif" font-size="11" lengthAdjust="spacingAndGlyphs" textLength="72" x="100" y="440.3433">List&lt;String&gt;</text><a href="/blob/master/doc/entities/Project.md#base_dir-string" target="_top" xlink:actuate="onRequest" xlink:show="new" xlink:title="/blob/master/doc/entities/Project.md#base_dir-string" xlink:type="simple"><text fill="#0000FF" font-family="sans-serif" font-size="11" lengthAdjust="spacingAndGlyphs" text-decoration="underline" textLength="49" x="12" y="453.1479">base_dir</text></a><text fill="#000000" font-family="sans-serif" font-size="11" lengthAdjust="spacingAndGlyphs" textLength="4" x="61" y="453.1479">:</text><text fill="#808080" font-family="sans-serif" font-size="11" lengthAdjust="spacingAndGlyphs" textLength="34" x="69" y="453.1479">String</text><line style="stroke: #A80036; stroke-width: 1.5;" x1="7" x2="177" y1="459.7422" y2="459.7422"/><!--class ProjectType--><a href="/blob/master/doc/entities/ProjectType.md" target="_top" xlink:actuate="onRequest" xlink:show="new" xlink:title="/blob/master/doc/entities/ProjectType.md" xlink:type="simple"><rect fill="#FEFECE" filter="url(#f1v5j7u0iqtk4v)" height="73.6094" id="ProjectType" style="stroke: #A80036; stroke-width: 1.5;" width="117" x="366.5" y="499"/><ellipse cx="386.9" cy="515" fill="#ADD1B2" rx="11" ry="11" style="stroke: #A80036; stroke-width: 1.0;"/><path d="M389.8688,520.6406 Q389.2906,520.9375 388.65,521.0781 Q388.0094,521.2344 387.3063,521.2344 Q384.8063,521.2344 383.4781,519.5938 Q382.1656,517.9375 382.1656,514.8125 Q382.1656,511.6875 383.4781,510.0313 Q384.8063,508.375 387.3063,508.375 Q388.0094,508.375 388.65,508.5313 Q389.3063,508.6875 389.8688,508.9844 L389.8688,511.7031 Q389.2438,511.125 388.65,510.8594 Q388.0563,510.5781 387.4313,510.5781 Q386.0875,510.5781 385.4,511.6563 Q384.7125,512.7188 384.7125,514.8125 Q384.7125,516.9063 385.4,517.9844 Q386.0875,519.0469 387.4313,519.0469 Q388.0563,519.0469 388.65,518.7813 Q389.2438,518.5 389.8688,517.9219 L389.8688,520.6406 Z "/><text fill="#000000" font-family="sans-serif" font-size="12" lengthAdjust="spacingAndGlyphs" textLength="73" x="402.1" y="519.1543">ProjectType</text><line style="stroke: #A80036; stroke-width: 1.5;" x1="367.5" x2="482.5" y1="531" y2="531"/><path d="M377.1667,537.7214 L376.25,540.4714 L373.5,540.4714 L375.7917,542.3047 L374.875,545.0547 L377.1667,543.2214 L379.4583,545.0547 L378.5417,542.3047 L380.8333,540.4714 L378.0833,540.4714 L377.1667,537.7214 " fill="#008000" style="stroke: ; stroke-width: 0.0; stroke-dasharray: ;"/></a><a href="/blob/master/doc/entities/ProjectType.md#name-string" target="_top" xlink:actuate="onRequest" xlink:show="new" xlink:title="/blob/master/doc/entities/ProjectType.md#name-string" xlink:type="simple"><text fill="#0000FF" font-family="sans-serif" font-size="11" lengthAdjust="spacingAndGlyphs" text-decoration="underline" textLength="32" x="381.8333" y="545.2104">name</text></a><text fill="#000000" font-family="sans-serif" font-size="11" lengthAdjust="spacingAndGlyphs" textLength="4" x="413.8333" y="545.2104">:</text><text fill="#808080" font-family="sans-serif" font-size="11" lengthAdjust="spacingAndGlyphs" textLength="34" x="421.8333" y="545.2104">String</text><a href="/blob/master/doc/entities/ProjectType.md#description-string" target="_top" xlink:actuate="onRequest" xlink:show="new" xlink:title="/blob/master/doc/entities/ProjectType.md#description-string" xlink:type="simple"><text fill="#0000FF" font-family="sans-serif" font-size="11" lengthAdjust="spacingAndGlyphs" text-decoration="underline" textLength="63" x="372.5" y="558.0151">description</text></a><text fill="#000000" font-family="sans-serif" font-size="11" lengthAdjust="spacingAndGlyphs" textLength="4" x="435.5" y="558.0151">:</text><text fill="#808080" font-family="sans-serif" font-size="11" lengthAdjust="spacingAndGlyphs" textLength="34" x="443.5" y="558.0151">String</text><line style="stroke: #A80036; stroke-width: 1.5;" x1="367.5" x2="482.5" y1="564.6094" y2="564.6094"/><!--class SourceRepository--><a href="/blob/master/doc/entities/SourceRepository.md" target="_top" xlink:actuate="onRequest" xlink:show="new" xlink:title="/blob/master/doc/entities/SourceRepository.md" xlink:type="simple"><rect fill="#FEFECE" filter="url(#f1v5j7u0iqtk4v)" height="73.6094" id="SourceRepository" style="stroke: #A80036; stroke-width: 1.5;" width="142" x="354" y="608"/><ellipse cx="369" cy="624" fill="#ADD1B2" rx="11" ry="11" style="stroke: #A80036; stroke-width: 1.0;"/><path d="M371.9688,629.6406 Q371.3906,629.9375 370.75,630.0781 Q370.1094,630.2344 369.4063,630.2344 Q366.9063,630.2344 365.5781,628.5938 Q364.2656,626.9375 364.2656,623.8125 Q364.2656,620.6875 365.5781,619.0313 Q366.9063,617.375 369.4063,617.375 Q370.1094,617.375 370.75,617.5313 Q371.4063,617.6875 371.9688,617.9844 L371.9688,620.7031 Q371.3438,620.125 370.75,619.8594 Q370.1563,619.5781 369.5313,619.5781 Q368.1875,619.5781 367.5,620.6563 Q366.8125,621.7188 366.8125,623.8125 Q366.8125,625.9063 367.5,626.9844 Q368.1875,628.0469 369.5313,628.0469 Q370.1563,628.0469 370.75,627.7813 Q371.3438,627.5 371.9688,626.9219 L371.9688,629.6406 Z "/><text fill="#000000" font-family="sans-serif" font-size="12" lengthAdjust="spacingAndGlyphs" textLength="110" x="383" y="628.1543">SourceRepository</text><line style="stroke: #A80036; stroke-width: 1.5;" x1="355" x2="495" y1="640" y2="640"/><path d="M364.6667,646.7214 L363.75,649.4714 L361,649.4714 L363.2917,651.3047 L362.375,654.0547 L364.6667,652.2214 L366.9583,654.0547 L366.0417,651.3047 L368.3333,649.4714 L365.5833,649.4714 L364.6667,646.7214 " fill="#008000" style="stroke: ; stroke-width: 0.0; stroke-dasharray: ;"/></a><a href="/blob/master/doc/entities/SourceRepository.md#url-string" target="_top" xlink:actuate="onRequest" xlink:show="new" xlink:title="/blob/master/doc/entities/SourceRepository.md#url-string" xlink:type="simple"><text fill="#0000FF" font-family="sans-serif" font-size="11" lengthAdjust="spacingAndGlyphs" text-decoration="underline" textLength="15" x="369.3333" y="654.2104">url</text></a><text fill="#000000" font-family="sans-serif" font-size="11" lengthAdjust="spacingAndGlyphs" textLength="4" x="384.3333" y="654.2104">:</text><text fill="#808080" font-family="sans-serif" font-size="11" lengthAdjust="spacingAndGlyphs" textLength="34" x="392.3333" y="654.2104">String</text><a href="/blob/master/doc/entities/SourceRepository.md#branch-string" target="_top" xlink:actuate="onRequest" xlink:show="new" xlink:title="/blob/master/doc/entities/SourceRepository.md#branch-string" xlink:type="simple"><text fill="#0000FF" font-family="sans-serif" font-size="11" lengthAdjust="spacingAndGlyphs" text-decoration="underline" textLength="39" x="360" y="667.0151">branch</text></a><text fill="#000000" font-family="sans-serif" font-size="11" lengthAdjust="spacingAndGlyphs" textLength="4" x="399" y="667.0151">:</text><text fill="#808080" font-family="sans-serif" font-size="11" lengthAdjust="spacingAndGlyphs" textLength="34" x="407" y="667.0151">String</text><line style="stroke: #A80036; stroke-width: 1.5;" x1="355" x2="495" y1="673.6094" y2="673.6094"/><!--link Document to Section--><path d="M491.39,147 C543.63,147 616.08,147 665.75,147 " fill="none" id="Document-Section" style="stroke: #A80036; stroke-width: 1.0;"/><polygon fill="#A80036" points="478.24,147,484.24,151,490.24,147,484.24,143,478.24,147" style="stroke: #A80036; stroke-width: 1.0;"/><text fill="#000000" font-family="sans-serif" font-size="13" lengthAdjust="spacingAndGlyphs" textLength="53" x="533" y="143.0669">sections</text><text fill="#000000" font-family="sans-serif" font-size="13" lengthAdjust="spacingAndGlyphs" textLength="7" x="650.9664" y="160.0098">*</text><!--link Section to Section--><path d="M693.48,90.38 C696.31,78 706.15,69 723,69 C745.46,69 755.47,85 753.01,103.69 " fill="none" id="Section-Section" style="stroke: #A80036; stroke-width: 1.0;"/><polygon fill="#A80036" points="692.99,103.69,697.2048,97.8389,693.4249,91.6979,689.2101,97.549,692.99,103.69" style="stroke: #A80036; stroke-width: 1.0;"/><text fill="#000000" font-family="sans-serif" font-size="13" lengthAdjust="spacingAndGlyphs" textLength="83" x="681.5" y="60.0669">sub_sections</text><text fill="#000000" font-family="sans-serif" font-size="13" lengthAdjust="spacingAndGlyphs" textLength="7" x="750.0693" y="92.9551">*</text><!--link Project to ProjectType--><path d="M178.15,454.71 C187.92,461.05 197.97,466.97 208,472 C258.86,497.52 321.68,514.71 366.44,524.79 " fill="none" id="Project-ProjectType" style="stroke: #A80036; stroke-width: 1.0;"/><text fill="#000000" font-family="sans-serif" font-size="13" lengthAdjust="spacingAndGlyphs" textLength="79" x="226.5" y="468.0669">project_type</text><text fill="#000000" font-family="sans-serif" font-size="13" lengthAdjust="spacingAndGlyphs" textLength="8" x="350.4245" y="536.4151">1</text><!--link Project to Project--><path d="M62.78,291.66 C67.54,278.39 77.28,269.5 92,269.5 C111.03,269.5 121.74,284.37 124.12,304.34 " fill="none" id="Project-Project" style="stroke: #A80036; stroke-width: 1.0;"/><polygon fill="#A80036" points="59.88,304.34,65.1177,299.3836,62.5571,292.6424,57.3194,297.5988,59.88,304.34" style="stroke: #A80036; stroke-width: 1.0;"/><text fill="#000000" font-family="sans-serif" font-size="13" lengthAdjust="spacingAndGlyphs" textLength="74" x="55" y="260.5669">subprojects</text><text fill="#000000" font-family="sans-serif" font-size="13" lengthAdjust="spacingAndGlyphs" textLength="7" x="119.669" y="293.4612">*</text><!--link Project to SourceRepository--><path d="M151.94,478.19 C168.36,499.53 187.41,520.95 208,538 C251.36,573.89 308.78,601.61 353.52,619.83 " fill="none" id="Project-SourceRepository" style="stroke: #A80036; stroke-width: 1.0;"/><polygon fill="#A80036" points="144.09,467.74,144.5011,474.9394,151.3048,477.3289,150.8937,470.1295,144.09,467.74" style="stroke: #A80036; stroke-width: 1.0;"/><text fill="#000000" font-family="sans-serif" font-size="13" lengthAdjust="spacingAndGlyphs" textLength="114" x="209" y="534.0669">source_repository</text><text fill="#000000" font-family="sans-serif" font-size="13" lengthAdjust="spacingAndGlyphs" textLength="24" x="322.0851" y="630.3465">0..1</text><!--link Project to Document--><path d="M147.29,293.41 C164.39,270.01 184.92,246.57 208,229 C257.15,191.58 325.33,169.51 371.86,157.86 " fill="none" id="Project-Document" style="stroke: #A80036; stroke-width: 1.0;"/><polygon fill="#A80036" points="139.68,304.14,146.4132,301.5584,146.6199,294.3503,139.8867,296.9319,139.68,304.14" style="stroke: #A80036; stroke-width: 1.0;"/><text fill="#000000" font-family="sans-serif" font-size="13" lengthAdjust="spacingAndGlyphs" textLength="65" x="233.5" y="170.0669">document</text><text fill="#000000" font-family="sans-serif" font-size="13" lengthAdjust="spacingAndGlyphs" textLength="24" x="339.9211" y="172.1712">0..1</text><!--link Project to Module--><path d="M190.23,322.11 C196.11,319.74 202.05,317.67 208,316 C372.76,269.8 435.42,249.31 593,316 C632.99,332.92 666.68,368.98 689.59,399.29 " fill="none" id="Project-Module" style="stroke: #A80036; stroke-width: 1.0;"/><polygon fill="#A80036" points="178.28,327.36,185.3816,328.6117,189.2684,322.5377,182.1668,321.2861,178.28,327.36" style="stroke: #A80036; stroke-width: 1.0;"/><text fill="#000000" font-family="sans-serif" font-size="13" lengthAdjust="spacingAndGlyphs" textLength="47" x="401.5" y="269.0669">models</text><text fill="#000000" font-family="sans-serif" font-size="13" lengthAdjust="spacingAndGlyphs" textLength="7" x="677.3995" y="388.3057">*</text><!--link Project to Module--><path d="M191.36,380.49 C292.91,376.85 455.48,376.8 593,403 C617.88,407.74 644.38,416.5 666.85,425.11 " fill="none" id="Project-Module-1" style="stroke: #A80036; stroke-width: 1.0;"/><polygon fill="#A80036" points="178.37,380.98,184.5195,384.7462,190.3611,380.5183,184.2117,376.7521,178.37,380.98" style="stroke: #A80036; stroke-width: 1.0;"/><text fill="#000000" font-family="sans-serif" font-size="13" lengthAdjust="spacingAndGlyphs" textLength="65" x="392.5" y="375.0669">templates</text><text fill="#000000" font-family="sans-serif" font-size="13" lengthAdjust="spacingAndGlyphs" textLength="7" x="651.8345" y="434.9687">*</text><!--link Project to Module--><path d="M191.36,396.31 C240.25,401.4 300.23,407.59 354,413 C464.98,424.17 594.83,436.76 666.81,443.7 " fill="none" id="Project-Module-2" style="stroke: #A80036; stroke-width: 1.0;"/><polygon fill="#A80036" points="178.21,394.94,183.7646,399.5385,190.1458,396.1797,184.5911,391.5813,178.21,394.94" style="stroke: #A80036; stroke-width: 1.0;"/><text fill="#000000" font-family="sans-serif" font-size="13" lengthAdjust="spacingAndGlyphs" textLength="45" x="402.5" y="409.0669">plugins</text><text fill="#000000" font-family="sans-serif" font-size="13" lengthAdjust="spacingAndGlyphs" textLength="7" x="652.1622" y="456.0433">*</text><!--link ProjectType to Module--><path d="M496.3,515.34 C548.5,500 618.7,479.36 666.87,465.2 " fill="none" id="ProjectType-Module" style="stroke: #A80036; stroke-width: 1.0;"/><polygon fill="#A80036" points="483.77,519.02,490.6554,521.1628,495.2815,515.6311,488.3962,513.4884,483.77,519.02" style="stroke: #A80036; stroke-width: 1.0;"/><text fill="#000000" font-family="sans-serif" font-size="13" lengthAdjust="spacingAndGlyphs" textLength="47" x="536" y="483.0669">models</text><text fill="#000000" font-family="sans-serif" font-size="13" lengthAdjust="spacingAndGlyphs" textLength="7" x="651.8572" y="480.4458">*</text><!--link ProjectType to Module--><path d="M496.72,541.52 C526.97,541.83 562.32,539.43 593,530 C619.04,521.99 645,507.32 666.74,492.64 " fill="none" id="ProjectType-Module-1" style="stroke: #A80036; stroke-width: 1.0;"/><polygon fill="#A80036" points="483.65,541.21,489.5561,545.3474,495.6468,541.4868,489.7407,537.3495,483.65,541.21" style="stroke: #A80036; stroke-width: 1.0;"/><text fill="#000000" font-family="sans-serif" font-size="13" lengthAdjust="spacingAndGlyphs" textLength="65" x="527" y="526.0669">templates</text><text fill="#000000" font-family="sans-serif" font-size="13" lengthAdjust="spacingAndGlyphs" textLength="7" x="652.0833" y="511.2537">*</text><!--link ProjectType to Module--><path d="M496.22,564.5 C526.7,572.76 562.35,576.76 593,565 C628.01,551.57 659.48,523.77 682.57,498.75 " fill="none" id="ProjectType-Module-2" style="stroke: #A80036; stroke-width: 1.0;"/><polygon fill="#A80036" points="483.51,560.74,488.1228,566.2828,495.0133,564.1567,490.4006,558.6139,483.51,560.74" style="stroke: #A80036; stroke-width: 1.0;"/><text fill="#000000" font-family="sans-serif" font-size="13" lengthAdjust="spacingAndGlyphs" textLength="45" x="537" y="561.0669">plugins</text><text fill="#000000" font-family="sans-serif" font-size="13" lengthAdjust="spacingAndGlyphs" textLength="7" x="669.3923" y="518.8616">*</text><!--
@startuml
left to right direction


class Document [[/blob/master/doc/entities/Document.md]] {
  [[/blob/master/doc/entities/Document.md#title-string title]]: <color:GRAY>String</color>
  [[/blob/master/doc/entities/Document.md#author-string author]]: <color:GRAY>String?</color>
  [[/blob/master/doc/entities/Document.md#rights-string rights]]: <color:GRAY>String?</color>
  [[/blob/master/doc/entities/Document.md#language-string language]]: <color:GRAY>String</color>
  [[/blob/master/doc/entities/Document.md#abstract-string abstract]]: <color:GRAY>String</color>
}





package laplacian.project.document {
  class Section {
  }
}


Document *- - "*" Section : sections




class Section [[/blob/master/doc/entities/Section.md]] {
  <color:Green><&star></color>[[/blob/master/doc/entities/Section.md#title-string title]]: <color:GRAY>String</color>
  <color:Green><&star></color>[[/blob/master/doc/entities/Section.md#content-string content]]: <color:GRAY>String</color>
  [[/blob/master/doc/entities/Section.md#included_if-string included_if]]: <color:GRAY>String</color>
}






Section *- - "*" Section : sub_sections




class Module [[/blob/master/doc/entities/Module.md]] {
  <color:Green><&star></color>[[/blob/master/doc/entities/Module.md#name-string name]]: <color:GRAY>String</color>
  <color:Green><&star></color>[[/blob/master/doc/entities/Module.md#group-string group]]: <color:GRAY>String</color>
  <color:Green><&star></color>[[/blob/master/doc/entities/Module.md#version-string version]]: <color:GRAY>String</color>
  [[/blob/master/doc/entities/Module.md#artifact_id-string artifactId]](): <color:GRAY>String</color>
}




class Project [[/blob/master/doc/entities/Project.md]] {
  <color:RED><&key></color><color:Green><&star></color>[[/blob/master/doc/entities/Project.md#group-string group]]: <color:GRAY>String</color>
  <color:RED><&key></color><color:Green><&star></color>[[/blob/master/doc/entities/Project.md#name-string name]]: <color:GRAY>String</color>
  [[/blob/master/doc/entities/Project.md#type-string type]]: <color:GRAY>String</color>
  <color:Green><&star></color>[[/blob/master/doc/entities/Project.md#version-string version]]: <color:GRAY>String</color>
  [[/blob/master/doc/entities/Project.md#namespace-string namespace]]: <color:GRAY>String</color>
  [[/blob/master/doc/entities/Project.md#description-string description]]: <color:GRAY>String</color>
  [[/blob/master/doc/entities/Project.md#model_files-listString model_files]]: <color:GRAY>List<String></color>
  [[/blob/master/doc/entities/Project.md#template_files-listString template_files]]: <color:GRAY>List<String></color>
  [[/blob/master/doc/entities/Project.md#base_dir-string base_dir]]: <color:GRAY>String</color>
}






Project - - "1" ProjectType : project_type






Project *- - "*" Project : subprojects






Project *- - "0..1" SourceRepository : source_repository






Project *- - "0..1" Document : document






Project *- - "*" Module : models






Project *- - "*" Module : templates






Project *- - "*" Module : plugins




class ProjectType [[/blob/master/doc/entities/ProjectType.md]] {
  <color:Green><&star></color>[[/blob/master/doc/entities/ProjectType.md#name-string name]]: <color:GRAY>String</color>
  [[/blob/master/doc/entities/ProjectType.md#description-string description]]: <color:GRAY>String</color>
}






ProjectType *- - "*" Module : models






ProjectType *- - "*" Module : templates






ProjectType *- - "*" Module : plugins




class SourceRepository [[/blob/master/doc/entities/SourceRepository.md]] {
  <color:Green><&star></color>[[/blob/master/doc/entities/SourceRepository.md#url-string url]]: <color:GRAY>String</color>
  [[/blob/master/doc/entities/SourceRepository.md#branch-string branch]]: <color:GRAY>String</color>
}



@enduml

PlantUML version 1.2019.05(Sun Apr 21 01:45:36 JST 2019)
(GPL source distribution)
Java Runtime: OpenJDK Runtime Environment
JVM: OpenJDK 64-Bit Server VM
Java Version: 1.8.0_242-b20
Operating System: Linux
OS Version: 4.19.84-microsoft-standard
Default Encoding: UTF-8
Language: en
Country: 
--></g></svg>