<?xml version="1.0" encoding="UTF-8" standalone="no"?><svg xmlns="http://www.w3.org/2000/svg" xmlns:xlink="http://www.w3.org/1999/xlink" contentScriptType="application/ecmascript" contentStyleType="text/css" height="275px" preserveAspectRatio="none" style="width:455px;height:275px;" version="1.1" viewBox="0 0 455 275" width="455px" zoomAndPan="magnify"><defs><filter height="300%" id="f1cuzsksccrl39" width="300%" x="-1" y="-1"><feGaussianBlur result="blurOut" stdDeviation="2.0"/><feColorMatrix in="blurOut" result="blurOut2" type="matrix" values="0 0 0 0 0 0 0 0 0 0 0 0 0 0 0 0 0 0 .4 0"/><feOffset dx="4.0" dy="4.0" in="blurOut2" result="blurOut3"/><feBlend in="SourceGraphic" in2="blurOut3" mode="normal"/></filter></defs><g><!--class Module--><a href="/blob/master/doc/entities/Module.md" target="_top" xlink:actuate="onRequest" xlink:show="new" xlink:title="/blob/master/doc/entities/Module.md" xlink:type="simple"><rect fill="#FEFECE" filter="url(#f1cuzsksccrl39)" height="99.2188" id="Module" style="stroke: #A80036; stroke-width: 1.5;" width="112" x="317" y="56.5"/><ellipse cx="347.75" cy="72.5" fill="#ADD1B2" rx="11" ry="11" style="stroke: #A80036; stroke-width: 1.0;"/><path d="M350.7188,78.1406 Q350.1406,78.4375 349.5,78.5781 Q348.8594,78.7344 348.1563,78.7344 Q345.6563,78.7344 344.3281,77.0938 Q343.0156,75.4375 343.0156,72.3125 Q343.0156,69.1875 344.3281,67.5313 Q345.6563,65.875 348.1563,65.875 Q348.8594,65.875 349.5,66.0313 Q350.1563,66.1875 350.7188,66.4844 L350.7188,69.2031 Q350.0938,68.625 349.5,68.3594 Q348.9063,68.0781 348.2813,68.0781 Q346.9375,68.0781 346.25,69.1563 Q345.5625,70.2188 345.5625,72.3125 Q345.5625,74.4063 346.25,75.4844 Q346.9375,76.5469 348.2813,76.5469 Q348.9063,76.5469 349.5,76.2813 Q350.0938,76 350.7188,75.4219 L350.7188,78.1406 Z "/><text fill="#000000" font-family="sans-serif" font-size="12" lengthAdjust="spacingAndGlyphs" textLength="45" x="365.25" y="76.6543">Module</text><line style="stroke: #A80036; stroke-width: 1.5;" x1="318" x2="428" y1="88.5" y2="88.5"/><path d="M327.6667,95.2214 L326.75,97.9714 L324,97.9714 L326.2917,99.8047 L325.375,102.5547 L327.6667,100.7214 L329.9583,102.5547 L329.0417,99.8047 L331.3333,97.9714 L328.5833,97.9714 L327.6667,95.2214 " fill="#008000" style="stroke: ; stroke-width: 0.0; stroke-dasharray: ;"/></a><a href="/blob/master/doc/entities/Module.md#name-string" target="_top" xlink:actuate="onRequest" xlink:show="new" xlink:title="/blob/master/doc/entities/Module.md#name-string" xlink:type="simple"><text fill="#0000FF" font-family="sans-serif" font-size="11" lengthAdjust="spacingAndGlyphs" text-decoration="underline" textLength="32" x="332.3333" y="102.7104">name</text></a><text fill="#000000" font-family="sans-serif" font-size="11" lengthAdjust="spacingAndGlyphs" textLength="4" x="364.3333" y="102.7104">:</text><text fill="#808080" font-family="sans-serif" font-size="11" lengthAdjust="spacingAndGlyphs" textLength="34" x="372.3333" y="102.7104">String</text><path d="M327.6667,108.026 L326.75,110.776 L324,110.776 L326.2917,112.6094 L325.375,115.3594 L327.6667,113.526 L329.9583,115.3594 L329.0417,112.6094 L331.3333,110.776 L328.5833,110.776 L327.6667,108.026 " fill="#008000" style="stroke: ; stroke-width: 0.0; stroke-dasharray: ;"/><a href="/blob/master/doc/entities/Module.md#group-string" target="_top" xlink:actuate="onRequest" xlink:show="new" xlink:title="/blob/master/doc/entities/Module.md#group-string" xlink:type="simple"><text fill="#0000FF" font-family="sans-serif" font-size="11" lengthAdjust="spacingAndGlyphs" text-decoration="underline" textLength="33" x="332.3333" y="115.5151">group</text></a><text fill="#000000" font-family="sans-serif" font-size="11" lengthAdjust="spacingAndGlyphs" textLength="4" x="365.3333" y="115.5151">:</text><text fill="#808080" font-family="sans-serif" font-size="11" lengthAdjust="spacingAndGlyphs" textLength="34" x="373.3333" y="115.5151">String</text><path d="M327.6667,120.8307 L326.75,123.5807 L324,123.5807 L326.2917,125.4141 L325.375,128.1641 L327.6667,126.3307 L329.9583,128.1641 L329.0417,125.4141 L331.3333,123.5807 L328.5833,123.5807 L327.6667,120.8307 " fill="#008000" style="stroke: ; stroke-width: 0.0; stroke-dasharray: ;"/><a href="/blob/master/doc/entities/Module.md#version-string" target="_top" xlink:actuate="onRequest" xlink:show="new" xlink:title="/blob/master/doc/entities/Module.md#version-string" xlink:type="simple"><text fill="#0000FF" font-family="sans-serif" font-size="11" lengthAdjust="spacingAndGlyphs" text-decoration="underline" textLength="42" x="332.3333" y="128.3198">version</text></a><text fill="#000000" font-family="sans-serif" font-size="11" lengthAdjust="spacingAndGlyphs" textLength="4" x="374.3333" y="128.3198">:</text><text fill="#808080" font-family="sans-serif" font-size="11" lengthAdjust="spacingAndGlyphs" textLength="34" x="382.3333" y="128.3198">String</text><line style="stroke: #A80036; stroke-width: 1.5;" x1="318" x2="428" y1="134.9141" y2="134.9141"/><a href="/blob/master/doc/entities/Module.md#artifact_id-string" target="_top" xlink:actuate="onRequest" xlink:show="new" xlink:title="/blob/master/doc/entities/Module.md#artifact_id-string" xlink:type="simple"><text fill="#0000FF" font-family="sans-serif" font-size="11" lengthAdjust="spacingAndGlyphs" text-decoration="underline" textLength="50" x="323" y="149.1245">artifactId</text></a><text fill="#000000" font-family="sans-serif" font-size="11" lengthAdjust="spacingAndGlyphs" textLength="12" x="373" y="149.1245">():</text><text fill="#808080" font-family="sans-serif" font-size="11" lengthAdjust="spacingAndGlyphs" textLength="34" x="389" y="149.1245">String</text><!--class Project--><a href="/blob/master/doc/entities/Project.md" target="_top" xlink:actuate="onRequest" xlink:show="new" xlink:title="/blob/master/doc/entities/Project.md" xlink:type="simple"><rect fill="#FEFECE" filter="url(#f1cuzsksccrl39)" height="137.6328" id="Project" style="stroke: #A80036; stroke-width: 1.5;" width="120" x="6" y="70"/><ellipse cx="40.8" cy="86" fill="#ADD1B2" rx="11" ry="11" style="stroke: #A80036; stroke-width: 1.0;"/><path d="M43.7688,91.6406 Q43.1906,91.9375 42.55,92.0781 Q41.9094,92.2344 41.2063,92.2344 Q38.7063,92.2344 37.3781,90.5938 Q36.0656,88.9375 36.0656,85.8125 Q36.0656,82.6875 37.3781,81.0313 Q38.7063,79.375 41.2063,79.375 Q41.9094,79.375 42.55,79.5313 Q43.2063,79.6875 43.7688,79.9844 L43.7688,82.7031 Q43.1438,82.125 42.55,81.8594 Q41.9563,81.5781 41.3313,81.5781 Q39.9875,81.5781 39.3,82.6563 Q38.6125,83.7188 38.6125,85.8125 Q38.6125,87.9063 39.3,88.9844 Q39.9875,90.0469 41.3313,90.0469 Q41.9563,90.0469 42.55,89.7813 Q43.1438,89.5 43.7688,88.9219 L43.7688,91.6406 Z "/><text fill="#000000" font-family="sans-serif" font-size="12" lengthAdjust="spacingAndGlyphs" textLength="44" x="59.2" y="90.1543">Project</text><line style="stroke: #A80036; stroke-width: 1.5;" x1="7" x2="125" y1="102" y2="102"/><path d="M18.0417,108.7214 C16.7767,108.7214 15.75,109.748 15.75,111.013 C15.75,111.1597 15.7802,111.2853 15.8078,111.4145 L13,114.2223 L13,116.0556 L15.75,116.0556 L15.75,114.2223 L17.5833,114.2223 L17.5833,113.3056 L17.6411,113.2479 C17.7694,113.2754 17.895,113.3056 18.0426,113.3056 C19.3076,113.3056 20.3342,112.2789 20.3342,111.0139 C20.3342,109.7489 19.3076,108.7223 18.0426,108.7223 M18.5009,109.6389 C19.0051,109.6389 19.4176,110.0514 19.4176,110.5556 C19.4176,111.0598 19.0051,111.4723 18.5009,111.4723 C17.9968,111.4723 17.5843,111.0598 17.5843,110.5556 C17.5843,110.0514 17.9968,109.6389 18.5009,109.6389 " fill="#FF0000" style="stroke: ; stroke-width: 0.0; stroke-dasharray: ;"/><path d="M26,108.7214 L25.0833,111.4714 L22.3333,111.4714 L24.625,113.3047 L23.7083,116.0547 L26,114.2214 L28.2917,116.0547 L27.375,113.3047 L29.6667,111.4714 L26.9167,111.4714 L26,108.7214 " fill="#008000" style="stroke: ; stroke-width: 0.0; stroke-dasharray: ;"/></a><a href="/blob/master/doc/entities/Project.md#group-string" target="_top" xlink:actuate="onRequest" xlink:show="new" xlink:title="/blob/master/doc/entities/Project.md#group-string" xlink:type="simple"><text fill="#0000FF" font-family="sans-serif" font-size="11" lengthAdjust="spacingAndGlyphs" text-decoration="underline" textLength="33" x="30.6667" y="116.2104">group</text></a><text fill="#000000" font-family="sans-serif" font-size="11" lengthAdjust="spacingAndGlyphs" textLength="4" x="63.6667" y="116.2104">:</text><text fill="#808080" font-family="sans-serif" font-size="11" lengthAdjust="spacingAndGlyphs" textLength="34" x="71.6667" y="116.2104">String</text><path d="M18.0417,121.526 C16.7767,121.526 15.75,122.5527 15.75,123.8177 C15.75,123.9644 15.7802,124.09 15.8078,124.2192 L13,127.027 L13,128.8603 L15.75,128.8603 L15.75,127.027 L17.5833,127.027 L17.5833,126.1103 L17.6411,126.0525 C17.7694,126.08 17.895,126.1103 18.0426,126.1103 C19.3076,126.1103 20.3342,125.0836 20.3342,123.8186 C20.3342,122.5536 19.3076,121.527 18.0426,121.527 M18.5009,122.4436 C19.0051,122.4436 19.4176,122.8561 19.4176,123.3603 C19.4176,123.8645 19.0051,124.277 18.5009,124.277 C17.9968,124.277 17.5843,123.8645 17.5843,123.3603 C17.5843,122.8561 17.9968,122.4436 18.5009,122.4436 " fill="#FF0000" style="stroke: ; stroke-width: 0.0; stroke-dasharray: ;"/><path d="M26,121.526 L25.0833,124.276 L22.3333,124.276 L24.625,126.1094 L23.7083,128.8594 L26,127.026 L28.2917,128.8594 L27.375,126.1094 L29.6667,124.276 L26.9167,124.276 L26,121.526 " fill="#008000" style="stroke: ; stroke-width: 0.0; stroke-dasharray: ;"/><a href="/blob/master/doc/entities/Project.md#name-string" target="_top" xlink:actuate="onRequest" xlink:show="new" xlink:title="/blob/master/doc/entities/Project.md#name-string" xlink:type="simple"><text fill="#0000FF" font-family="sans-serif" font-size="11" lengthAdjust="spacingAndGlyphs" text-decoration="underline" textLength="32" x="30.6667" y="129.0151">name</text></a><text fill="#000000" font-family="sans-serif" font-size="11" lengthAdjust="spacingAndGlyphs" textLength="4" x="62.6667" y="129.0151">:</text><text fill="#808080" font-family="sans-serif" font-size="11" lengthAdjust="spacingAndGlyphs" textLength="34" x="70.6667" y="129.0151">String</text><a href="/blob/master/doc/entities/Project.md#type-string" target="_top" xlink:actuate="onRequest" xlink:show="new" xlink:title="/blob/master/doc/entities/Project.md#type-string" xlink:type="simple"><text fill="#0000FF" font-family="sans-serif" font-size="11" lengthAdjust="spacingAndGlyphs" text-decoration="underline" textLength="24" x="12" y="141.8198">type</text></a><text fill="#000000" font-family="sans-serif" font-size="11" lengthAdjust="spacingAndGlyphs" textLength="4" x="36" y="141.8198">:</text><text fill="#808080" font-family="sans-serif" font-size="11" lengthAdjust="spacingAndGlyphs" textLength="34" x="44" y="141.8198">String</text><path d="M16.6667,147.1354 L15.75,149.8854 L13,149.8854 L15.2917,151.7188 L14.375,154.4688 L16.6667,152.6354 L18.9583,154.4688 L18.0417,151.7188 L20.3333,149.8854 L17.5833,149.8854 L16.6667,147.1354 " fill="#008000" style="stroke: ; stroke-width: 0.0; stroke-dasharray: ;"/><a href="/blob/master/doc/entities/Project.md#version-string" target="_top" xlink:actuate="onRequest" xlink:show="new" xlink:title="/blob/master/doc/entities/Project.md#version-string" xlink:type="simple"><text fill="#0000FF" font-family="sans-serif" font-size="11" lengthAdjust="spacingAndGlyphs" text-decoration="underline" textLength="42" x="21.3333" y="154.6245">version</text></a><text fill="#000000" font-family="sans-serif" font-size="11" lengthAdjust="spacingAndGlyphs" textLength="4" x="63.3333" y="154.6245">:</text><text fill="#808080" font-family="sans-serif" font-size="11" lengthAdjust="spacingAndGlyphs" textLength="34" x="71.3333" y="154.6245">String</text><a href="/blob/master/doc/entities/Project.md#namespace-string" target="_top" xlink:actuate="onRequest" xlink:show="new" xlink:title="/blob/master/doc/entities/Project.md#namespace-string" xlink:type="simple"><text fill="#0000FF" font-family="sans-serif" font-size="11" lengthAdjust="spacingAndGlyphs" text-decoration="underline" textLength="66" x="12" y="167.4292">namespace</text></a><text fill="#000000" font-family="sans-serif" font-size="11" lengthAdjust="spacingAndGlyphs" textLength="4" x="78" y="167.4292">:</text><text fill="#808080" font-family="sans-serif" font-size="11" lengthAdjust="spacingAndGlyphs" textLength="34" x="86" y="167.4292">String</text><a href="/blob/master/doc/entities/Project.md#description-string" target="_top" xlink:actuate="onRequest" xlink:show="new" xlink:title="/blob/master/doc/entities/Project.md#description-string" xlink:type="simple"><text fill="#0000FF" font-family="sans-serif" font-size="11" lengthAdjust="spacingAndGlyphs" text-decoration="underline" textLength="63" x="12" y="180.2339">description</text></a><text fill="#000000" font-family="sans-serif" font-size="11" lengthAdjust="spacingAndGlyphs" textLength="4" x="75" y="180.2339">:</text><text fill="#808080" font-family="sans-serif" font-size="11" lengthAdjust="spacingAndGlyphs" textLength="34" x="83" y="180.2339">String</text><a href="/blob/master/doc/entities/Project.md#base_dir-string" target="_top" xlink:actuate="onRequest" xlink:show="new" xlink:title="/blob/master/doc/entities/Project.md#base_dir-string" xlink:type="simple"><text fill="#0000FF" font-family="sans-serif" font-size="11" lengthAdjust="spacingAndGlyphs" text-decoration="underline" textLength="49" x="12" y="193.0386">base_dir</text></a><text fill="#000000" font-family="sans-serif" font-size="11" lengthAdjust="spacingAndGlyphs" textLength="4" x="61" y="193.0386">:</text><text fill="#808080" font-family="sans-serif" font-size="11" lengthAdjust="spacingAndGlyphs" textLength="34" x="69" y="193.0386">String</text><line style="stroke: #A80036; stroke-width: 1.5;" x1="7" x2="125" y1="199.6328" y2="199.6328"/><!--class SourceRepository--><a href="/blob/master/doc/entities/SourceRepository.md" target="_top" xlink:actuate="onRequest" xlink:show="new" xlink:title="/blob/master/doc/entities/SourceRepository.md" xlink:type="simple"><rect fill="#FEFECE" filter="url(#f1cuzsksccrl39)" height="73.6094" id="SourceRepository" style="stroke: #A80036; stroke-width: 1.5;" width="142" x="302" y="191"/><ellipse cx="317" cy="207" fill="#ADD1B2" rx="11" ry="11" style="stroke: #A80036; stroke-width: 1.0;"/><path d="M319.9688,212.6406 Q319.3906,212.9375 318.75,213.0781 Q318.1094,213.2344 317.4063,213.2344 Q314.9063,213.2344 313.5781,211.5938 Q312.2656,209.9375 312.2656,206.8125 Q312.2656,203.6875 313.5781,202.0313 Q314.9063,200.375 317.4063,200.375 Q318.1094,200.375 318.75,200.5313 Q319.4063,200.6875 319.9688,200.9844 L319.9688,203.7031 Q319.3438,203.125 318.75,202.8594 Q318.1563,202.5781 317.5313,202.5781 Q316.1875,202.5781 315.5,203.6563 Q314.8125,204.7188 314.8125,206.8125 Q314.8125,208.9063 315.5,209.9844 Q316.1875,211.0469 317.5313,211.0469 Q318.1563,211.0469 318.75,210.7813 Q319.3438,210.5 319.9688,209.9219 L319.9688,212.6406 Z "/><text fill="#000000" font-family="sans-serif" font-size="12" lengthAdjust="spacingAndGlyphs" textLength="110" x="331" y="211.1543">SourceRepository</text><line style="stroke: #A80036; stroke-width: 1.5;" x1="303" x2="443" y1="223" y2="223"/><path d="M312.6667,229.7214 L311.75,232.4714 L309,232.4714 L311.2917,234.3047 L310.375,237.0547 L312.6667,235.2214 L314.9583,237.0547 L314.0417,234.3047 L316.3333,232.4714 L313.5833,232.4714 L312.6667,229.7214 " fill="#008000" style="stroke: ; stroke-width: 0.0; stroke-dasharray: ;"/></a><a href="/blob/master/doc/entities/SourceRepository.md#url-string" target="_top" xlink:actuate="onRequest" xlink:show="new" xlink:title="/blob/master/doc/entities/SourceRepository.md#url-string" xlink:type="simple"><text fill="#0000FF" font-family="sans-serif" font-size="11" lengthAdjust="spacingAndGlyphs" text-decoration="underline" textLength="15" x="317.3333" y="237.2104">url</text></a><text fill="#000000" font-family="sans-serif" font-size="11" lengthAdjust="spacingAndGlyphs" textLength="4" x="332.3333" y="237.2104">:</text><text fill="#808080" font-family="sans-serif" font-size="11" lengthAdjust="spacingAndGlyphs" textLength="34" x="340.3333" y="237.2104">String</text><a href="/blob/master/doc/entities/SourceRepository.md#branch-string" target="_top" xlink:actuate="onRequest" xlink:show="new" xlink:title="/blob/master/doc/entities/SourceRepository.md#branch-string" xlink:type="simple"><text fill="#0000FF" font-family="sans-serif" font-size="11" lengthAdjust="spacingAndGlyphs" text-decoration="underline" textLength="39" x="308" y="250.0151">branch</text></a><text fill="#000000" font-family="sans-serif" font-size="11" lengthAdjust="spacingAndGlyphs" textLength="4" x="347" y="250.0151">:</text><text fill="#808080" font-family="sans-serif" font-size="11" lengthAdjust="spacingAndGlyphs" textLength="34" x="355" y="250.0151">String</text><line style="stroke: #A80036; stroke-width: 1.5;" x1="303" x2="443" y1="256.6094" y2="256.6094"/><!--link Project to Project--><path d="M40.4603,56.983 C44.208,43.9301 52.7212,35 66,35 C83.3438,35 92.5576,50.2344 93.6416,69.9915 " fill="none" id="Project-Project" style="stroke: #A80036; stroke-width: 1.0;"/><polygon fill="#A80036" points="38.3584,69.9915,43.2643,64.7064,40.2726,58.1452,35.3667,63.4303,38.3584,69.9915" style="stroke: #A80036; stroke-width: 1.0;"/><text fill="#000000" font-family="sans-serif" font-size="13" lengthAdjust="spacingAndGlyphs" textLength="74" x="29" y="26.0669">subprojects</text><text fill="#000000" font-family="sans-serif" font-size="13" lengthAdjust="spacingAndGlyphs" textLength="7" x="89.2821" y="58.7176">*</text><!--link Project to SourceRepository--><path d="M138.326,179.9472 C144.2127,182.5465 150.1483,184.9409 156,187 C203.1972,203.6077 258.6652,213.9376 301.707,220.0745 " fill="none" id="Project-SourceRepository" style="stroke: #A80036; stroke-width: 1.0;"/><polygon fill="#A80036" points="126.3534,174.3655,130.1013,180.5261,137.2296,179.4359,133.4816,173.2753,126.3534,174.3655" style="stroke: #A80036; stroke-width: 1.0;"/><text fill="#000000" font-family="sans-serif" font-size="13" lengthAdjust="spacingAndGlyphs" textLength="114" x="157" y="183.0669">source_repository</text><text fill="#000000" font-family="sans-serif" font-size="13" lengthAdjust="spacingAndGlyphs" textLength="24" x="270.0284" y="232.1263">0..1</text><!--link Project to Module--><path d="M138.7671,97.3991 C144.479,95.2546 150.2596,93.4086 156,92 C209.5297,78.8644 272.5827,85.2652 316.8857,93.1911 " fill="none" id="Project-Module" style="stroke: #A80036; stroke-width: 1.0;"/><polygon fill="#A80036" points="126.4149,102.5171,133.4891,103.9157,137.5009,97.9237,130.4268,96.525,126.4149,102.5171" style="stroke: #A80036; stroke-width: 1.0;"/><text fill="#000000" font-family="sans-serif" font-size="13" lengthAdjust="spacingAndGlyphs" textLength="47" x="190.5" y="81.0669">models</text><text fill="#000000" font-family="sans-serif" font-size="13" lengthAdjust="spacingAndGlyphs" textLength="7" x="301.875" y="104.5388">*</text><!--link Project to Module--><path d="M139.3336,131.2059 C178.6732,127.0153 227.9846,121.7472 272,117 C286.5555,115.4301 302.2895,113.7219 316.9079,112.1301 " fill="none" id="Project-Module-1" style="stroke: #A80036; stroke-width: 1.0;"/><polygon fill="#A80036" points="126.3967,132.5834,132.7865,135.9256,138.3292,131.3127,131.9394,127.9706,126.3967,132.5834" style="stroke: #A80036; stroke-width: 1.0;"/><text fill="#000000" font-family="sans-serif" font-size="13" lengthAdjust="spacingAndGlyphs" textLength="65" x="181.5" y="113.0669">templates</text><text fill="#000000" font-family="sans-serif" font-size="13" lengthAdjust="spacingAndGlyphs" textLength="7" x="301.9002" y="126.0228">*</text><!--link Project to Module--><path d="M139.2643,155.322 C178.9751,161.5189 228.6543,164.9595 272,155 C287.1955,151.5086 302.7571,145.4141 316.9721,138.6845 " fill="none" id="Project-Module-2" style="stroke: #A80036; stroke-width: 1.0;"/><polygon fill="#A80036" points="126.2029,153.1301,131.4581,158.068,138.0374,155.1162,132.7822,150.1783,126.2029,153.1301" style="stroke: #A80036; stroke-width: 1.0;"/><text fill="#000000" font-family="sans-serif" font-size="13" lengthAdjust="spacingAndGlyphs" textLength="58" x="185" y="151.0669">schemas</text><text fill="#000000" font-family="sans-serif" font-size="13" lengthAdjust="spacingAndGlyphs" textLength="7" x="301.973" y="156.1454">*</text><!--
@startuml
left to right direction


class Module [[/blob/master/doc/entities/Module.md]] {
  <color:Green><&star></color>[[/blob/master/doc/entities/Module.md#name-string name]]: <color:GRAY>String</color>
  <color:Green><&star></color>[[/blob/master/doc/entities/Module.md#group-string group]]: <color:GRAY>String</color>
  <color:Green><&star></color>[[/blob/master/doc/entities/Module.md#version-string version]]: <color:GRAY>String</color>
  [[/blob/master/doc/entities/Module.md#artifact_id-string artifactId]](): <color:GRAY>String</color>
}




class Project [[/blob/master/doc/entities/Project.md]] {
  <color:RED><&key></color><color:Green><&star></color>[[/blob/master/doc/entities/Project.md#group-string group]]: <color:GRAY>String</color>
  <color:RED><&key></color><color:Green><&star></color>[[/blob/master/doc/entities/Project.md#name-string name]]: <color:GRAY>String</color>
  [[/blob/master/doc/entities/Project.md#type-string type]]: <color:GRAY>String</color>
  <color:Green><&star></color>[[/blob/master/doc/entities/Project.md#version-string version]]: <color:GRAY>String</color>
  [[/blob/master/doc/entities/Project.md#namespace-string namespace]]: <color:GRAY>String</color>
  [[/blob/master/doc/entities/Project.md#description-string description]]: <color:GRAY>String</color>
  [[/blob/master/doc/entities/Project.md#base_dir-string base_dir]]: <color:GRAY>String</color>
}






Project *- - "*" Project : subprojects






Project *- - "0..1" SourceRepository : source_repository






Project *- - "*" Module : models






Project *- - "*" Module : templates






Project *- - "*" Module : schemas




class SourceRepository [[/blob/master/doc/entities/SourceRepository.md]] {
  <color:Green><&star></color>[[/blob/master/doc/entities/SourceRepository.md#url-string url]]: <color:GRAY>String</color>
  [[/blob/master/doc/entities/SourceRepository.md#branch-string branch]]: <color:GRAY>String</color>
}



@enduml

PlantUML version 1.2019.05(Sun Apr 21 01:45:36 JST 2019)
(GPL source distribution)
Java Runtime: OpenJDK Runtime Environment
JVM: OpenJDK 64-Bit Server VM
Java Version: 1.8.0_242-b20
Operating System: Linux
OS Version: 4.4.0-18362-Microsoft
Default Encoding: UTF-8
Language: en
Country: 
--></g></svg>