<?xml version="1.0" encoding="UTF-8" standalone="no"?><svg xmlns="http://www.w3.org/2000/svg" xmlns:xlink="http://www.w3.org/1999/xlink" contentScriptType="application/ecmascript" contentStyleType="text/css" height="435px" preserveAspectRatio="none" style="width:802px;height:435px;" version="1.1" viewBox="0 0 802 435" width="802px" zoomAndPan="magnify"><defs><filter height="300%" id="f6cwxevgyu0yk" width="300%" x="-1" y="-1"><feGaussianBlur result="blurOut" stdDeviation="2.0"/><feColorMatrix in="blurOut" result="blurOut2" type="matrix" values="0 0 0 0 0 0 0 0 0 0 0 0 0 0 0 0 0 0 .4 0"/><feOffset dx="4.0" dy="4.0" in="blurOut2" result="blurOut3"/><feBlend in="SourceGraphic" in2="blurOut3" mode="normal"/></filter></defs><g><!--cluster laplacian.project.document--><polygon fill="#FFFFFF" filter="url(#f6cwxevgyu0yk)" points="551,16,770,16,777,38.2969,780,38.2969,780,170,551,170,551,16" style="stroke: #000000; stroke-width: 1.5;"/><line style="stroke: #000000; stroke-width: 1.5;" x1="551" x2="777" y1="38.2969" y2="38.2969"/><text fill="#000000" font-family="sans-serif" font-size="14" font-weight="bold" lengthAdjust="spacingAndGlyphs" textLength="213" x="555" y="30.9951">laplacian.project.document</text><!--class Section--><a href="/blob/master/doc/entities/Section.md" target="_top" xlink:actuate="onRequest" xlink:show="new" xlink:title="/blob/master/doc/entities/Section.md" xlink:type="simple"><rect fill="#FEFECE" filter="url(#f6cwxevgyu0yk)" height="73.6094" id="Section" style="stroke: #A80036; stroke-width: 1.5;" width="105.3333" x="613" y="88"/><ellipse cx="639.85" cy="104" fill="#ADD1B2" rx="11" ry="11" style="stroke: #A80036; stroke-width: 1.0;"/><path d="M642.8188,109.6406 Q642.2406,109.9375 641.6,110.0781 Q640.9594,110.2344 640.2563,110.2344 Q637.7563,110.2344 636.4281,108.5938 Q635.1156,106.9375 635.1156,103.8125 Q635.1156,100.6875 636.4281,99.0313 Q637.7563,97.375 640.2563,97.375 Q640.9594,97.375 641.6,97.5313 Q642.2563,97.6875 642.8188,97.9844 L642.8188,100.7031 Q642.1938,100.125 641.6,99.8594 Q641.0063,99.5781 640.3813,99.5781 Q639.0375,99.5781 638.35,100.6563 Q637.6625,101.7188 637.6625,103.8125 Q637.6625,105.9063 638.35,106.9844 Q639.0375,108.0469 640.3813,108.0469 Q641.0063,108.0469 641.6,107.7813 Q642.1938,107.5 642.8188,106.9219 L642.8188,109.6406 Z "/><text fill="#000000" font-family="sans-serif" font-size="12" lengthAdjust="spacingAndGlyphs" textLength="47" x="656.4833" y="108.1543">Section</text><line style="stroke: #A80036; stroke-width: 1.5;" x1="614" x2="717.3333" y1="120" y2="120"/><path d="M623.6667,126.7214 L622.75,129.4714 L620,129.4714 L622.2917,131.3047 L621.375,134.0547 L623.6667,132.2214 L625.9583,134.0547 L625.0417,131.3047 L627.3333,129.4714 L624.5833,129.4714 L623.6667,126.7214 " fill="#008000" style="stroke: ; stroke-width: 0.0; stroke-dasharray: ;"/></a><a href="/blob/master/doc/entities/Section.md#title-string" target="_top" xlink:actuate="onRequest" xlink:show="new" xlink:title="/blob/master/doc/entities/Section.md#title-string" xlink:type="simple"><text fill="#0000FF" font-family="sans-serif" font-size="11" lengthAdjust="spacingAndGlyphs" text-decoration="underline" textLength="21" x="628.3333" y="134.2104">title</text></a><text fill="#000000" font-family="sans-serif" font-size="11" lengthAdjust="spacingAndGlyphs" textLength="4" x="649.3333" y="134.2104">:</text><text fill="#808080" font-family="sans-serif" font-size="11" lengthAdjust="spacingAndGlyphs" textLength="34" x="657.3333" y="134.2104">String</text><path d="M623.6667,139.526 L622.75,142.276 L620,142.276 L622.2917,144.1094 L621.375,146.8594 L623.6667,145.026 L625.9583,146.8594 L625.0417,144.1094 L627.3333,142.276 L624.5833,142.276 L623.6667,139.526 " fill="#008000" style="stroke: ; stroke-width: 0.0; stroke-dasharray: ;"/><a href="/blob/master/doc/entities/Section.md#content-string" target="_top" xlink:actuate="onRequest" xlink:show="new" xlink:title="/blob/master/doc/entities/Section.md#content-string" xlink:type="simple"><text fill="#0000FF" font-family="sans-serif" font-size="11" lengthAdjust="spacingAndGlyphs" text-decoration="underline" textLength="42" x="628.3333" y="147.0151">content</text></a><text fill="#000000" font-family="sans-serif" font-size="11" lengthAdjust="spacingAndGlyphs" textLength="4" x="670.3333" y="147.0151">:</text><text fill="#808080" font-family="sans-serif" font-size="11" lengthAdjust="spacingAndGlyphs" textLength="34" x="678.3333" y="147.0151">String</text><line style="stroke: #A80036; stroke-width: 1.5;" x1="614" x2="717.3333" y1="153.6094" y2="153.6094"/><!--class Document--><a href="/blob/master/doc/entities/Document.md" target="_top" xlink:actuate="onRequest" xlink:show="new" xlink:title="/blob/master/doc/entities/Document.md" xlink:type="simple"><rect fill="#FEFECE" filter="url(#f6cwxevgyu0yk)" height="112.0234" id="Document" style="stroke: #A80036; stroke-width: 1.5;" width="106" x="320" y="69"/><ellipse cx="339.5" cy="85" fill="#ADD1B2" rx="11" ry="11" style="stroke: #A80036; stroke-width: 1.0;"/><path d="M342.4688,90.6406 Q341.8906,90.9375 341.25,91.0781 Q340.6094,91.2344 339.9063,91.2344 Q337.4063,91.2344 336.0781,89.5938 Q334.7656,87.9375 334.7656,84.8125 Q334.7656,81.6875 336.0781,80.0313 Q337.4063,78.375 339.9063,78.375 Q340.6094,78.375 341.25,78.5313 Q341.9063,78.6875 342.4688,78.9844 L342.4688,81.7031 Q341.8438,81.125 341.25,80.8594 Q340.6563,80.5781 340.0313,80.5781 Q338.6875,80.5781 338,81.6563 Q337.3125,82.7188 337.3125,84.8125 Q337.3125,86.9063 338,87.9844 Q338.6875,89.0469 340.0313,89.0469 Q340.6563,89.0469 341.25,88.7813 Q341.8438,88.5 342.4688,87.9219 L342.4688,90.6406 Z "/><text fill="#000000" font-family="sans-serif" font-size="12" lengthAdjust="spacingAndGlyphs" textLength="64" x="354.5" y="89.1543">Document</text><line style="stroke: #A80036; stroke-width: 1.5;" x1="321" x2="425" y1="101" y2="101"/></a><a href="/blob/master/doc/entities/Document.md#title-string" target="_top" xlink:actuate="onRequest" xlink:show="new" xlink:title="/blob/master/doc/entities/Document.md#title-string" xlink:type="simple"><text fill="#0000FF" font-family="sans-serif" font-size="11" lengthAdjust="spacingAndGlyphs" text-decoration="underline" textLength="21" x="326" y="115.2104">title</text></a><text fill="#000000" font-family="sans-serif" font-size="11" lengthAdjust="spacingAndGlyphs" textLength="4" x="347" y="115.2104">:</text><text fill="#808080" font-family="sans-serif" font-size="11" lengthAdjust="spacingAndGlyphs" textLength="34" x="355" y="115.2104">String</text><a href="/blob/master/doc/entities/Document.md#author-string" target="_top" xlink:actuate="onRequest" xlink:show="new" xlink:title="/blob/master/doc/entities/Document.md#author-string" xlink:type="simple"><text fill="#0000FF" font-family="sans-serif" font-size="11" lengthAdjust="spacingAndGlyphs" text-decoration="underline" textLength="37" x="326" y="128.0151">author</text></a><text fill="#000000" font-family="sans-serif" font-size="11" lengthAdjust="spacingAndGlyphs" textLength="4" x="363" y="128.0151">:</text><text fill="#808080" font-family="sans-serif" font-size="11" lengthAdjust="spacingAndGlyphs" textLength="40" x="371" y="128.0151">String?</text><a href="/blob/master/doc/entities/Document.md#rights-string" target="_top" xlink:actuate="onRequest" xlink:show="new" xlink:title="/blob/master/doc/entities/Document.md#rights-string" xlink:type="simple"><text fill="#0000FF" font-family="sans-serif" font-size="11" lengthAdjust="spacingAndGlyphs" text-decoration="underline" textLength="33" x="326" y="140.8198">rights</text></a><text fill="#000000" font-family="sans-serif" font-size="11" lengthAdjust="spacingAndGlyphs" textLength="4" x="359" y="140.8198">:</text><text fill="#808080" font-family="sans-serif" font-size="11" lengthAdjust="spacingAndGlyphs" textLength="40" x="367" y="140.8198">String?</text><a href="/blob/master/doc/entities/Document.md#language-string" target="_top" xlink:actuate="onRequest" xlink:show="new" xlink:title="/blob/master/doc/entities/Document.md#language-string" xlink:type="simple"><text fill="#0000FF" font-family="sans-serif" font-size="11" lengthAdjust="spacingAndGlyphs" text-decoration="underline" textLength="52" x="326" y="153.6245">language</text></a><text fill="#000000" font-family="sans-serif" font-size="11" lengthAdjust="spacingAndGlyphs" textLength="4" x="378" y="153.6245">:</text><text fill="#808080" font-family="sans-serif" font-size="11" lengthAdjust="spacingAndGlyphs" textLength="34" x="386" y="153.6245">String</text><a href="/blob/master/doc/entities/Document.md#abstract-string" target="_top" xlink:actuate="onRequest" xlink:show="new" xlink:title="/blob/master/doc/entities/Document.md#abstract-string" xlink:type="simple"><text fill="#0000FF" font-family="sans-serif" font-size="11" lengthAdjust="spacingAndGlyphs" text-decoration="underline" textLength="47" x="326" y="166.4292">abstract</text></a><text fill="#000000" font-family="sans-serif" font-size="11" lengthAdjust="spacingAndGlyphs" textLength="4" x="373" y="166.4292">:</text><text fill="#808080" font-family="sans-serif" font-size="11" lengthAdjust="spacingAndGlyphs" textLength="34" x="381" y="166.4292">String</text><line style="stroke: #A80036; stroke-width: 1.5;" x1="321" x2="425" y1="173.0234" y2="173.0234"/><!--class Module--><a href="/blob/master/doc/entities/Module.md" target="_top" xlink:actuate="onRequest" xlink:show="new" xlink:title="/blob/master/doc/entities/Module.md" xlink:type="simple"><rect fill="#FEFECE" filter="url(#f6cwxevgyu0yk)" height="99.2188" id="Module" style="stroke: #A80036; stroke-width: 1.5;" width="112" x="317" y="216.5"/><ellipse cx="347.75" cy="232.5" fill="#ADD1B2" rx="11" ry="11" style="stroke: #A80036; stroke-width: 1.0;"/><path d="M350.7188,238.1406 Q350.1406,238.4375 349.5,238.5781 Q348.8594,238.7344 348.1563,238.7344 Q345.6563,238.7344 344.3281,237.0938 Q343.0156,235.4375 343.0156,232.3125 Q343.0156,229.1875 344.3281,227.5313 Q345.6563,225.875 348.1563,225.875 Q348.8594,225.875 349.5,226.0313 Q350.1563,226.1875 350.7188,226.4844 L350.7188,229.2031 Q350.0938,228.625 349.5,228.3594 Q348.9063,228.0781 348.2813,228.0781 Q346.9375,228.0781 346.25,229.1563 Q345.5625,230.2188 345.5625,232.3125 Q345.5625,234.4063 346.25,235.4844 Q346.9375,236.5469 348.2813,236.5469 Q348.9063,236.5469 349.5,236.2813 Q350.0938,236 350.7188,235.4219 L350.7188,238.1406 Z "/><text fill="#000000" font-family="sans-serif" font-size="12" lengthAdjust="spacingAndGlyphs" textLength="45" x="365.25" y="236.6543">Module</text><line style="stroke: #A80036; stroke-width: 1.5;" x1="318" x2="428" y1="248.5" y2="248.5"/><path d="M327.6667,255.2214 L326.75,257.9714 L324,257.9714 L326.2917,259.8047 L325.375,262.5547 L327.6667,260.7214 L329.9583,262.5547 L329.0417,259.8047 L331.3333,257.9714 L328.5833,257.9714 L327.6667,255.2214 " fill="#008000" style="stroke: ; stroke-width: 0.0; stroke-dasharray: ;"/></a><a href="/blob/master/doc/entities/Module.md#name-string" target="_top" xlink:actuate="onRequest" xlink:show="new" xlink:title="/blob/master/doc/entities/Module.md#name-string" xlink:type="simple"><text fill="#0000FF" font-family="sans-serif" font-size="11" lengthAdjust="spacingAndGlyphs" text-decoration="underline" textLength="32" x="332.3333" y="262.7104">name</text></a><text fill="#000000" font-family="sans-serif" font-size="11" lengthAdjust="spacingAndGlyphs" textLength="4" x="364.3333" y="262.7104">:</text><text fill="#808080" font-family="sans-serif" font-size="11" lengthAdjust="spacingAndGlyphs" textLength="34" x="372.3333" y="262.7104">String</text><path d="M327.6667,268.026 L326.75,270.776 L324,270.776 L326.2917,272.6094 L325.375,275.3594 L327.6667,273.526 L329.9583,275.3594 L329.0417,272.6094 L331.3333,270.776 L328.5833,270.776 L327.6667,268.026 " fill="#008000" style="stroke: ; stroke-width: 0.0; stroke-dasharray: ;"/><a href="/blob/master/doc/entities/Module.md#group-string" target="_top" xlink:actuate="onRequest" xlink:show="new" xlink:title="/blob/master/doc/entities/Module.md#group-string" xlink:type="simple"><text fill="#0000FF" font-family="sans-serif" font-size="11" lengthAdjust="spacingAndGlyphs" text-decoration="underline" textLength="33" x="332.3333" y="275.5151">group</text></a><text fill="#000000" font-family="sans-serif" font-size="11" lengthAdjust="spacingAndGlyphs" textLength="4" x="365.3333" y="275.5151">:</text><text fill="#808080" font-family="sans-serif" font-size="11" lengthAdjust="spacingAndGlyphs" textLength="34" x="373.3333" y="275.5151">String</text><path d="M327.6667,280.8307 L326.75,283.5807 L324,283.5807 L326.2917,285.4141 L325.375,288.1641 L327.6667,286.3307 L329.9583,288.1641 L329.0417,285.4141 L331.3333,283.5807 L328.5833,283.5807 L327.6667,280.8307 " fill="#008000" style="stroke: ; stroke-width: 0.0; stroke-dasharray: ;"/><a href="/blob/master/doc/entities/Module.md#version-string" target="_top" xlink:actuate="onRequest" xlink:show="new" xlink:title="/blob/master/doc/entities/Module.md#version-string" xlink:type="simple"><text fill="#0000FF" font-family="sans-serif" font-size="11" lengthAdjust="spacingAndGlyphs" text-decoration="underline" textLength="42" x="332.3333" y="288.3198">version</text></a><text fill="#000000" font-family="sans-serif" font-size="11" lengthAdjust="spacingAndGlyphs" textLength="4" x="374.3333" y="288.3198">:</text><text fill="#808080" font-family="sans-serif" font-size="11" lengthAdjust="spacingAndGlyphs" textLength="34" x="382.3333" y="288.3198">String</text><line style="stroke: #A80036; stroke-width: 1.5;" x1="318" x2="428" y1="294.9141" y2="294.9141"/><a href="/blob/master/doc/entities/Module.md#artifact_id-string" target="_top" xlink:actuate="onRequest" xlink:show="new" xlink:title="/blob/master/doc/entities/Module.md#artifact_id-string" xlink:type="simple"><text fill="#0000FF" font-family="sans-serif" font-size="11" lengthAdjust="spacingAndGlyphs" text-decoration="underline" textLength="50" x="323" y="309.1245">artifactId</text></a><text fill="#000000" font-family="sans-serif" font-size="11" lengthAdjust="spacingAndGlyphs" textLength="12" x="373" y="309.1245">():</text><text fill="#808080" font-family="sans-serif" font-size="11" lengthAdjust="spacingAndGlyphs" textLength="34" x="389" y="309.1245">String</text><!--class Project--><a href="/blob/master/doc/entities/Project.md" target="_top" xlink:actuate="onRequest" xlink:show="new" xlink:title="/blob/master/doc/entities/Project.md" xlink:type="simple"><rect fill="#FEFECE" filter="url(#f6cwxevgyu0yk)" height="137.6328" id="Project" style="stroke: #A80036; stroke-width: 1.5;" width="120" x="6" y="197"/><ellipse cx="40.8" cy="213" fill="#ADD1B2" rx="11" ry="11" style="stroke: #A80036; stroke-width: 1.0;"/><path d="M43.7688,218.6406 Q43.1906,218.9375 42.55,219.0781 Q41.9094,219.2344 41.2063,219.2344 Q38.7063,219.2344 37.3781,217.5938 Q36.0656,215.9375 36.0656,212.8125 Q36.0656,209.6875 37.3781,208.0313 Q38.7063,206.375 41.2063,206.375 Q41.9094,206.375 42.55,206.5313 Q43.2063,206.6875 43.7688,206.9844 L43.7688,209.7031 Q43.1438,209.125 42.55,208.8594 Q41.9563,208.5781 41.3313,208.5781 Q39.9875,208.5781 39.3,209.6563 Q38.6125,210.7188 38.6125,212.8125 Q38.6125,214.9063 39.3,215.9844 Q39.9875,217.0469 41.3313,217.0469 Q41.9563,217.0469 42.55,216.7813 Q43.1438,216.5 43.7688,215.9219 L43.7688,218.6406 Z "/><text fill="#000000" font-family="sans-serif" font-size="12" lengthAdjust="spacingAndGlyphs" textLength="44" x="59.2" y="217.1543">Project</text><line style="stroke: #A80036; stroke-width: 1.5;" x1="7" x2="125" y1="229" y2="229"/><path d="M18.0417,235.7214 C16.7767,235.7214 15.75,236.748 15.75,238.013 C15.75,238.1597 15.7802,238.2853 15.8078,238.4145 L13,241.2223 L13,243.0556 L15.75,243.0556 L15.75,241.2223 L17.5833,241.2223 L17.5833,240.3056 L17.6411,240.2479 C17.7694,240.2754 17.895,240.3056 18.0426,240.3056 C19.3076,240.3056 20.3342,239.2789 20.3342,238.0139 C20.3342,236.7489 19.3076,235.7223 18.0426,235.7223 M18.5009,236.6389 C19.0051,236.6389 19.4176,237.0514 19.4176,237.5556 C19.4176,238.0598 19.0051,238.4723 18.5009,238.4723 C17.9968,238.4723 17.5843,238.0598 17.5843,237.5556 C17.5843,237.0514 17.9968,236.6389 18.5009,236.6389 " fill="#FF0000" style="stroke: ; stroke-width: 0.0; stroke-dasharray: ;"/><path d="M26,235.7214 L25.0833,238.4714 L22.3333,238.4714 L24.625,240.3047 L23.7083,243.0547 L26,241.2214 L28.2917,243.0547 L27.375,240.3047 L29.6667,238.4714 L26.9167,238.4714 L26,235.7214 " fill="#008000" style="stroke: ; stroke-width: 0.0; stroke-dasharray: ;"/></a><a href="/blob/master/doc/entities/Project.md#group-string" target="_top" xlink:actuate="onRequest" xlink:show="new" xlink:title="/blob/master/doc/entities/Project.md#group-string" xlink:type="simple"><text fill="#0000FF" font-family="sans-serif" font-size="11" lengthAdjust="spacingAndGlyphs" text-decoration="underline" textLength="33" x="30.6667" y="243.2104">group</text></a><text fill="#000000" font-family="sans-serif" font-size="11" lengthAdjust="spacingAndGlyphs" textLength="4" x="63.6667" y="243.2104">:</text><text fill="#808080" font-family="sans-serif" font-size="11" lengthAdjust="spacingAndGlyphs" textLength="34" x="71.6667" y="243.2104">String</text><path d="M18.0417,248.526 C16.7767,248.526 15.75,249.5527 15.75,250.8177 C15.75,250.9644 15.7802,251.09 15.8078,251.2192 L13,254.027 L13,255.8603 L15.75,255.8603 L15.75,254.027 L17.5833,254.027 L17.5833,253.1103 L17.6411,253.0525 C17.7694,253.08 17.895,253.1103 18.0426,253.1103 C19.3076,253.1103 20.3342,252.0836 20.3342,250.8186 C20.3342,249.5536 19.3076,248.527 18.0426,248.527 M18.5009,249.4436 C19.0051,249.4436 19.4176,249.8561 19.4176,250.3603 C19.4176,250.8645 19.0051,251.277 18.5009,251.277 C17.9968,251.277 17.5843,250.8645 17.5843,250.3603 C17.5843,249.8561 17.9968,249.4436 18.5009,249.4436 " fill="#FF0000" style="stroke: ; stroke-width: 0.0; stroke-dasharray: ;"/><path d="M26,248.526 L25.0833,251.276 L22.3333,251.276 L24.625,253.1094 L23.7083,255.8594 L26,254.026 L28.2917,255.8594 L27.375,253.1094 L29.6667,251.276 L26.9167,251.276 L26,248.526 " fill="#008000" style="stroke: ; stroke-width: 0.0; stroke-dasharray: ;"/><a href="/blob/master/doc/entities/Project.md#name-string" target="_top" xlink:actuate="onRequest" xlink:show="new" xlink:title="/blob/master/doc/entities/Project.md#name-string" xlink:type="simple"><text fill="#0000FF" font-family="sans-serif" font-size="11" lengthAdjust="spacingAndGlyphs" text-decoration="underline" textLength="32" x="30.6667" y="256.0151">name</text></a><text fill="#000000" font-family="sans-serif" font-size="11" lengthAdjust="spacingAndGlyphs" textLength="4" x="62.6667" y="256.0151">:</text><text fill="#808080" font-family="sans-serif" font-size="11" lengthAdjust="spacingAndGlyphs" textLength="34" x="70.6667" y="256.0151">String</text><a href="/blob/master/doc/entities/Project.md#type-string" target="_top" xlink:actuate="onRequest" xlink:show="new" xlink:title="/blob/master/doc/entities/Project.md#type-string" xlink:type="simple"><text fill="#0000FF" font-family="sans-serif" font-size="11" lengthAdjust="spacingAndGlyphs" text-decoration="underline" textLength="24" x="12" y="268.8198">type</text></a><text fill="#000000" font-family="sans-serif" font-size="11" lengthAdjust="spacingAndGlyphs" textLength="4" x="36" y="268.8198">:</text><text fill="#808080" font-family="sans-serif" font-size="11" lengthAdjust="spacingAndGlyphs" textLength="34" x="44" y="268.8198">String</text><path d="M16.6667,274.1354 L15.75,276.8854 L13,276.8854 L15.2917,278.7188 L14.375,281.4688 L16.6667,279.6354 L18.9583,281.4688 L18.0417,278.7188 L20.3333,276.8854 L17.5833,276.8854 L16.6667,274.1354 " fill="#008000" style="stroke: ; stroke-width: 0.0; stroke-dasharray: ;"/><a href="/blob/master/doc/entities/Project.md#version-string" target="_top" xlink:actuate="onRequest" xlink:show="new" xlink:title="/blob/master/doc/entities/Project.md#version-string" xlink:type="simple"><text fill="#0000FF" font-family="sans-serif" font-size="11" lengthAdjust="spacingAndGlyphs" text-decoration="underline" textLength="42" x="21.3333" y="281.6245">version</text></a><text fill="#000000" font-family="sans-serif" font-size="11" lengthAdjust="spacingAndGlyphs" textLength="4" x="63.3333" y="281.6245">:</text><text fill="#808080" font-family="sans-serif" font-size="11" lengthAdjust="spacingAndGlyphs" textLength="34" x="71.3333" y="281.6245">String</text><a href="/blob/master/doc/entities/Project.md#namespace-string" target="_top" xlink:actuate="onRequest" xlink:show="new" xlink:title="/blob/master/doc/entities/Project.md#namespace-string" xlink:type="simple"><text fill="#0000FF" font-family="sans-serif" font-size="11" lengthAdjust="spacingAndGlyphs" text-decoration="underline" textLength="66" x="12" y="294.4292">namespace</text></a><text fill="#000000" font-family="sans-serif" font-size="11" lengthAdjust="spacingAndGlyphs" textLength="4" x="78" y="294.4292">:</text><text fill="#808080" font-family="sans-serif" font-size="11" lengthAdjust="spacingAndGlyphs" textLength="34" x="86" y="294.4292">String</text><a href="/blob/master/doc/entities/Project.md#description-string" target="_top" xlink:actuate="onRequest" xlink:show="new" xlink:title="/blob/master/doc/entities/Project.md#description-string" xlink:type="simple"><text fill="#0000FF" font-family="sans-serif" font-size="11" lengthAdjust="spacingAndGlyphs" text-decoration="underline" textLength="63" x="12" y="307.2339">description</text></a><text fill="#000000" font-family="sans-serif" font-size="11" lengthAdjust="spacingAndGlyphs" textLength="4" x="75" y="307.2339">:</text><text fill="#808080" font-family="sans-serif" font-size="11" lengthAdjust="spacingAndGlyphs" textLength="34" x="83" y="307.2339">String</text><a href="/blob/master/doc/entities/Project.md#base_dir-string" target="_top" xlink:actuate="onRequest" xlink:show="new" xlink:title="/blob/master/doc/entities/Project.md#base_dir-string" xlink:type="simple"><text fill="#0000FF" font-family="sans-serif" font-size="11" lengthAdjust="spacingAndGlyphs" text-decoration="underline" textLength="49" x="12" y="320.0386">base_dir</text></a><text fill="#000000" font-family="sans-serif" font-size="11" lengthAdjust="spacingAndGlyphs" textLength="4" x="61" y="320.0386">:</text><text fill="#808080" font-family="sans-serif" font-size="11" lengthAdjust="spacingAndGlyphs" textLength="34" x="69" y="320.0386">String</text><line style="stroke: #A80036; stroke-width: 1.5;" x1="7" x2="125" y1="326.6328" y2="326.6328"/><!--class SourceRepository--><a href="/blob/master/doc/entities/SourceRepository.md" target="_top" xlink:actuate="onRequest" xlink:show="new" xlink:title="/blob/master/doc/entities/SourceRepository.md" xlink:type="simple"><rect fill="#FEFECE" filter="url(#f6cwxevgyu0yk)" height="73.6094" id="SourceRepository" style="stroke: #A80036; stroke-width: 1.5;" width="142" x="302" y="351"/><ellipse cx="317" cy="367" fill="#ADD1B2" rx="11" ry="11" style="stroke: #A80036; stroke-width: 1.0;"/><path d="M319.9688,372.6406 Q319.3906,372.9375 318.75,373.0781 Q318.1094,373.2344 317.4063,373.2344 Q314.9063,373.2344 313.5781,371.5938 Q312.2656,369.9375 312.2656,366.8125 Q312.2656,363.6875 313.5781,362.0313 Q314.9063,360.375 317.4063,360.375 Q318.1094,360.375 318.75,360.5313 Q319.4063,360.6875 319.9688,360.9844 L319.9688,363.7031 Q319.3438,363.125 318.75,362.8594 Q318.1563,362.5781 317.5313,362.5781 Q316.1875,362.5781 315.5,363.6563 Q314.8125,364.7188 314.8125,366.8125 Q314.8125,368.9063 315.5,369.9844 Q316.1875,371.0469 317.5313,371.0469 Q318.1563,371.0469 318.75,370.7813 Q319.3438,370.5 319.9688,369.9219 L319.9688,372.6406 Z "/><text fill="#000000" font-family="sans-serif" font-size="12" lengthAdjust="spacingAndGlyphs" textLength="110" x="331" y="371.1543">SourceRepository</text><line style="stroke: #A80036; stroke-width: 1.5;" x1="303" x2="443" y1="383" y2="383"/><path d="M312.6667,389.7214 L311.75,392.4714 L309,392.4714 L311.2917,394.3047 L310.375,397.0547 L312.6667,395.2214 L314.9583,397.0547 L314.0417,394.3047 L316.3333,392.4714 L313.5833,392.4714 L312.6667,389.7214 " fill="#008000" style="stroke: ; stroke-width: 0.0; stroke-dasharray: ;"/></a><a href="/blob/master/doc/entities/SourceRepository.md#url-string" target="_top" xlink:actuate="onRequest" xlink:show="new" xlink:title="/blob/master/doc/entities/SourceRepository.md#url-string" xlink:type="simple"><text fill="#0000FF" font-family="sans-serif" font-size="11" lengthAdjust="spacingAndGlyphs" text-decoration="underline" textLength="15" x="317.3333" y="397.2104">url</text></a><text fill="#000000" font-family="sans-serif" font-size="11" lengthAdjust="spacingAndGlyphs" textLength="4" x="332.3333" y="397.2104">:</text><text fill="#808080" font-family="sans-serif" font-size="11" lengthAdjust="spacingAndGlyphs" textLength="34" x="340.3333" y="397.2104">String</text><a href="/blob/master/doc/entities/SourceRepository.md#branch-string" target="_top" xlink:actuate="onRequest" xlink:show="new" xlink:title="/blob/master/doc/entities/SourceRepository.md#branch-string" xlink:type="simple"><text fill="#0000FF" font-family="sans-serif" font-size="11" lengthAdjust="spacingAndGlyphs" text-decoration="underline" textLength="39" x="308" y="410.0151">branch</text></a><text fill="#000000" font-family="sans-serif" font-size="11" lengthAdjust="spacingAndGlyphs" textLength="4" x="347" y="410.0151">:</text><text fill="#808080" font-family="sans-serif" font-size="11" lengthAdjust="spacingAndGlyphs" textLength="34" x="355" y="410.0151">String</text><line style="stroke: #A80036; stroke-width: 1.5;" x1="303" x2="443" y1="416.6094" y2="416.6094"/><!--link Document to Section--><path d="M439.5202,125 C491.9314,125 564.0172,125 612.5576,125 " fill="none" id="Document-Section" style="stroke: #A80036; stroke-width: 1.0;"/><polygon fill="#A80036" points="426.3089,125,432.3089,129,438.3089,125,432.3089,121,426.3089,125" style="stroke: #A80036; stroke-width: 1.0;"/><text fill="#000000" font-family="sans-serif" font-size="13" lengthAdjust="spacingAndGlyphs" textLength="53" x="475" y="121.0669">sections</text><text fill="#000000" font-family="sans-serif" font-size="13" lengthAdjust="spacingAndGlyphs" textLength="7" x="597.9508" y="138.1099">*</text><!--link Section to Section--><path d="M635.2009,74.6987 C637.3827,62.2697 647.4824,53 665.5,53 C689.5234,53 699.4706,69.4795 695.3416,87.9545 " fill="none" id="Section-Section" style="stroke: #A80036; stroke-width: 1.0;"/><polygon fill="#A80036" points="635.6584,87.9545,639.4491,81.8201,635.2445,75.9616,631.4538,82.096,635.6584,87.9545" style="stroke: #A80036; stroke-width: 1.0;"/><text fill="#000000" font-family="sans-serif" font-size="13" lengthAdjust="spacingAndGlyphs" textLength="83" x="624" y="44.0669">sub_sections</text><text fill="#000000" font-family="sans-serif" font-size="13" lengthAdjust="spacingAndGlyphs" textLength="7" x="693.1676" y="76.8566">*</text><!--link Project to Project--><path d="M40.4603,183.983 C44.208,170.9301 52.7212,162 66,162 C83.3438,162 92.5576,177.2344 93.6416,196.9915 " fill="none" id="Project-Project" style="stroke: #A80036; stroke-width: 1.0;"/><polygon fill="#A80036" points="38.3584,196.9915,43.2643,191.7064,40.2726,185.1452,35.3667,190.4303,38.3584,196.9915" style="stroke: #A80036; stroke-width: 1.0;"/><text fill="#000000" font-family="sans-serif" font-size="13" lengthAdjust="spacingAndGlyphs" textLength="74" x="29" y="153.0669">subprojects</text><text fill="#000000" font-family="sans-serif" font-size="13" lengthAdjust="spacingAndGlyphs" textLength="7" x="89.2821" y="185.7176">*</text><!--link Project to SourceRepository--><path d="M137.0672,321.7541 C143.2991,325.5115 149.6531,328.9914 156,332 C202.2326,353.9154 258.2258,368.0922 301.7532,376.6981 " fill="none" id="Project-SourceRepository" style="stroke: #A80036; stroke-width: 1.0;"/><polygon fill="#A80036" points="126.0097,314.7329,128.9307,321.3259,136.14,321.1654,133.219,314.5723,126.0097,314.7329" style="stroke: #A80036; stroke-width: 1.0;"/><text fill="#000000" font-family="sans-serif" font-size="13" lengthAdjust="spacingAndGlyphs" textLength="114" x="157" y="328.0669">source_repository</text><text fill="#000000" font-family="sans-serif" font-size="13" lengthAdjust="spacingAndGlyphs" textLength="24" x="270.0789" y="388.4386">0..1</text><!--link Project to Document--><path d="M137.9379,228.7513 C144.0256,225.7456 150.1057,222.7935 156,220 C211.3733,193.7569 275.7996,165.8802 319.9824,147.1616 " fill="none" id="Project-Document" style="stroke: #A80036; stroke-width: 1.0;"/><polygon fill="#A80036" points="126.2684,234.5701,133.4228,235.4723,137.0073,229.2152,129.8529,228.313,126.2684,234.5701" style="stroke: #A80036; stroke-width: 1.0;"/><text fill="#000000" font-family="sans-serif" font-size="13" lengthAdjust="spacingAndGlyphs" textLength="65" x="181.5" y="166.0669">document</text><text fill="#000000" font-family="sans-serif" font-size="13" lengthAdjust="spacingAndGlyphs" textLength="24" x="288.0584" y="162.8502">0..1</text><!--link Project to Module--><path d="M139.3425,250.0955 C144.9599,249.2565 150.5591,248.5388 156,248 C207.3047,242.9198 220.6448,243.4596 272,248 C286.637,249.2941 302.3293,251.6235 316.8767,254.1865 " fill="none" id="Project-Module" style="stroke: #A80036; stroke-width: 1.0;"/><polygon fill="#A80036" points="126.2684,252.2461,132.8381,255.2191,138.1093,250.2983,131.5396,247.3252,126.2684,252.2461" style="stroke: #A80036; stroke-width: 1.0;"/><text fill="#000000" font-family="sans-serif" font-size="13" lengthAdjust="spacingAndGlyphs" textLength="47" x="190.5" y="241.0669">models</text><text fill="#000000" font-family="sans-serif" font-size="13" lengthAdjust="spacingAndGlyphs" textLength="7" x="301.8648" y="265.668">*</text><!--link Project to Module--><path d="M139.4942,272.187 C145.0767,272.5129 150.6265,272.7913 156,273 C207.5167,275.0004 220.4753,274.7834 272,273 C286.58,272.4954 302.3227,271.5821 316.9415,270.5783 " fill="none" id="Project-Module-1" style="stroke: #A80036; stroke-width: 1.0;"/><polygon fill="#A80036" points="126.4771,271.3514,132.2085,275.7276,138.4524,272.1202,132.721,267.744,126.4771,271.3514" style="stroke: #A80036; stroke-width: 1.0;"/><text fill="#000000" font-family="sans-serif" font-size="13" lengthAdjust="spacingAndGlyphs" textLength="65" x="181.5" y="269.0669">templates</text><text fill="#000000" font-family="sans-serif" font-size="13" lengthAdjust="spacingAndGlyphs" textLength="7" x="301.9383" y="284.2624">*</text><!--link Project to Module--><path d="M138.7118,295.9632 C144.4931,297.5764 150.3004,298.9593 156,300 C206.717,309.2605 221.1225,308.3338 272,300 C286.8805,297.5626 302.5229,293.2311 316.934,288.4586 " fill="none" id="Project-Module-2" style="stroke: #A80036; stroke-width: 1.0;"/><polygon fill="#A80036" points="126.1489,292.1069,130.7109,297.6915,137.6206,295.6283,133.0586,290.0437,126.1489,292.1069" style="stroke: #A80036; stroke-width: 1.0;"/><text fill="#000000" font-family="sans-serif" font-size="13" lengthAdjust="spacingAndGlyphs" textLength="58" x="185" y="296.0669">schemas</text><text fill="#000000" font-family="sans-serif" font-size="13" lengthAdjust="spacingAndGlyphs" textLength="7" x="301.9298" y="304.5454">*</text><!--
@startuml
left to right direction


class Document [[/blob/master/doc/entities/Document.md]] {
  [[/blob/master/doc/entities/Document.md#title-string title]]: <color:GRAY>String</color>
  [[/blob/master/doc/entities/Document.md#author-string author]]: <color:GRAY>String?</color>
  [[/blob/master/doc/entities/Document.md#rights-string rights]]: <color:GRAY>String?</color>
  [[/blob/master/doc/entities/Document.md#language-string language]]: <color:GRAY>String</color>
  [[/blob/master/doc/entities/Document.md#abstract-string abstract]]: <color:GRAY>String</color>
}





package laplacian.project.document {
  class Section {
  }
}


Document *- - "*" Section : sections




class Section [[/blob/master/doc/entities/Section.md]] {
  <color:Green><&star></color>[[/blob/master/doc/entities/Section.md#title-string title]]: <color:GRAY>String</color>
  <color:Green><&star></color>[[/blob/master/doc/entities/Section.md#content-string content]]: <color:GRAY>String</color>
}






Section *- - "*" Section : sub_sections




class Module [[/blob/master/doc/entities/Module.md]] {
  <color:Green><&star></color>[[/blob/master/doc/entities/Module.md#name-string name]]: <color:GRAY>String</color>
  <color:Green><&star></color>[[/blob/master/doc/entities/Module.md#group-string group]]: <color:GRAY>String</color>
  <color:Green><&star></color>[[/blob/master/doc/entities/Module.md#version-string version]]: <color:GRAY>String</color>
  [[/blob/master/doc/entities/Module.md#artifact_id-string artifactId]](): <color:GRAY>String</color>
}




class Project [[/blob/master/doc/entities/Project.md]] {
  <color:RED><&key></color><color:Green><&star></color>[[/blob/master/doc/entities/Project.md#group-string group]]: <color:GRAY>String</color>
  <color:RED><&key></color><color:Green><&star></color>[[/blob/master/doc/entities/Project.md#name-string name]]: <color:GRAY>String</color>
  [[/blob/master/doc/entities/Project.md#type-string type]]: <color:GRAY>String</color>
  <color:Green><&star></color>[[/blob/master/doc/entities/Project.md#version-string version]]: <color:GRAY>String</color>
  [[/blob/master/doc/entities/Project.md#namespace-string namespace]]: <color:GRAY>String</color>
  [[/blob/master/doc/entities/Project.md#description-string description]]: <color:GRAY>String</color>
  [[/blob/master/doc/entities/Project.md#base_dir-string base_dir]]: <color:GRAY>String</color>
}






Project *- - "*" Project : subprojects






Project *- - "0..1" SourceRepository : source_repository






Project *- - "0..1" Document : document






Project *- - "*" Module : models






Project *- - "*" Module : templates






Project *- - "*" Module : schemas




class SourceRepository [[/blob/master/doc/entities/SourceRepository.md]] {
  <color:Green><&star></color>[[/blob/master/doc/entities/SourceRepository.md#url-string url]]: <color:GRAY>String</color>
  [[/blob/master/doc/entities/SourceRepository.md#branch-string branch]]: <color:GRAY>String</color>
}



@enduml

PlantUML version 1.2019.05(Sun Apr 21 01:45:36 JST 2019)
(GPL source distribution)
Java Runtime: OpenJDK Runtime Environment
JVM: OpenJDK 64-Bit Server VM
Java Version: 1.8.0_242-b20
Operating System: Linux
OS Version: 4.4.0-18362-Microsoft
Default Encoding: UTF-8
Language: en
Country: 
--></g></svg>