<?xml version="1.0" encoding="UTF-8" standalone="no"?><svg xmlns="http://www.w3.org/2000/svg" xmlns:xlink="http://www.w3.org/1999/xlink" contentScriptType="application/ecmascript" contentStyleType="text/css" height="384px" preserveAspectRatio="none" style="width:1288px;height:384px;" version="1.1" viewBox="0 0 1288 384" width="1288px" zoomAndPan="magnify"><defs><filter height="300%" id="f12folnmwssu9n" width="300%" x="-1" y="-1"><feGaussianBlur result="blurOut" stdDeviation="2.0"/><feColorMatrix in="blurOut" result="blurOut2" type="matrix" values="0 0 0 0 0 0 0 0 0 0 0 0 0 0 0 0 0 0 .4 0"/><feOffset dx="4.0" dy="4.0" in="blurOut2" result="blurOut3"/><feBlend in="SourceGraphic" in2="blurOut3" mode="normal"/></filter></defs><g><!--class LaplacianModule--><a href="/blob/master/doc/entities/LaplacianModule.md" target="_top" xlink:actuate="onRequest" xlink:show="new" xlink:title="/blob/master/doc/entities/LaplacianModule.md" xlink:type="simple"><rect fill="#FEFECE" filter="url(#f12folnmwssu9n)" height="229.3711" id="LaplacianModule" style="stroke: #A80036; stroke-width: 1.5;" width="186" x="1091" y="8"/><ellipse cx="1132.1" cy="24" fill="#ADD1B2" rx="11" ry="11" style="stroke: #A80036; stroke-width: 1.0;"/><path d="M1134.5731,30.1431 Q1133.9921,30.4419 1133.3529,30.5913 Q1132.7138,30.7407 1132.0082,30.7407 Q1129.5014,30.7407 1128.1815,29.0889 Q1126.8617,27.437 1126.8617,24.3159 Q1126.8617,21.1865 1128.1815,19.5347 Q1129.5014,17.8828 1132.0082,17.8828 Q1132.7138,17.8828 1133.3612,18.0322 Q1134.0087,18.1816 1134.5731,18.4805 L1134.5731,21.2031 Q1133.9423,20.6221 1133.3488,20.3523 Q1132.7553,20.0825 1132.1244,20.0825 Q1130.7797,20.0825 1130.0949,21.1492 Q1129.4101,22.2158 1129.4101,24.3159 Q1129.4101,26.4077 1130.0949,27.4744 Q1130.7797,28.541 1132.1244,28.541 Q1132.7553,28.541 1133.3488,28.2712 Q1133.9423,28.0015 1134.5731,27.4204 Z "/><text fill="#000000" font-family="sans-serif" font-size="12" lengthAdjust="spacingAndGlyphs" textLength="96" x="1151.9" y="28.5352">LaplacianModule</text><line style="stroke: #A80036; stroke-width: 1.5;" x1="1092" x2="1276" y1="40" y2="40"/><path d="M1103.0417,46.8717 C1101.7767,46.8717 1100.75,47.8984 1100.75,49.1634 C1100.75,49.3101 1100.7803,49.4357 1100.8078,49.5649 L1098,52.3727 L1098,54.206 L1100.75,54.206 L1100.75,52.3727 L1102.5833,52.3727 L1102.5833,51.456 L1102.6411,51.3982 C1102.7694,51.4257 1102.895,51.456 1103.0426,51.456 C1104.3076,51.456 1105.3343,50.4293 1105.3343,49.1643 C1105.3343,47.8993 1104.3076,46.8727 1103.0426,46.8727 M1103.5009,47.7893 C1104.0051,47.7893 1104.4176,48.2018 1104.4176,48.706 C1104.4176,49.2102 1104.0051,49.6227 1103.5009,49.6227 C1102.9968,49.6227 1102.5843,49.2102 1102.5843,48.706 C1102.5843,48.2018 1102.9968,47.7893 1103.5009,47.7893 " fill="#FF0000" style="stroke: ; stroke-width: 0.0; stroke-dasharray: ;"/><path d="M1111,46.8717 L1110.0833,49.6217 L1107.3333,49.6217 L1109.625,51.4551 L1108.7083,54.2051 L1111,52.3717 L1113.2917,54.2051 L1112.375,51.4551 L1114.6667,49.6217 L1111.9167,49.6217 L1111,46.8717 " fill="#008000" style="stroke: ; stroke-width: 0.0; stroke-dasharray: ;"/></a><a href="/blob/master/doc/entities/LaplacianModule.md#name-string" target="_top" xlink:actuate="onRequest" xlink:show="new" xlink:title="/blob/master/doc/entities/LaplacianModule.md#name-string" xlink:type="simple"><text fill="#0000FF" font-family="sans-serif" font-size="11" lengthAdjust="spacingAndGlyphs" text-decoration="underline" textLength="29" x="1115.6667" y="54.6348">name</text></a><text fill="#000000" font-family="sans-serif" font-size="11" lengthAdjust="spacingAndGlyphs" textLength="3" x="1144.6667" y="54.6348">:</text><text fill="#808080" font-family="sans-serif" font-size="11" lengthAdjust="spacingAndGlyphs" textLength="32" x="1150.6667" y="54.6348">String</text><path d="M1103.0417,59.8268 C1101.7767,59.8268 1100.75,60.8535 1100.75,62.1185 C1100.75,62.2652 1100.7803,62.3907 1100.8078,62.52 L1098,65.3277 L1098,67.1611 L1100.75,67.1611 L1100.75,65.3277 L1102.5833,65.3277 L1102.5833,64.4111 L1102.6411,64.3533 C1102.7694,64.3808 1102.895,64.4111 1103.0426,64.4111 C1104.3076,64.4111 1105.3343,63.3844 1105.3343,62.1194 C1105.3343,60.8544 1104.3076,59.8277 1103.0426,59.8277 M1103.5009,60.7444 C1104.0051,60.7444 1104.4176,61.1569 1104.4176,61.6611 C1104.4176,62.1652 1104.0051,62.5777 1103.5009,62.5777 C1102.9968,62.5777 1102.5843,62.1652 1102.5843,61.6611 C1102.5843,61.1569 1102.9968,60.7444 1103.5009,60.7444 " fill="#FF0000" style="stroke: ; stroke-width: 0.0; stroke-dasharray: ;"/><path d="M1111,59.8268 L1110.0833,62.5768 L1107.3333,62.5768 L1109.625,64.4102 L1108.7083,67.1602 L1111,65.3268 L1113.2917,67.1602 L1112.375,64.4102 L1114.6667,62.5768 L1111.9167,62.5768 L1111,59.8268 " fill="#008000" style="stroke: ; stroke-width: 0.0; stroke-dasharray: ;"/><a href="/blob/master/doc/entities/LaplacianModule.md#group-string" target="_top" xlink:actuate="onRequest" xlink:show="new" xlink:title="/blob/master/doc/entities/LaplacianModule.md#group-string" xlink:type="simple"><text fill="#0000FF" font-family="sans-serif" font-size="11" lengthAdjust="spacingAndGlyphs" text-decoration="underline" textLength="33" x="1115.6667" y="67.5898">group</text></a><text fill="#000000" font-family="sans-serif" font-size="11" lengthAdjust="spacingAndGlyphs" textLength="3" x="1148.6667" y="67.5898">:</text><text fill="#808080" font-family="sans-serif" font-size="11" lengthAdjust="spacingAndGlyphs" textLength="32" x="1154.6667" y="67.5898">String</text><a href="/blob/master/doc/entities/LaplacianModule.md#type-string" target="_top" xlink:actuate="onRequest" xlink:show="new" xlink:title="/blob/master/doc/entities/LaplacianModule.md#type-string" xlink:type="simple"><text fill="#0000FF" font-family="sans-serif" font-size="11" lengthAdjust="spacingAndGlyphs" text-decoration="underline" textLength="23" x="1097" y="80.5449">type</text></a><text fill="#000000" font-family="sans-serif" font-size="11" lengthAdjust="spacingAndGlyphs" textLength="3" x="1120" y="80.5449">:</text><text fill="#808080" font-family="sans-serif" font-size="11" lengthAdjust="spacingAndGlyphs" textLength="32" x="1126" y="80.5449">String</text><path d="M1103.0417,85.737 C1101.7767,85.737 1100.75,86.7636 1100.75,88.0286 C1100.75,88.1753 1100.7803,88.3009 1100.8078,88.4301 L1098,91.2379 L1098,93.0712 L1100.75,93.0712 L1100.75,91.2379 L1102.5833,91.2379 L1102.5833,90.3212 L1102.6411,90.2635 C1102.7694,90.291 1102.895,90.3212 1103.0426,90.3212 C1104.3076,90.3212 1105.3343,89.2946 1105.3343,88.0296 C1105.3343,86.7646 1104.3076,85.7379 1103.0426,85.7379 M1103.5009,86.6546 C1104.0051,86.6546 1104.4176,87.0671 1104.4176,87.5712 C1104.4176,88.0754 1104.0051,88.4879 1103.5009,88.4879 C1102.9968,88.4879 1102.5843,88.0754 1102.5843,87.5712 C1102.5843,87.0671 1102.9968,86.6546 1103.5009,86.6546 " fill="#FF0000" style="stroke: ; stroke-width: 0.0; stroke-dasharray: ;"/><a href="/blob/master/doc/entities/LaplacianModule.md#subname-string" target="_top" xlink:actuate="onRequest" xlink:show="new" xlink:title="/blob/master/doc/entities/LaplacianModule.md#subname-string" xlink:type="simple"><text fill="#0000FF" font-family="sans-serif" font-size="11" lengthAdjust="spacingAndGlyphs" text-decoration="underline" textLength="49" x="1106.3333" y="93.5">subname</text></a><text fill="#000000" font-family="sans-serif" font-size="11" lengthAdjust="spacingAndGlyphs" textLength="3" x="1155.3333" y="93.5">:</text><text fill="#808080" font-family="sans-serif" font-size="11" lengthAdjust="spacingAndGlyphs" textLength="37" x="1161.3333" y="93.5">String?</text><path d="M1101.6667,98.6921 L1100.75,101.4421 L1098,101.4421 L1100.2917,103.2754 L1099.375,106.0254 L1101.6667,104.1921 L1103.9583,106.0254 L1103.0417,103.2754 L1105.3333,101.4421 L1102.5833,101.4421 L1101.6667,98.6921 " fill="#008000" style="stroke: ; stroke-width: 0.0; stroke-dasharray: ;"/><a href="/blob/master/doc/entities/LaplacianModule.md#version-string" target="_top" xlink:actuate="onRequest" xlink:show="new" xlink:title="/blob/master/doc/entities/LaplacianModule.md#version-string" xlink:type="simple"><text fill="#0000FF" font-family="sans-serif" font-size="11" lengthAdjust="spacingAndGlyphs" text-decoration="underline" textLength="40" x="1106.3333" y="106.4551">version</text></a><text fill="#000000" font-family="sans-serif" font-size="11" lengthAdjust="spacingAndGlyphs" textLength="3" x="1146.3333" y="106.4551">:</text><text fill="#808080" font-family="sans-serif" font-size="11" lengthAdjust="spacingAndGlyphs" textLength="32" x="1152.3333" y="106.4551">String</text><a href="/blob/master/doc/entities/LaplacianModule.md#description-string" target="_top" xlink:actuate="onRequest" xlink:show="new" xlink:title="/blob/master/doc/entities/LaplacianModule.md#description-string" xlink:type="simple"><text fill="#0000FF" font-family="sans-serif" font-size="11" lengthAdjust="spacingAndGlyphs" text-decoration="underline" textLength="61" x="1097" y="119.4102">description</text></a><text fill="#000000" font-family="sans-serif" font-size="11" lengthAdjust="spacingAndGlyphs" textLength="3" x="1158" y="119.4102">:</text><text fill="#808080" font-family="sans-serif" font-size="11" lengthAdjust="spacingAndGlyphs" textLength="32" x="1164" y="119.4102">String</text><a href="/blob/master/doc/entities/LaplacianModule.md#repository-string" target="_top" xlink:actuate="onRequest" xlink:show="new" xlink:title="/blob/master/doc/entities/LaplacianModule.md#repository-string" xlink:type="simple"><text fill="#0000FF" font-family="sans-serif" font-size="11" lengthAdjust="spacingAndGlyphs" text-decoration="underline" textLength="56" x="1097" y="132.3652">repository</text></a><text fill="#000000" font-family="sans-serif" font-size="11" lengthAdjust="spacingAndGlyphs" textLength="3" x="1153" y="132.3652">:</text><text fill="#808080" font-family="sans-serif" font-size="11" lengthAdjust="spacingAndGlyphs" textLength="37" x="1159" y="132.3652">String?</text><line style="stroke: #A80036; stroke-width: 1.5;" x1="1092" x2="1276" y1="138.6855" y2="138.6855"/><a href="/blob/master/doc/entities/LaplacianModule.md#module_signature-listString" target="_top" xlink:actuate="onRequest" xlink:show="new" xlink:title="/blob/master/doc/entities/LaplacianModule.md#module_signature-listString" xlink:type="simple"><text fill="#0000FF" font-family="sans-serif" font-size="11" lengthAdjust="spacingAndGlyphs" text-decoration="underline" textLength="91" x="1097" y="153.3203">moduleSignature</text></a><text fill="#000000" font-family="sans-serif" font-size="11" lengthAdjust="spacingAndGlyphs" textLength="11" x="1188" y="153.3203">():</text><text fill="#808080" font-family="sans-serif" font-size="11" lengthAdjust="spacingAndGlyphs" textLength="69" x="1202" y="153.3203">List&lt;String&gt;</text><a href="/blob/master/doc/entities/LaplacianModule.md#module_id-string" target="_top" xlink:actuate="onRequest" xlink:show="new" xlink:title="/blob/master/doc/entities/LaplacianModule.md#module_id-string" xlink:type="simple"><text fill="#0000FF" font-family="sans-serif" font-size="11" lengthAdjust="spacingAndGlyphs" text-decoration="underline" textLength="50" x="1097" y="166.2754">moduleId</text></a><text fill="#000000" font-family="sans-serif" font-size="11" lengthAdjust="spacingAndGlyphs" textLength="11" x="1147" y="166.2754">():</text><text fill="#808080" font-family="sans-serif" font-size="11" lengthAdjust="spacingAndGlyphs" textLength="32" x="1161" y="166.2754">String</text><a href="/blob/master/doc/entities/LaplacianModule.md#artifact_id-string" target="_top" xlink:actuate="onRequest" xlink:show="new" xlink:title="/blob/master/doc/entities/LaplacianModule.md#artifact_id-string" xlink:type="simple"><text fill="#0000FF" font-family="sans-serif" font-size="11" lengthAdjust="spacingAndGlyphs" text-decoration="underline" textLength="48" x="1097" y="179.2305">artifactId</text></a><text fill="#000000" font-family="sans-serif" font-size="11" lengthAdjust="spacingAndGlyphs" textLength="11" x="1145" y="179.2305">():</text><text fill="#808080" font-family="sans-serif" font-size="11" lengthAdjust="spacingAndGlyphs" textLength="32" x="1159" y="179.2305">String</text><a href="/blob/master/doc/entities/LaplacianModule.md#for_template-boolean" target="_top" xlink:actuate="onRequest" xlink:show="new" xlink:title="/blob/master/doc/entities/LaplacianModule.md#for_template-boolean" xlink:type="simple"><text fill="#0000FF" font-family="sans-serif" font-size="11" lengthAdjust="spacingAndGlyphs" text-decoration="underline" textLength="65" x="1097" y="192.1855">forTemplate</text></a><text fill="#000000" font-family="sans-serif" font-size="11" lengthAdjust="spacingAndGlyphs" textLength="11" x="1162" y="192.1855">():</text><text fill="#808080" font-family="sans-serif" font-size="11" lengthAdjust="spacingAndGlyphs" textLength="42" x="1176" y="192.1855">Boolean</text><a href="/blob/master/doc/entities/LaplacianModule.md#for_model-boolean" target="_top" xlink:actuate="onRequest" xlink:show="new" xlink:title="/blob/master/doc/entities/LaplacianModule.md#for_model-boolean" xlink:type="simple"><text fill="#0000FF" font-family="sans-serif" font-size="11" lengthAdjust="spacingAndGlyphs" text-decoration="underline" textLength="48" x="1097" y="205.1406">forModel</text></a><text fill="#000000" font-family="sans-serif" font-size="11" lengthAdjust="spacingAndGlyphs" textLength="11" x="1145" y="205.1406">():</text><text fill="#808080" font-family="sans-serif" font-size="11" lengthAdjust="spacingAndGlyphs" textLength="42" x="1159" y="205.1406">Boolean</text><a href="/blob/master/doc/entities/LaplacianModule.md#for_plugin-boolean" target="_top" xlink:actuate="onRequest" xlink:show="new" xlink:title="/blob/master/doc/entities/LaplacianModule.md#for_plugin-boolean" xlink:type="simple"><text fill="#0000FF" font-family="sans-serif" font-size="11" lengthAdjust="spacingAndGlyphs" text-decoration="underline" textLength="49" x="1097" y="218.0957">forPlugin</text></a><text fill="#000000" font-family="sans-serif" font-size="11" lengthAdjust="spacingAndGlyphs" textLength="11" x="1146" y="218.0957">():</text><text fill="#808080" font-family="sans-serif" font-size="11" lengthAdjust="spacingAndGlyphs" textLength="42" x="1160" y="218.0957">Boolean</text><a href="/blob/master/doc/entities/LaplacianModule.md#for_generator-boolean" target="_top" xlink:actuate="onRequest" xlink:show="new" xlink:title="/blob/master/doc/entities/LaplacianModule.md#for_generator-boolean" xlink:type="simple"><text fill="#0000FF" font-family="sans-serif" font-size="11" lengthAdjust="spacingAndGlyphs" text-decoration="underline" textLength="70" x="1097" y="231.0508">forGenerator</text></a><text fill="#000000" font-family="sans-serif" font-size="11" lengthAdjust="spacingAndGlyphs" textLength="11" x="1167" y="231.0508">():</text><text fill="#808080" font-family="sans-serif" font-size="11" lengthAdjust="spacingAndGlyphs" textLength="42" x="1181" y="231.0508">Boolean</text><!--class LaplacianProject--><a href="/blob/master/doc/entities/LaplacianProject.md" target="_top" xlink:actuate="onRequest" xlink:show="new" xlink:title="/blob/master/doc/entities/LaplacianProject.md" xlink:type="simple"><rect fill="#FEFECE" filter="url(#f12folnmwssu9n)" height="99.8203" id="LaplacianProject" style="stroke: #A80036; stroke-width: 1.5;" width="352" x="6" y="139.5"/><ellipse cx="130.75" cy="155.5" fill="#ADD1B2" rx="11" ry="11" style="stroke: #A80036; stroke-width: 1.0;"/><path d="M133.2231,161.6431 Q132.6421,161.9419 132.0029,162.0913 Q131.3638,162.2407 130.6582,162.2407 Q128.1514,162.2407 126.8315,160.5889 Q125.5117,158.937 125.5117,155.8159 Q125.5117,152.6865 126.8315,151.0347 Q128.1514,149.3828 130.6582,149.3828 Q131.3638,149.3828 132.0112,149.5322 Q132.6587,149.6816 133.2231,149.9805 L133.2231,152.7031 Q132.5923,152.1221 131.9988,151.8523 Q131.4053,151.5825 130.7744,151.5825 Q129.4297,151.5825 128.7449,152.6492 Q128.0601,153.7158 128.0601,155.8159 Q128.0601,157.9077 128.7449,158.9744 Q129.4297,160.041 130.7744,160.041 Q131.4053,160.041 131.9988,159.7712 Q132.5923,159.5015 133.2231,158.9204 Z "/><text fill="#000000" font-family="sans-serif" font-size="12" lengthAdjust="spacingAndGlyphs" textLength="94" x="151.25" y="160.0352">LaplacianProject</text><line style="stroke: #A80036; stroke-width: 1.5;" x1="7" x2="357" y1="171.5" y2="171.5"/></a><a href="/blob/master/doc/entities/LaplacianProject.md#namespace-string" target="_top" xlink:actuate="onRequest" xlink:show="new" xlink:title="/blob/master/doc/entities/LaplacianProject.md#namespace-string" xlink:type="simple"><text fill="#0000FF" font-family="sans-serif" font-size="11" lengthAdjust="spacingAndGlyphs" text-decoration="underline" textLength="60" x="12" y="186.1348">namespace</text></a><text fill="#000000" font-family="sans-serif" font-size="11" lengthAdjust="spacingAndGlyphs" textLength="3" x="72" y="186.1348">:</text><text fill="#808080" font-family="sans-serif" font-size="11" lengthAdjust="spacingAndGlyphs" textLength="32" x="78" y="186.1348">String</text><line style="stroke: #A80036; stroke-width: 1.5;" x1="7" x2="357" y1="192.4551" y2="192.4551"/><a href="/blob/master/doc/entities/LaplacianProject.md#plugins_excluding_self-listLaplacianPluginDependency" target="_top" xlink:actuate="onRequest" xlink:show="new" xlink:title="/blob/master/doc/entities/LaplacianProject.md#plugins_excluding_self-listLaplacianPluginDependency" xlink:type="simple"><text fill="#0000FF" font-family="sans-serif" font-size="11" lengthAdjust="spacingAndGlyphs" text-decoration="underline" textLength="112" x="12" y="207.0898">pluginsExcludingSelf</text></a><text fill="#000000" font-family="sans-serif" font-size="11" lengthAdjust="spacingAndGlyphs" textLength="11" x="124" y="207.0898">():</text><text fill="#808080" font-family="sans-serif" font-size="11" lengthAdjust="spacingAndGlyphs" textLength="186" x="138" y="207.0898">List&lt;LaplacianPluginDependency&gt;</text><a href="/blob/master/doc/entities/LaplacianProject.md#models_excluding_self-listLaplacianModelDependency" target="_top" xlink:actuate="onRequest" xlink:show="new" xlink:title="/blob/master/doc/entities/LaplacianProject.md#models_excluding_self-listLaplacianModelDependency" xlink:type="simple"><text fill="#0000FF" font-family="sans-serif" font-size="11" lengthAdjust="spacingAndGlyphs" text-decoration="underline" textLength="111" x="12" y="220.0449">modelsExcludingSelf</text></a><text fill="#000000" font-family="sans-serif" font-size="11" lengthAdjust="spacingAndGlyphs" textLength="11" x="123" y="220.0449">():</text><text fill="#808080" font-family="sans-serif" font-size="11" lengthAdjust="spacingAndGlyphs" textLength="185" x="137" y="220.0449">List&lt;LaplacianModelDependency&gt;</text><a href="/blob/master/doc/entities/LaplacianProject.md#templates_excluding_self-listLaplacianTemplateDependency" target="_top" xlink:actuate="onRequest" xlink:show="new" xlink:title="/blob/master/doc/entities/LaplacianProject.md#templates_excluding_self-listLaplacianTemplateDependency" xlink:type="simple"><text fill="#0000FF" font-family="sans-serif" font-size="11" lengthAdjust="spacingAndGlyphs" text-decoration="underline" textLength="124" x="12" y="233">templatesExcludingSelf</text></a><text fill="#000000" font-family="sans-serif" font-size="11" lengthAdjust="spacingAndGlyphs" textLength="11" x="136" y="233">():</text><text fill="#808080" font-family="sans-serif" font-size="11" lengthAdjust="spacingAndGlyphs" textLength="202" x="150" y="233">List&lt;LaplacianTemplateDependency&gt;</text><!--class LaplacianPluginDependency--><a href="/blob/master/doc/entities/LaplacianPluginDependency.md" target="_top" xlink:actuate="onRequest" xlink:show="new" xlink:title="/blob/master/doc/entities/LaplacianPluginDependency.md" xlink:type="simple"><rect fill="#FEFECE" filter="url(#f12folnmwssu9n)" height="60.9551" id="LaplacianPluginDependency" style="stroke: #A80036; stroke-width: 1.5;" width="192" x="492.5" y="121"/><ellipse cx="507.5" cy="137" fill="#ADD1B2" rx="11" ry="11" style="stroke: #A80036; stroke-width: 1.0;"/><path d="M509.9731,143.1431 Q509.3921,143.4419 508.7529,143.5913 Q508.1138,143.7407 507.4082,143.7407 Q504.9014,143.7407 503.5815,142.0889 Q502.2617,140.437 502.2617,137.3159 Q502.2617,134.1865 503.5815,132.5347 Q504.9014,130.8828 507.4082,130.8828 Q508.1138,130.8828 508.7612,131.0322 Q509.4087,131.1816 509.9731,131.4805 L509.9731,134.2031 Q509.3423,133.6221 508.7488,133.3523 Q508.1553,133.0825 507.5244,133.0825 Q506.1797,133.0825 505.4949,134.1492 Q504.8101,135.2158 504.8101,137.3159 Q504.8101,139.4077 505.4949,140.4744 Q506.1797,141.541 507.5244,141.541 Q508.1553,141.541 508.7488,141.2712 Q509.3423,141.0015 509.9731,140.4204 Z "/><text fill="#000000" font-family="sans-serif" font-size="12" lengthAdjust="spacingAndGlyphs" textLength="160" x="521.5" y="141.5352">LaplacianPluginDependency</text><line style="stroke: #A80036; stroke-width: 1.5;" x1="493.5" x2="683.5" y1="153" y2="153"/><line style="stroke: #A80036; stroke-width: 1.5;" x1="493.5" x2="683.5" y1="161" y2="161"/><path d="M503.1383,167.8717 L500.4167,170.6217 L502.25,170.6217 L502.25,175.2051 L504.0833,175.2051 L504.0833,170.6217 L505.9167,170.6217 L503.1383,167.8717 " fill="#008000" style="stroke: ; stroke-width: 0.0; stroke-dasharray: ;"/></a><a href="/blob/master/doc/entities/LaplacianPluginDependency.md#type-string" target="_top" xlink:actuate="onRequest" xlink:show="new" xlink:title="/blob/master/doc/entities/LaplacianPluginDependency.md#type-string" xlink:type="simple"><text fill="#0000FF" font-family="sans-serif" font-size="11" lengthAdjust="spacingAndGlyphs" text-decoration="underline" textLength="23" x="507.8333" y="175.6348">type</text></a><text fill="#000000" font-family="sans-serif" font-size="11" lengthAdjust="spacingAndGlyphs" textLength="11" x="530.8333" y="175.6348">():</text><text fill="#808080" font-family="sans-serif" font-size="11" lengthAdjust="spacingAndGlyphs" textLength="32" x="544.8333" y="175.6348">String</text><!--class LaplacianModelDependency--><a href="/blob/master/doc/entities/LaplacianModelDependency.md" target="_top" xlink:actuate="onRequest" xlink:show="new" xlink:title="/blob/master/doc/entities/LaplacianModelDependency.md" xlink:type="simple"><rect fill="#FEFECE" filter="url(#f12folnmwssu9n)" height="60.9551" id="LaplacianModelDependency" style="stroke: #A80036; stroke-width: 1.5;" width="193" x="492" y="217"/><ellipse cx="507" cy="233" fill="#ADD1B2" rx="11" ry="11" style="stroke: #A80036; stroke-width: 1.0;"/><path d="M509.4731,239.1431 Q508.8921,239.4419 508.2529,239.5913 Q507.6138,239.7407 506.9082,239.7407 Q504.4014,239.7407 503.0815,238.0889 Q501.7617,236.437 501.7617,233.3159 Q501.7617,230.1865 503.0815,228.5347 Q504.4014,226.8828 506.9082,226.8828 Q507.6138,226.8828 508.2612,227.0322 Q508.9087,227.1816 509.4731,227.4805 L509.4731,230.2031 Q508.8423,229.6221 508.2488,229.3523 Q507.6553,229.0825 507.0244,229.0825 Q505.6797,229.0825 504.9949,230.1492 Q504.3101,231.2158 504.3101,233.3159 Q504.3101,235.4077 504.9949,236.4744 Q505.6797,237.541 507.0244,237.541 Q507.6553,237.541 508.2488,237.2712 Q508.8423,237.0015 509.4731,236.4204 Z "/><text fill="#000000" font-family="sans-serif" font-size="12" lengthAdjust="spacingAndGlyphs" textLength="161" x="521" y="237.5352">LaplacianModelDependency</text><line style="stroke: #A80036; stroke-width: 1.5;" x1="493" x2="684" y1="249" y2="249"/><line style="stroke: #A80036; stroke-width: 1.5;" x1="493" x2="684" y1="257" y2="257"/><path d="M502.6383,263.8717 L499.9167,266.6217 L501.75,266.6217 L501.75,271.2051 L503.5833,271.2051 L503.5833,266.6217 L505.4167,266.6217 L502.6383,263.8717 " fill="#008000" style="stroke: ; stroke-width: 0.0; stroke-dasharray: ;"/></a><a href="/blob/master/doc/entities/LaplacianModelDependency.md#type-string" target="_top" xlink:actuate="onRequest" xlink:show="new" xlink:title="/blob/master/doc/entities/LaplacianModelDependency.md#type-string" xlink:type="simple"><text fill="#0000FF" font-family="sans-serif" font-size="11" lengthAdjust="spacingAndGlyphs" text-decoration="underline" textLength="23" x="507.3333" y="271.6348">type</text></a><text fill="#000000" font-family="sans-serif" font-size="11" lengthAdjust="spacingAndGlyphs" textLength="11" x="530.3333" y="271.6348">():</text><text fill="#808080" font-family="sans-serif" font-size="11" lengthAdjust="spacingAndGlyphs" textLength="32" x="544.3333" y="271.6348">String</text><!--class LaplacianTemplateDependency--><a href="/blob/master/doc/entities/LaplacianTemplateDependency.md" target="_top" xlink:actuate="onRequest" xlink:show="new" xlink:title="/blob/master/doc/entities/LaplacianTemplateDependency.md" xlink:type="simple"><rect fill="#FEFECE" filter="url(#f12folnmwssu9n)" height="60.9551" id="LaplacianTemplateDependency" style="stroke: #A80036; stroke-width: 1.5;" width="213" x="482" y="313"/><ellipse cx="497" cy="329" fill="#ADD1B2" rx="11" ry="11" style="stroke: #A80036; stroke-width: 1.0;"/><path d="M499.4731,335.1431 Q498.8921,335.4419 498.2529,335.5913 Q497.6138,335.7407 496.9082,335.7407 Q494.4014,335.7407 493.0815,334.0889 Q491.7617,332.437 491.7617,329.3159 Q491.7617,326.1865 493.0815,324.5347 Q494.4014,322.8828 496.9082,322.8828 Q497.6138,322.8828 498.2612,323.0322 Q498.9087,323.1816 499.4731,323.4805 L499.4731,326.2031 Q498.8423,325.6221 498.2488,325.3523 Q497.6553,325.0825 497.0244,325.0825 Q495.6797,325.0825 494.9949,326.1492 Q494.3101,327.2158 494.3101,329.3159 Q494.3101,331.4077 494.9949,332.4744 Q495.6797,333.541 497.0244,333.541 Q497.6553,333.541 498.2488,333.2712 Q498.8423,333.0015 499.4731,332.4204 Z "/><text fill="#000000" font-family="sans-serif" font-size="12" lengthAdjust="spacingAndGlyphs" textLength="181" x="511" y="333.5352">LaplacianTemplateDependency</text><line style="stroke: #A80036; stroke-width: 1.5;" x1="483" x2="694" y1="345" y2="345"/><line style="stroke: #A80036; stroke-width: 1.5;" x1="483" x2="694" y1="353" y2="353"/><path d="M492.6383,359.8717 L489.9167,362.6217 L491.75,362.6217 L491.75,367.2051 L493.5833,367.2051 L493.5833,362.6217 L495.4167,362.6217 L492.6383,359.8717 " fill="#008000" style="stroke: ; stroke-width: 0.0; stroke-dasharray: ;"/></a><a href="/blob/master/doc/entities/LaplacianTemplateDependency.md#type-string" target="_top" xlink:actuate="onRequest" xlink:show="new" xlink:title="/blob/master/doc/entities/LaplacianTemplateDependency.md#type-string" xlink:type="simple"><text fill="#0000FF" font-family="sans-serif" font-size="11" lengthAdjust="spacingAndGlyphs" text-decoration="underline" textLength="23" x="497.3333" y="367.6348">type</text></a><text fill="#000000" font-family="sans-serif" font-size="11" lengthAdjust="spacingAndGlyphs" textLength="11" x="520.3333" y="367.6348">():</text><text fill="#808080" font-family="sans-serif" font-size="11" lengthAdjust="spacingAndGlyphs" textLength="32" x="534.3333" y="367.6348">String</text><!--class LaplacianModuleDependency--><a href="/blob/master/doc/entities/LaplacianModuleDependency.md" target="_top" xlink:actuate="onRequest" xlink:show="new" xlink:title="/blob/master/doc/entities/LaplacianModuleDependency.md" xlink:type="simple"><rect fill="#FEFECE" filter="url(#f12folnmwssu9n)" height="112.7754" id="LaplacianModuleDependency" style="stroke: #A80036; stroke-width: 1.5;" width="200" x="756" y="156"/><ellipse cx="771" cy="172" fill="#ADD1B2" rx="11" ry="11" style="stroke: #A80036; stroke-width: 1.0;"/><path d="M773.4731,178.1431 Q772.8921,178.4419 772.2529,178.5913 Q771.6138,178.7407 770.9082,178.7407 Q768.4014,178.7407 767.0815,177.0889 Q765.7617,175.437 765.7617,172.3159 Q765.7617,169.1865 767.0815,167.5347 Q768.4014,165.8828 770.9082,165.8828 Q771.6138,165.8828 772.2612,166.0322 Q772.9087,166.1816 773.4731,166.4805 L773.4731,169.2031 Q772.8423,168.6221 772.2488,168.3523 Q771.6553,168.0825 771.0244,168.0825 Q769.6797,168.0825 768.9949,169.1492 Q768.3101,170.2158 768.3101,172.3159 Q768.3101,174.4077 768.9949,175.4744 Q769.6797,176.541 771.0244,176.541 Q771.6553,176.541 772.2488,176.2712 Q772.8423,176.0015 773.4731,175.4204 Z "/><text fill="#000000" font-family="sans-serif" font-size="12" lengthAdjust="spacingAndGlyphs" textLength="168" x="785" y="176.5352">LaplacianModuleDependency</text><line style="stroke: #A80036; stroke-width: 1.5;" x1="757" x2="955" y1="188" y2="188"/><path d="M766.6667,194.8717 L765.75,197.6217 L763,197.6217 L765.2917,199.4551 L764.375,202.2051 L766.6667,200.3717 L768.9583,202.2051 L768.0417,199.4551 L770.3333,197.6217 L767.5833,197.6217 L766.6667,194.8717 " fill="#008000" style="stroke: ; stroke-width: 0.0; stroke-dasharray: ;"/></a><a href="/blob/master/doc/entities/LaplacianModuleDependency.md#group-string" target="_top" xlink:actuate="onRequest" xlink:show="new" xlink:title="/blob/master/doc/entities/LaplacianModuleDependency.md#group-string" xlink:type="simple"><text fill="#0000FF" font-family="sans-serif" font-size="11" lengthAdjust="spacingAndGlyphs" text-decoration="underline" textLength="33" x="771.3333" y="202.6348">group</text></a><text fill="#000000" font-family="sans-serif" font-size="11" lengthAdjust="spacingAndGlyphs" textLength="3" x="804.3333" y="202.6348">:</text><text fill="#808080" font-family="sans-serif" font-size="11" lengthAdjust="spacingAndGlyphs" textLength="32" x="810.3333" y="202.6348">String</text><path d="M766.6667,207.8268 L765.75,210.5768 L763,210.5768 L765.2917,212.4102 L764.375,215.1602 L766.6667,213.3268 L768.9583,215.1602 L768.0417,212.4102 L770.3333,210.5768 L767.5833,210.5768 L766.6667,207.8268 " fill="#008000" style="stroke: ; stroke-width: 0.0; stroke-dasharray: ;"/><a href="/blob/master/doc/entities/LaplacianModuleDependency.md#name-string" target="_top" xlink:actuate="onRequest" xlink:show="new" xlink:title="/blob/master/doc/entities/LaplacianModuleDependency.md#name-string" xlink:type="simple"><text fill="#0000FF" font-family="sans-serif" font-size="11" lengthAdjust="spacingAndGlyphs" text-decoration="underline" textLength="29" x="771.3333" y="215.5898">name</text></a><text fill="#000000" font-family="sans-serif" font-size="11" lengthAdjust="spacingAndGlyphs" textLength="3" x="800.3333" y="215.5898">:</text><text fill="#808080" font-family="sans-serif" font-size="11" lengthAdjust="spacingAndGlyphs" textLength="32" x="806.3333" y="215.5898">String</text><a href="/blob/master/doc/entities/LaplacianModuleDependency.md#subname-string" target="_top" xlink:actuate="onRequest" xlink:show="new" xlink:title="/blob/master/doc/entities/LaplacianModuleDependency.md#subname-string" xlink:type="simple"><text fill="#0000FF" font-family="sans-serif" font-size="11" lengthAdjust="spacingAndGlyphs" text-decoration="underline" textLength="49" x="762" y="228.5449">subname</text></a><text fill="#000000" font-family="sans-serif" font-size="11" lengthAdjust="spacingAndGlyphs" textLength="3" x="811" y="228.5449">:</text><text fill="#808080" font-family="sans-serif" font-size="11" lengthAdjust="spacingAndGlyphs" textLength="37" x="817" y="228.5449">String?</text><path d="M766.6667,233.737 L765.75,236.487 L763,236.487 L765.2917,238.3203 L764.375,241.0703 L766.6667,239.237 L768.9583,241.0703 L768.0417,238.3203 L770.3333,236.487 L767.5833,236.487 L766.6667,233.737 " fill="#008000" style="stroke: ; stroke-width: 0.0; stroke-dasharray: ;"/><a href="/blob/master/doc/entities/LaplacianModuleDependency.md#version-string" target="_top" xlink:actuate="onRequest" xlink:show="new" xlink:title="/blob/master/doc/entities/LaplacianModuleDependency.md#version-string" xlink:type="simple"><text fill="#0000FF" font-family="sans-serif" font-size="11" lengthAdjust="spacingAndGlyphs" text-decoration="underline" textLength="40" x="771.3333" y="241.5">version</text></a><text fill="#000000" font-family="sans-serif" font-size="11" lengthAdjust="spacingAndGlyphs" textLength="3" x="811.3333" y="241.5">:</text><text fill="#808080" font-family="sans-serif" font-size="11" lengthAdjust="spacingAndGlyphs" textLength="32" x="817.3333" y="241.5">String</text><path d="M766.6667,246.6921 L765.75,249.4421 L763,249.4421 L765.2917,251.2754 L764.375,254.0254 L766.6667,252.1921 L768.9583,254.0254 L768.0417,251.2754 L770.3333,249.4421 L767.5833,249.4421 L766.6667,246.6921 " fill="#008000" style="stroke: ; stroke-width: 0.0; stroke-dasharray: ;"/><a href="/blob/master/doc/entities/LaplacianModuleDependency.md#type-string" target="_top" xlink:actuate="onRequest" xlink:show="new" xlink:title="/blob/master/doc/entities/LaplacianModuleDependency.md#type-string" xlink:type="simple"><text fill="#0000FF" font-family="sans-serif" font-size="11" lengthAdjust="spacingAndGlyphs" text-decoration="underline" textLength="23" x="771.3333" y="254.4551">type</text></a><text fill="#000000" font-family="sans-serif" font-size="11" lengthAdjust="spacingAndGlyphs" textLength="3" x="794.3333" y="254.4551">:</text><text fill="#808080" font-family="sans-serif" font-size="11" lengthAdjust="spacingAndGlyphs" textLength="32" x="800.3333" y="254.4551">String</text><line style="stroke: #A80036; stroke-width: 1.5;" x1="757" x2="955" y1="260.7754" y2="260.7754"/><!--link LaplacianProject to LaplacianModule--><path d="M325.9567,139.4193 C374.8539,124.7851 430.2238,110.7748 482,103.5 C688.0594,74.5479 931.3851,92.645 1070.6986,107.9253 " fill="none" id="LaplacianProject-LaplacianModule" style="stroke: #A80036; stroke-width: 1.0;"/><polygon fill="none" points="1071.8065,101.0057,1090.8968,110.2014,1070.2387,114.9177,1071.8065,101.0057" style="stroke: #A80036; stroke-width: 1.0;"/><!--link LaplacianProject to LaplacianPluginDependency--><path d="M371.2353,171.8101 C413.2569,167.8819 456.0811,163.8786 492.4774,160.4763 " fill="none" id="LaplacianProject-LaplacianPluginDependency" style="stroke: #A80036; stroke-width: 1.0;"/><polygon fill="#A80036" points="358.2279,173.026,364.5742,176.4502,370.1758,171.9091,363.8295,168.4849,358.2279,173.026" style="stroke: #A80036; stroke-width: 1.0;"/><text fill="#000000" font-family="sans-serif" font-size="13" lengthAdjust="spacingAndGlyphs" textLength="47" x="396.5" y="162.0684">plugins</text><text fill="#000000" font-family="sans-serif" font-size="13" lengthAdjust="spacingAndGlyphs" textLength="6" x="478.5865" y="174.3718">*</text><!--link LaplacianProject to LaplacianModelDependency--><path d="M371.1747,216.4917 C413,222.4594 455.624,228.5411 491.9165,233.7193 " fill="none" id="LaplacianProject-LaplacianModelDependency" style="stroke: #A80036; stroke-width: 1.0;"/><polygon fill="#A80036" points="358.2279,214.6445,363.6027,219.4519,370.1076,216.3395,364.7328,211.5321,358.2279,214.6445" style="stroke: #A80036; stroke-width: 1.0;"/><text fill="#000000" font-family="sans-serif" font-size="13" lengthAdjust="spacingAndGlyphs" textLength="46" x="397" y="217.0684">models</text><text fill="#000000" font-family="sans-serif" font-size="13" lengthAdjust="spacingAndGlyphs" textLength="6" x="477.9809" y="245.8013">*</text><!--link LaplacianProject to LaplacianTemplateDependency--><path d="M326.7309,244.3304 C387.6375,267.4045 456.2084,293.3822 507.8862,312.96 " fill="none" id="LaplacianProject-LaplacianTemplateDependency" style="stroke: #A80036; stroke-width: 1.0;"/><polygon fill="#A80036" points="314.2598,239.6058,318.4536,245.472,325.4815,243.8571,321.2877,237.9909,314.2598,239.6058" style="stroke: #A80036; stroke-width: 1.0;"/><text fill="#000000" font-family="sans-serif" font-size="13" lengthAdjust="spacingAndGlyphs" textLength="62" x="389" y="268.0684">templates</text><text fill="#000000" font-family="sans-serif" font-size="13" lengthAdjust="spacingAndGlyphs" textLength="6" x="483.5957" y="302.246">*</text><!--link LaplacianModuleDependency to LaplacianModule--><path d="M956.1931,185.008 C999.0532,173.2476 1048.8016,159.5971 1090.8549,148.0581 " fill="none" id="LaplacianModuleDependency-LaplacianModule" style="stroke: #A80036; stroke-width: 1.0;"/><text fill="#000000" font-family="sans-serif" font-size="13" lengthAdjust="spacingAndGlyphs" textLength="73" x="987" y="154.0684">depends_to</text><text fill="#000000" font-family="sans-serif" font-size="13" lengthAdjust="spacingAndGlyphs" textLength="8" x="1075.1136" y="163.2584">1</text><!--link LaplacianModelDependency to LaplacianModuleDependency--><path d="M685.0736,234.8642 C701.6383,232.6969 719.0294,230.4214 736.1154,228.1858 " fill="none" id="LaplacianModelDependency-LaplacianModuleDependency" style="stroke: #A80036; stroke-width: 1.0;"/><polygon fill="none" points="735.2258,221.2427,755.9649,225.5887,737.0421,235.1243,735.2258,221.2427" style="stroke: #A80036; stroke-width: 1.0;"/><!--link LaplacianTemplateDependency to LaplacianModuleDependency--><path d="M657.7784,312.9119 C670.2236,307.2366 683.0369,301.2746 695,295.5 C708.9389,288.7716 723.4693,281.5624 737.8484,274.306 " fill="none" id="LaplacianTemplateDependency-LaplacianModuleDependency" style="stroke: #A80036; stroke-width: 1.0;"/><polygon fill="none" points="734.9237,267.9403,755.9251,265.1219,741.2651,280.4218,734.9237,267.9403" style="stroke: #A80036; stroke-width: 1.0;"/><!--link LaplacianPluginDependency to LaplacianModuleDependency--><path d="M684.6957,173.4362 C701.3651,177.2375 718.8813,181.2318 736.0888,185.1558 " fill="none" id="LaplacianPluginDependency-LaplacianModuleDependency" style="stroke: #A80036; stroke-width: 1.0;"/><polygon fill="none" points="737.7556,178.3561,755.6987,189.6276,734.643,192.0057,737.7556,178.3561" style="stroke: #A80036; stroke-width: 1.0;"/><!--
@startuml
left to right direction


class LaplacianModule [[/blob/master/doc/entities/LaplacianModule.md]] {
  <color:RED><&key></color><color:Green><&star></color>[[/blob/master/doc/entities/LaplacianModule.md#name-string name]]: <color:GRAY>String</color>
  <color:RED><&key></color><color:Green><&star></color>[[/blob/master/doc/entities/LaplacianModule.md#group-string group]]: <color:GRAY>String</color>
  [[/blob/master/doc/entities/LaplacianModule.md#type-string type]]: <color:GRAY>String</color>
  <color:RED><&key></color>[[/blob/master/doc/entities/LaplacianModule.md#subname-string subname]]: <color:GRAY>String?</color>
  <color:Green><&star></color>[[/blob/master/doc/entities/LaplacianModule.md#version-string version]]: <color:GRAY>String</color>
  [[/blob/master/doc/entities/LaplacianModule.md#description-string description]]: <color:GRAY>String</color>
  [[/blob/master/doc/entities/LaplacianModule.md#repository-string repository]]: <color:GRAY>String?</color>
  [[/blob/master/doc/entities/LaplacianModule.md#module_signature-listString moduleSignature]](): <color:GRAY>List<String></color>
  [[/blob/master/doc/entities/LaplacianModule.md#module_id-string moduleId]](): <color:GRAY>String</color>
  [[/blob/master/doc/entities/LaplacianModule.md#artifact_id-string artifactId]](): <color:GRAY>String</color>
  [[/blob/master/doc/entities/LaplacianModule.md#for_template-boolean forTemplate]](): <color:GRAY>Boolean</color>
  [[/blob/master/doc/entities/LaplacianModule.md#for_model-boolean forModel]](): <color:GRAY>Boolean</color>
  [[/blob/master/doc/entities/LaplacianModule.md#for_plugin-boolean forPlugin]](): <color:GRAY>Boolean</color>
  [[/blob/master/doc/entities/LaplacianModule.md#for_generator-boolean forGenerator]](): <color:GRAY>Boolean</color>
}




class LaplacianProject [[/blob/master/doc/entities/LaplacianProject.md]] {
  [[/blob/master/doc/entities/LaplacianProject.md#namespace-string namespace]]: <color:GRAY>String</color>
  [[/blob/master/doc/entities/LaplacianProject.md#plugins_excluding_self-listLaplacianPluginDependency pluginsExcludingSelf]](): <color:GRAY>List<LaplacianPluginDependency></color>
  [[/blob/master/doc/entities/LaplacianProject.md#models_excluding_self-listLaplacianModelDependency modelsExcludingSelf]](): <color:GRAY>List<LaplacianModelDependency></color>
  [[/blob/master/doc/entities/LaplacianProject.md#templates_excluding_self-listLaplacianTemplateDependency templatesExcludingSelf]](): <color:GRAY>List<LaplacianTemplateDependency></color>
}

LaplacianProject - -|> LaplacianModule







LaplacianProject *- - "*" LaplacianPluginDependency : plugins






LaplacianProject *- - "*" LaplacianModelDependency : models






LaplacianProject *- - "*" LaplacianTemplateDependency : templates




class LaplacianModuleDependency [[/blob/master/doc/entities/LaplacianModuleDependency.md]] {
  <color:Green><&star></color>[[/blob/master/doc/entities/LaplacianModuleDependency.md#group-string group]]: <color:GRAY>String</color>
  <color:Green><&star></color>[[/blob/master/doc/entities/LaplacianModuleDependency.md#name-string name]]: <color:GRAY>String</color>
  [[/blob/master/doc/entities/LaplacianModuleDependency.md#subname-string subname]]: <color:GRAY>String?</color>
  <color:Green><&star></color>[[/blob/master/doc/entities/LaplacianModuleDependency.md#version-string version]]: <color:GRAY>String</color>
  <color:Green><&star></color>[[/blob/master/doc/entities/LaplacianModuleDependency.md#type-string type]]: <color:GRAY>String</color>
}






LaplacianModuleDependency - - "1" LaplacianModule : depends_to




class LaplacianModelDependency [[/blob/master/doc/entities/LaplacianModelDependency.md]] {
  <color:GREEN><&arrow-thick-top></color>[[/blob/master/doc/entities/LaplacianModelDependency.md#type-string type]](): <color:GRAY>String</color>
}

LaplacianModelDependency - -|> LaplacianModuleDependency





class LaplacianTemplateDependency [[/blob/master/doc/entities/LaplacianTemplateDependency.md]] {
  <color:GREEN><&arrow-thick-top></color>[[/blob/master/doc/entities/LaplacianTemplateDependency.md#type-string type]](): <color:GRAY>String</color>
}

LaplacianTemplateDependency - -|> LaplacianModuleDependency





class LaplacianPluginDependency [[/blob/master/doc/entities/LaplacianPluginDependency.md]] {
  <color:GREEN><&arrow-thick-top></color>[[/blob/master/doc/entities/LaplacianPluginDependency.md#type-string type]](): <color:GRAY>String</color>
}

LaplacianPluginDependency - -|> LaplacianModuleDependency




@enduml

PlantUML version 1.2019.05(Sun Apr 21 01:45:36 JST 2019)
(GPL source distribution)
Java Runtime: OpenJDK Runtime Environment
JVM: OpenJDK 64-Bit Server VM
Java Version: 1.8.0_172-b01
Operating System: Mac OS X
OS Version: 10.14.5
Default Encoding: UTF-8
Language: en
Country: JP
--></g></svg>